<svg width="66" height="66" viewBox="0 0 66 66" fill="none" xmlns="http://www.w3.org/2000/svg">
<path d="M45.0568 38.9414C45.3757 38.9712 45.6857 38.828 45.8697 38.566C46.0535 38.3039 46.0826 37.9634 45.9461 37.6739L42.6879 30.7713C43.4857 30.5563 44.1982 30.1339 44.8358 29.4963C46.054 28.278 46.4943 26.7903 46.1819 24.9483C45.9734 23.7176 46.4565 22.5512 47.4742 21.8284C48.9977 20.7464 49.7384 19.3831 49.7384 17.6605C49.7384 15.9378 48.9978 14.5745 47.4742 13.4925C46.4565 12.7697 45.9734 11.6033 46.1821 10.3724C46.4938 8.5297 46.0534 7.04215 44.8357 5.82446C43.6174 4.60613 42.1296 4.16569 40.2877 4.47833C39.0571 4.68683 37.8907 4.20376 37.1678 3.18604C36.0857 1.66247 34.7223 0.921875 32.9998 0.921875C31.2773 0.921875 29.9138 1.66247 28.8318 3.18604C28.1089 4.20376 26.9423 4.68696 25.7119 4.4782C23.8692 4.16646 22.3816 4.60677 21.1639 5.82458C19.9462 7.0424 19.5054 8.53046 19.8178 10.3727C20.0263 11.6033 19.5432 12.7697 18.5254 13.4925C17.0019 14.5746 16.2614 15.9379 16.2614 17.6605C16.2614 19.383 17.0019 20.7464 18.5254 21.8283C19.5431 22.5512 20.0263 23.7176 19.8177 24.9484C19.5059 26.791 19.9462 28.2786 21.1641 29.4963C21.8155 30.1478 22.5451 30.5746 23.3637 30.7851L20.1015 37.6963C19.965 37.9858 19.994 38.3263 20.1779 38.5884C20.3619 38.8505 20.6716 38.9932 20.9908 38.9638L24.7434 38.6111L27.1514 41.5108C27.3224 41.7166 27.5746 41.8326 27.8369 41.8326C27.8885 41.8326 27.9403 41.8281 27.9921 41.819C28.3073 41.7632 28.5683 41.5428 28.676 41.2412L31.2298 34.0912C31.7733 34.2967 32.3618 34.3989 32.9999 34.3989C33.6573 34.3989 34.2619 34.2902 34.819 34.0722L37.3716 41.2188C37.4793 41.5202 37.7403 41.7408 38.0555 41.7966C38.1073 41.8057 38.1591 41.8102 38.2107 41.8102C38.4729 41.8102 38.7252 41.6942 38.8962 41.4884L41.3042 38.5887L45.0568 38.9414ZM27.5235 39.1696L25.8136 37.1106C25.6254 36.8842 25.3379 36.7652 25.0446 36.7928L22.3801 37.0433L25.2793 30.9011C25.4215 30.8859 25.5652 30.8674 25.7119 30.8426C26.9427 30.6341 28.1091 31.1172 28.8317 32.1349C29.0984 32.5104 29.3825 32.8379 29.6846 33.119L27.5235 39.1696ZM30.2848 31.1029C29.3294 29.7578 27.8782 29.011 26.2894 29.011C26.0016 29.011 25.7088 29.0355 25.4143 29.0854C24.131 29.303 23.2369 29.0489 22.4241 28.2361C21.6116 27.4236 21.3575 26.5293 21.5747 25.2458C21.9002 23.3245 21.146 21.5038 19.5572 20.3752C18.4961 19.6217 18.0433 18.8097 18.0433 17.6602C18.0433 16.5107 18.4961 15.6989 19.5572 14.9452C21.1461 13.8167 21.9003 11.9959 21.5747 10.0745C21.3572 8.79154 21.6111 7.8973 22.424 7.08441C23.2365 6.27177 24.1306 6.01794 25.4143 6.23511C27.3353 6.56098 29.1563 5.80638 30.2848 4.21776C31.0385 3.15664 31.8505 2.70386 32.9998 2.70386C34.1491 2.70386 34.9611 3.15664 35.715 4.21789C36.8433 5.80638 38.6637 6.56021 40.5856 6.23523C41.8683 6.01769 42.7627 6.27164 43.5757 7.08453C44.3882 7.89692 44.6422 8.79129 44.4252 10.0747C44.0995 11.9959 44.8536 13.8167 46.4425 14.9452C47.5036 15.6989 47.9564 16.5109 47.9564 17.6602C47.9564 18.8095 47.5036 19.6215 46.4424 20.3752C44.8536 21.5037 44.0994 23.3245 44.425 25.2459C44.6426 26.5289 44.3886 27.4231 43.5757 28.236C42.7632 29.0486 41.8691 29.3028 40.5855 29.0854C38.6642 28.7597 36.8434 29.514 35.715 31.1028C34.9611 32.164 34.1491 32.6168 32.9998 32.6168C31.8505 32.6168 31.0385 32.164 30.2848 31.1029ZM40.2336 37.0882L38.5238 39.1471L36.3562 33.0784C36.6427 32.8062 36.9133 32.4929 37.1678 32.1347C37.8907 31.117 39.0571 30.634 40.2879 30.8426C40.4555 30.871 40.6193 30.891 40.7811 30.9067L43.667 37.0207L41.0025 36.7703C40.7091 36.7428 40.4218 36.8617 40.2336 37.0882ZM43.8434 17.6603C43.8434 11.6811 38.979 6.81671 32.9998 6.81671C27.0206 6.81671 22.1562 11.6811 22.1562 17.6603C22.1562 23.6396 27.0206 28.504 32.9998 28.504C38.979 28.504 43.8434 23.6396 43.8434 17.6603ZM32.9998 26.7218C28.0033 26.7218 23.9383 22.6569 23.9383 17.6603C23.9383 12.6638 28.0033 8.59882 32.9998 8.59882C37.9963 8.59882 42.0613 12.6638 42.0613 17.6603C42.0613 22.6569 37.9963 26.7218 32.9998 26.7218ZM40.1398 15.3708C39.9715 14.8529 39.5314 14.4888 38.9911 14.421L35.6779 14.0046L34.2581 10.9823C34.0266 10.4894 33.5444 10.1832 32.9998 10.1832C32.4552 10.1832 31.9732 10.4895 31.7416 10.9823L30.3217 14.0046L27.0086 14.421C26.4681 14.4888 26.0279 14.8529 25.8599 15.3706C25.6915 15.8884 25.8337 16.4416 26.231 16.8142L28.6666 19.0986L28.0389 22.3782C27.9366 22.9131 28.1466 23.4442 28.5871 23.7641C29.0275 24.0842 29.5975 24.1198 30.0747 23.8572L32.9998 22.2468L35.9251 23.8574C36.1373 23.9741 36.3679 24.032 36.5972 24.032C36.8835 24.032 37.1679 23.9419 37.4123 23.7643C37.8529 23.4443 38.063 22.9132 37.9607 22.3782L37.333 19.0985L39.7688 16.814C40.1658 16.4414 40.308 15.8884 40.1398 15.3708ZM35.7561 18.1344C35.5333 18.3433 35.433 18.6517 35.4906 18.9517L36.0537 21.8939L33.4296 20.4492C33.162 20.3019 32.8376 20.3019 32.5701 20.4492L29.9459 21.894L30.5091 18.9519C30.5665 18.6519 30.4663 18.3434 30.2435 18.1345L28.0585 16.0852L31.0308 15.7116C31.3339 15.6735 31.5963 15.4829 31.7261 15.2064L32.9999 12.4951L34.2736 15.2064C34.4035 15.4827 34.666 15.6734 34.9689 15.7116L37.9412 16.0852L35.7561 18.1344ZM25.4682 45.5744C24.7007 42.9653 22.7938 41.5037 20.5858 39.8112C18.1846 37.9708 15.4636 35.8852 13.0173 31.6535C12.4595 30.6107 11.42 29.9798 10.2327 29.9649C9.4817 29.9554 8.78413 30.194 8.22493 30.6305C7.56695 26.4614 7.16954 20.7449 7.16954 18.3271C7.16954 16.2862 5.99551 15.1367 4.83205 14.9026C3.55975 14.6467 2.35187 15.4013 1.75511 16.825C0.926816 18.8019 0.837201 26.5942 0.973278 30.3268C1.09904 33.774 1.33339 36.4793 3.21326 39.908C4.10699 41.5382 5.20095 43.1237 6.25901 44.6571C6.7039 45.302 7.12423 45.9111 7.51158 46.498C9.20102 49.0578 10.3397 51.1766 10.6603 53.4732C9.71732 53.6678 8.91435 54.3728 8.64857 55.3645L7.38938 60.0638C7.32828 60.2921 7.36023 60.5353 7.47836 60.74C7.59649 60.9447 7.79112 61.094 8.01935 61.1551L22.546 65.0475C22.6218 65.0679 22.6993 65.0779 22.7766 65.0779C22.9317 65.0779 23.0856 65.0374 23.2221 64.9585C23.4268 64.8404 23.5761 64.6458 23.6372 64.4175L24.8964 59.7182C25.1844 58.644 24.7583 57.5455 23.9123 56.9225C25.7563 51.6968 26.2356 48.1825 25.4682 45.5744ZM23.175 59.2568L22.1465 63.0953L9.3413 59.6642L10.3698 55.8257C10.4906 55.3754 10.9547 55.1075 11.4052 55.2278L22.5771 58.2214C23.0275 58.3421 23.2957 58.8065 23.175 59.2568ZM22.2462 56.2877L12.4784 53.6704C12.1575 50.5371 10.5255 47.8293 8.99901 45.5163C8.60147 44.914 8.17618 44.2975 7.72594 43.645C6.69347 42.1485 5.62585 40.6012 4.77604 39.0512C3.08062 35.9589 2.87479 33.5634 2.75437 30.2618C2.58405 25.5908 2.83367 18.8629 3.39886 17.5138C3.66083 16.8892 4.06498 16.566 4.48085 16.6496C4.91759 16.7375 5.38756 17.2997 5.38756 18.327C5.38756 21.5294 6.02186 29.8777 7.05816 33.9087C7.55499 37.5334 11.7026 42.3481 13.5518 43.5265C13.9669 43.7909 14.5176 43.6688 14.7821 43.2538C15.0466 42.8389 14.9245 42.2881 14.5094 42.0235C13.5719 41.4262 11.7964 39.5434 10.4479 37.4266C9.04547 35.225 8.47226 33.3258 8.95216 32.4699C9.2098 32.0104 9.68372 31.7447 10.2102 31.7466C10.7404 31.7532 11.2039 32.0355 11.4498 32.5015C11.455 32.5114 11.4605 32.5212 11.4661 32.5309C14.0919 37.0788 17.0913 39.378 19.5015 41.2254C21.6224 42.8511 23.1549 44.0257 23.7584 46.0772C24.4033 48.2691 23.9226 51.5232 22.2462 56.2877ZM64.2444 16.825C63.6476 15.4014 62.4399 14.647 61.1676 14.9026C60.0041 15.1366 58.8301 16.2862 58.8301 18.3271C58.8301 20.7447 58.4328 26.4606 57.7748 30.6299C57.2159 30.1931 56.5187 29.9543 55.7669 29.9649C54.5797 29.9799 53.5401 30.6107 52.9823 31.6535C50.536 35.8852 47.815 37.9706 45.4138 39.8112C43.2058 41.5035 41.299 42.9653 40.5314 45.5744C39.7641 48.1825 40.2433 51.6967 42.0872 56.9224C41.2413 57.5453 40.8152 58.6437 41.1032 59.718L42.3624 64.4173C42.4235 64.6455 42.5728 64.8401 42.7775 64.9583C42.9141 65.0372 43.068 65.0777 43.223 65.0777C43.3001 65.0777 43.3778 65.0676 43.4537 65.0472L57.9803 61.1549C58.2085 61.0938 58.4031 60.9444 58.5213 60.7398C58.6394 60.5351 58.6715 60.2918 58.6102 60.0636L57.3511 55.3643C57.0853 54.3727 56.282 53.6678 55.3393 53.4731C55.66 51.1766 56.7986 49.0577 58.4879 46.4979C58.8751 45.9111 59.2953 45.3022 59.7401 44.6576C60.7982 43.124 61.8924 41.5382 62.7862 39.9079C64.6662 36.4789 64.9006 33.7739 65.0262 30.3267C65.1624 26.594 65.0729 18.8019 64.2444 16.825ZM55.6298 55.8257L56.6583 59.6644L43.8531 63.0954L42.8246 59.2568C42.7039 58.8065 42.9721 58.3421 43.4223 58.2214L54.5944 55.2278C54.6674 55.2082 54.7408 55.1989 54.8129 55.1989C55.1862 55.1989 55.5287 55.4485 55.6298 55.8257ZM63.2454 30.2618C63.125 33.5634 62.9193 35.9586 61.2236 39.0514C60.3738 40.6015 59.3059 42.1491 58.2733 43.6458C57.8231 44.2981 57.398 44.9144 57.0005 45.5165C55.474 47.8295 53.8421 50.5372 53.5212 53.6705L43.7533 56.2878C42.0767 51.5233 41.5961 48.2692 42.2409 46.0775C42.8444 44.026 44.3769 42.8515 46.4979 41.2257C48.9081 39.3783 51.9075 37.0791 54.5333 32.5311C54.5389 32.5213 54.5444 32.5115 54.5496 32.5017C54.7956 32.0357 55.259 31.7536 55.7892 31.7469C56.3229 31.7454 56.7897 32.0106 57.0473 32.4703C57.5272 33.3262 56.954 35.2254 55.5516 37.4268C54.2032 39.5435 52.4276 41.4263 51.4901 42.0238C51.0751 42.2883 50.953 42.8391 51.2174 43.2541C51.4819 43.6689 52.0325 43.7911 52.4477 43.5267C54.2969 42.3484 58.4439 37.5335 58.9407 33.9087C59.977 29.8772 60.6119 21.5293 60.6119 18.3272C60.6119 17.3001 61.0819 16.7377 61.5188 16.6499C61.9343 16.5664 62.3389 16.8893 62.6008 17.5139C63.1662 18.8631 63.4157 25.591 63.2454 30.2618ZM49.2959 10.3592C49.0499 9.93298 49.1959 9.38804 49.622 9.14198L51.8158 7.87541C52.2421 7.62948 52.7869 7.77536 53.033 8.20153C53.2791 8.62771 53.1331 9.17266 52.7069 9.41871L50.5131 10.6853C50.3727 10.7662 50.2196 10.8048 50.0683 10.8048C49.7604 10.8048 49.4609 10.6451 49.2959 10.3592ZM52.7069 25.9018C53.1331 26.1479 53.2791 26.6928 53.033 27.119C52.868 27.4049 52.5685 27.5647 52.2605 27.5647C52.1092 27.5647 51.9561 27.5262 51.8158 27.4451L49.622 26.1786C49.1959 25.9325 49.0499 25.3876 49.2959 24.9614C49.5421 24.5351 50.0869 24.3891 50.5131 24.6353L52.7069 25.9018ZM52.1432 16.7693H54.6764C55.1685 16.7693 55.5674 17.1682 55.5674 17.6603C55.5674 18.1524 55.1685 18.5514 54.6764 18.5514H52.1432C51.6511 18.5514 51.2522 18.1524 51.2522 17.6603C51.2522 17.1682 51.6511 16.7693 52.1432 16.7693ZM15.4866 24.6353C15.9131 24.3893 16.4579 24.5352 16.7038 24.9614C16.9499 25.3876 16.8039 25.9325 16.3777 26.1786L14.1839 27.4451C14.0435 27.5261 13.8904 27.5647 13.7393 27.5647C13.4314 27.5647 13.1318 27.4049 12.9667 27.119C12.7207 26.6928 12.8667 26.1479 13.2929 25.9018L15.4866 24.6353ZM10.4322 17.6603C10.4322 17.1682 10.8311 16.7693 11.3233 16.7693H13.8565C14.3486 16.7693 14.7476 17.1682 14.7476 17.6603C14.7476 18.1524 14.3486 18.5514 13.8565 18.5514H11.3233C10.8311 18.5514 10.4322 18.1524 10.4322 17.6603ZM12.9667 8.20153C13.2128 7.77523 13.7579 7.62922 14.1839 7.87541L16.3777 9.14198C16.8039 9.38804 16.9499 9.93298 16.7038 10.3592C16.5389 10.6451 16.2393 10.8048 15.9314 10.8048C15.7802 10.8048 15.627 10.7664 15.4866 10.6853L13.2929 9.41871C12.8667 9.17266 12.7207 8.62771 12.9667 8.20153Z" fill="white"/>
</svg>
