<svg width="61" height="60" viewBox="0 0 61 60" fill="none" xmlns="http://www.w3.org/2000/svg">
<path d="M1.69017 30.5939C1.53487 23.0098 4.35093 15.3764 10.1383 9.58894C21.4106 -1.68329 39.6866 -1.68329 50.9588 9.58894" stroke="white" stroke-width="1.74232" stroke-miterlimit="10" stroke-linecap="round" stroke-linejoin="round"/>
<path d="M59.4068 29.4053C59.5621 36.9892 56.7461 44.6228 50.9587 50.4102C39.6864 61.6825 21.4104 61.6825 10.1382 50.4102" stroke="white" stroke-width="1.74232" stroke-miterlimit="10" stroke-linecap="round" stroke-linejoin="round"/>
<path d="M27.8447 51.3307C17.6045 50.0964 9.49471 41.9419 8.3291 31.6807" stroke="white" stroke-width="1.74232" stroke-miterlimit="10" stroke-linecap="round" stroke-linejoin="round"/>
<path d="M46.6268 44.6738C43.1499 48.269 38.4782 50.7014 33.2515 51.331" stroke="white" stroke-width="1.74232" stroke-miterlimit="10" stroke-linecap="round" stroke-linejoin="round"/>
<path d="M33.2705 6.92871C44.3381 8.27146 52.9127 17.6987 52.9127 29.1286C52.9127 33.3091 51.7657 37.2216 49.7691 40.5686" stroke="white" stroke-width="1.74232" stroke-miterlimit="10" stroke-linecap="round" stroke-linejoin="round"/>
<path d="M16.6724 11.5887C19.8143 9.09964 23.6407 7.43689 27.8233 6.92871" stroke="white" stroke-width="1.74232" stroke-miterlimit="10" stroke-linecap="round" stroke-linejoin="round"/>
<path d="M8.29639 26.8791C8.76693 22.1671 10.7002 17.8858 13.6354 14.4961" stroke="white" stroke-width="1.74232" stroke-miterlimit="10" stroke-linecap="round" stroke-linejoin="round"/>
<path d="M28.0348 50.3752C24.8309 47.4371 22.5181 39.0352 22.5181 29.1289C22.5181 19.0936 24.8916 10.6021 28.1605 7.77051" stroke="white" stroke-width="1.74232" stroke-miterlimit="10" stroke-linecap="round" stroke-linejoin="round"/>
<path d="M37.4141 40.7373C36.4302 45.2404 34.8912 48.6991 33.0615 50.3763" stroke="white" stroke-width="1.74232" stroke-miterlimit="10" stroke-linecap="round" stroke-linejoin="round"/>
<path d="M38.5276 31.6787C38.4606 33.323 38.3295 34.9132 38.1416 36.4296" stroke="white" stroke-width="1.74232" stroke-miterlimit="10" stroke-linecap="round" stroke-linejoin="round"/>
<path d="M33.4253 8.24219C36.132 11.1351 38.1335 17.9913 38.5137 26.2595" stroke="white" stroke-width="1.74232" stroke-miterlimit="10" stroke-linecap="round" stroke-linejoin="round"/>
<path d="M41.1299 29.1289H52.6876" stroke="white" stroke-width="1.74232" stroke-miterlimit="10" stroke-linecap="round" stroke-linejoin="round"/>
<path d="M10.4697 29.1289H35.9692" stroke="white" stroke-width="1.74232" stroke-miterlimit="10" stroke-linecap="round" stroke-linejoin="round"/>
<path d="M52.6877 13.7309C53.9299 13.7309 54.9369 12.7239 54.9369 11.4816C54.9369 10.2394 53.9299 9.23242 52.6877 9.23242C51.4455 9.23242 50.4385 10.2394 50.4385 11.4816C50.4385 12.7239 51.4455 13.7309 52.6877 13.7309Z" stroke="white" stroke-width="1.74232" stroke-miterlimit="10" stroke-linecap="round" stroke-linejoin="round"/>
<path d="M8.63594 50.8305C9.87815 50.8305 10.8852 49.8235 10.8852 48.5812C10.8852 47.339 9.87815 46.332 8.63594 46.332C7.39373 46.332 6.38672 47.339 6.38672 48.5812C6.38672 49.8235 7.39373 50.8305 8.63594 50.8305Z" stroke="white" stroke-width="1.74232" stroke-miterlimit="10" stroke-linecap="round" stroke-linejoin="round"/>
<path d="M7.88936 31.3783C9.13157 31.3783 10.1386 30.3713 10.1386 29.1291C10.1386 27.8869 9.13157 26.8799 7.88936 26.8799C6.64715 26.8799 5.64014 27.8869 5.64014 29.1291C5.64014 30.3713 6.64715 31.3783 7.88936 31.3783Z" stroke="white" stroke-width="1.74232" stroke-miterlimit="10" stroke-linecap="round" stroke-linejoin="round"/>
<path d="M48.1892 44.7572C49.4314 44.7572 50.4384 43.7502 50.4384 42.508C50.4384 41.2658 49.4314 40.2588 48.1892 40.2588C46.947 40.2588 45.9399 41.2658 45.9399 42.508C45.9399 43.7502 46.947 44.7572 48.1892 44.7572Z" stroke="white" stroke-width="1.74232" stroke-miterlimit="10" stroke-linecap="round" stroke-linejoin="round"/>
<path d="M30.4362 9.23184C31.6784 9.23184 32.6855 8.22483 32.6855 6.98262C32.6855 5.74041 31.6784 4.7334 30.4362 4.7334C29.194 4.7334 28.187 5.74041 28.187 6.98262C28.187 8.22483 29.194 9.23184 30.4362 9.23184Z" stroke="white" stroke-width="1.74232" stroke-miterlimit="10" stroke-linecap="round" stroke-linejoin="round"/>
<path d="M38.5793 31.3783C39.8215 31.3783 40.8285 30.3713 40.8285 29.1291C40.8285 27.8869 39.8215 26.8799 38.5793 26.8799C37.3371 26.8799 36.3301 27.8869 36.3301 29.1291C36.3301 30.3713 37.3371 31.3783 38.5793 31.3783Z" stroke="white" stroke-width="1.74232" stroke-miterlimit="10" stroke-linecap="round" stroke-linejoin="round"/>
<path d="M30.4362 53.5238C31.6784 53.5238 32.6855 52.5168 32.6855 51.2746C32.6855 50.0324 31.6784 49.0254 30.4362 49.0254C29.194 49.0254 28.187 50.0324 28.187 51.2746C28.187 52.5168 29.194 53.5238 30.4362 53.5238Z" stroke="white" stroke-width="1.74232" stroke-miterlimit="10" stroke-linecap="round" stroke-linejoin="round"/>
</svg>
