<svg width="90" height="89" viewBox="0 0 90 89" fill="none" xmlns="http://www.w3.org/2000/svg">
<path d="M41.3915 54.0248H41.3654C40.8122 54.0366 40.2592 53.9976 39.7132 53.9081C38.6688 53.7387 37.6609 53.3925 36.7327 52.8844C36.6735 52.8514 36.6196 52.8096 36.5586 52.7765C36.2011 52.5676 35.8579 52.3349 35.5315 52.0801C35.4305 52.0035 35.3313 51.9252 35.2338 51.8434C35.1363 51.7615 35.0196 51.631 34.9082 51.5282C36.3709 49.5548 37.403 47.2963 37.9375 44.8987C37.9729 44.7363 37.976 44.5685 37.9466 44.4048C37.9171 44.2412 37.8558 44.0849 37.766 43.945C37.6762 43.8051 37.5597 43.6843 37.4232 43.5894C37.2867 43.4944 37.1328 43.4274 36.9704 43.3919C36.8079 43.3565 36.6401 43.3534 36.4765 43.3828C36.3128 43.4122 36.1566 43.4736 36.0167 43.5634C35.8768 43.6532 35.7559 43.7697 35.661 43.9062C35.5661 44.0427 35.499 44.1966 35.4636 44.359C34.9434 46.7456 33.8479 48.9688 32.2724 50.8353C32.2446 50.8684 32.2132 50.8998 32.1906 50.9328C31.7884 51.399 31.3581 51.8403 30.9023 52.2542C30.756 52.3865 30.6011 52.5032 30.4514 52.6303C30.1363 52.8966 29.8159 53.1525 29.4817 53.398C29.2971 53.5286 29.1074 53.6452 28.9193 53.7671C28.599 53.9743 28.2769 54.1762 27.9427 54.3555C27.7407 54.467 27.5336 54.5679 27.3264 54.6707C26.9904 54.8343 26.6492 54.9823 26.301 55.1216C26.0886 55.2051 25.8762 55.2852 25.6603 55.3583C25.3017 55.4837 24.9361 55.5881 24.5687 55.6821C24.3528 55.7379 24.1387 55.797 23.9211 55.8441C23.5363 55.9241 23.1446 55.9816 22.7529 56.0321C22.5423 56.0582 22.3351 56.0965 22.1227 56.1139C21.6927 56.1505 21.2522 56.1557 20.8222 56.1557C20.6481 56.1557 20.4653 56.1713 20.2825 56.1557C19.6522 56.1362 19.0237 56.0781 18.4005 55.9816C15.1972 55.4678 12.2466 53.9301 9.99061 51.5986C7.73461 49.2672 6.29467 46.2676 5.88649 43.0492C5.4783 39.8307 6.12383 36.5666 7.72639 33.7458C9.32895 30.925 11.8023 28.6994 14.7759 27.4022C15.6052 29.9478 17.271 32.1382 19.5026 33.6174C19.7833 33.801 20.1253 33.8659 20.4539 33.7981C20.7824 33.7302 21.0707 33.5351 21.2557 33.2553C21.4403 32.9745 21.5058 32.6319 21.4379 32.3029C21.37 31.9738 21.1742 31.6851 20.8936 31.5004C19.8525 30.8134 18.96 29.9245 18.2689 28.8862C17.5778 27.8478 17.1022 26.6814 16.8703 25.4558C16.8703 25.4454 16.8703 25.4384 16.8598 25.428C16.8607 25.4111 16.8607 25.3943 16.8598 25.3775C16.4761 23.2318 16.8623 21.0195 17.9502 19.1306C19.0381 17.2417 20.758 15.7976 22.8065 15.0527C24.855 14.3079 27.1008 14.3101 29.1478 15.0591C31.1949 15.808 32.9118 17.2556 33.9959 19.1466C33.8071 21.4548 34.2393 23.7714 35.2477 25.8562C35.3516 26.0703 35.5137 26.2507 35.7153 26.3769C35.917 26.5031 36.1501 26.5701 36.388 26.57C36.5795 26.5705 36.7684 26.5264 36.9399 26.4412C37.2421 26.2941 37.4734 26.033 37.5831 25.7153C37.6928 25.3977 37.6719 25.0495 37.5248 24.7473C36.6497 22.9516 36.3066 20.943 36.536 18.9586C36.5551 18.8037 36.576 18.6487 36.6021 18.4903C36.8196 17.1256 37.304 15.8172 38.0275 14.6399C38.751 13.4626 39.6995 12.4394 40.8186 11.6288C41.9378 10.8183 43.2058 10.2363 44.5501 9.91615C45.8944 9.59598 47.2886 9.54391 48.653 9.76293C50.9389 10.1405 53.0378 11.258 54.6272 12.9437C56.2167 14.6294 57.209 16.7902 57.4517 19.0944C56.615 20.1923 55.9801 21.4302 55.5767 22.7504C55.479 23.0718 55.5129 23.4187 55.6709 23.7151C55.8289 24.0115 56.0981 24.2331 56.4193 24.3312C56.5391 24.3668 56.6634 24.385 56.7884 24.3851C57.0609 24.3863 57.3265 24.2998 57.546 24.1383C57.7654 23.9768 57.9271 23.749 58.0071 23.4886C58.3624 22.3148 58.9496 21.2243 59.7341 20.2817C59.7682 20.2483 59.7997 20.2122 59.8281 20.1738C60.8599 18.9705 62.1824 18.0513 63.6697 17.5034C65.1571 16.9555 66.7599 16.7972 68.3257 17.0436C68.4898 17.0699 68.6576 17.0636 68.8193 17.025C68.981 16.9865 69.1335 16.9165 69.2682 16.819C69.4029 16.7215 69.517 16.5985 69.6041 16.4569C69.6912 16.3153 69.7496 16.1579 69.7759 15.9938C69.8022 15.8296 69.7959 15.6619 69.7574 15.5002C69.7188 15.3385 69.6488 15.1859 69.5513 15.0513C69.4539 14.9166 69.3308 14.8024 69.1892 14.7153C69.0476 14.6282 68.8903 14.5699 68.7261 14.5436C67.1296 14.2919 65.4984 14.369 63.9327 14.7702C62.3671 15.1714 60.8998 15.8881 59.621 16.8764C58.9731 14.4255 57.6306 12.2142 55.7552 10.5086C53.8797 8.80295 51.5511 7.67583 49.0499 7.26293C46.035 6.78012 42.9462 7.36918 40.3205 8.92771C37.6949 10.4862 35.6985 12.9157 34.6784 15.7936C33.1793 14.1616 31.2512 12.9846 29.1145 12.3972C26.9778 11.8098 24.719 11.8357 22.5963 12.472C20.4737 13.1083 18.573 14.3292 17.1118 15.9951C15.6506 17.6611 14.6878 19.7046 14.3337 21.8921C14.1775 22.8706 14.1435 23.8648 14.2327 24.8517C10.6696 26.2838 7.6739 28.8441 5.70435 32.1407C3.73481 35.4373 2.89992 39.2886 3.3275 43.1049C3.75509 46.9212 5.42159 50.4922 8.07186 53.2712C10.7221 56.0502 14.2101 57.8841 18.0019 58.492C18.5067 58.5739 19.0099 58.6296 19.5148 58.6661C20.1363 59.6915 21.5673 62.7608 20.669 68.3719C20.5587 69.0542 20.5978 69.7524 20.7835 70.4181C20.9693 71.0839 21.2973 71.7014 21.7449 72.2281C22.5389 73.1583 23.6641 73.7425 24.8817 73.8566C26.0994 73.9707 27.3136 73.6057 28.2665 72.8392C36.5934 66.0495 38.3518 59.3416 38.6982 56.2636C38.9037 56.3071 39.1021 56.375 39.3111 56.4081C40.0076 56.5189 40.7125 56.5684 41.4176 56.5561C41.7533 56.5526 42.0738 56.416 42.3087 56.1762C42.5437 55.9364 42.6737 55.613 42.6702 55.2774C42.6668 54.9417 42.5301 54.6211 42.2903 54.3862C42.0505 54.1513 41.7272 54.0213 41.3915 54.0248ZM36.2209 55.468C36.0607 57.6372 34.8716 64.1832 26.6648 70.8806C26.3156 71.1514 25.8925 71.31 25.4513 71.3357C25.0102 71.3615 24.5715 71.253 24.1932 71.0246C23.8148 70.7963 23.5145 70.4587 23.3317 70.0564C23.1489 69.654 23.0922 69.2058 23.169 68.7706C23.8497 65.3872 23.5662 61.8806 22.3508 58.6505L22.4187 58.6418C22.7146 58.6156 23.0054 58.5669 23.2891 58.5269C23.5346 58.492 23.7801 58.4624 24.0203 58.4154C24.3145 58.3615 24.6035 58.2918 24.8908 58.2222C25.1276 58.1665 25.3643 58.109 25.5976 58.0481C25.8797 57.968 26.1565 57.874 26.4333 57.7835C26.6718 57.7016 26.9068 57.6181 27.1418 57.5275C27.4065 57.4231 27.6641 57.3152 27.927 57.1985C28.1899 57.0819 28.4058 56.9757 28.6425 56.8503C28.8793 56.725 29.1248 56.6048 29.3615 56.4708C29.5983 56.3367 29.856 56.1783 30.0997 56.0234C30.3138 55.8893 30.528 55.7605 30.7352 55.616C31.0085 55.4245 31.2714 55.2208 31.536 55.0154C31.7101 54.8848 31.8737 54.7612 32.0356 54.6254C32.4552 54.2772 32.8643 53.9012 33.2543 53.5077C33.6817 53.8934 34.1374 54.2467 34.6175 54.5645C34.8473 54.7211 35.0962 54.8413 35.3382 54.9788C35.5802 55.1163 35.8466 55.2852 36.1164 55.414C36.1599 55.4297 36.1895 55.4523 36.2209 55.468Z" fill="white"/>
<path d="M78.4005 28.589C78.4353 28.4149 78.4666 28.2408 78.4945 28.0667C78.712 26.7289 78.6967 25.3637 78.4492 24.0312C78.4217 23.8648 78.3612 23.7056 78.2714 23.5629C78.1816 23.4202 78.0642 23.2969 77.9261 23.2001C77.788 23.1034 77.632 23.0351 77.4672 22.9994C77.3024 22.9637 77.1321 22.9613 76.9663 22.9922C76.8006 23.0231 76.6427 23.0868 76.5018 23.1796C76.361 23.2723 76.2401 23.3922 76.1462 23.5322C76.0523 23.6723 75.9872 23.8296 75.9549 23.9951C75.9226 24.1606 75.9236 24.3309 75.9579 24.496C76.1535 25.5426 76.1665 26.6152 75.9962 27.6663C75.9701 27.8404 75.9353 27.9831 75.9022 28.1381C74.5217 28.0207 73.1314 28.1516 71.7971 28.5246C71.5021 28.6073 71.2471 28.7941 71.0794 29.0506C70.9117 29.307 70.8428 29.6155 70.8853 29.9189C70.9278 30.2223 71.079 30.5 71.3106 30.7004C71.5423 30.9009 71.8389 31.0105 72.1452 31.0089C72.2629 31.009 72.38 30.9932 72.4934 30.9619C73.7795 30.6018 75.1285 30.5251 76.4471 30.7373L76.6212 30.7686C79.0017 31.2097 81.1165 32.5612 82.5165 34.5363C83.9166 36.5114 84.4916 38.9544 84.1195 41.3466C83.9974 42.1091 83.7799 42.8531 83.4718 43.5611C83.4055 43.7137 83.3699 43.8779 83.3671 44.0442C83.3643 44.2106 83.3943 44.3759 83.4554 44.5306C83.5166 44.6853 83.6076 44.8265 83.7233 44.9461C83.8391 45.0656 83.9772 45.1611 84.1299 45.2272C84.2876 45.2977 84.4585 45.3339 84.6313 45.3334C84.8785 45.3342 85.1205 45.2623 85.3273 45.1267C85.534 44.9912 85.6964 44.7979 85.7943 44.5709C86.1877 43.6646 86.4649 42.7123 86.6195 41.7366C87.0548 38.9236 86.4641 36.0478 84.9553 33.6342C83.4464 31.2205 81.1199 29.4298 78.4005 28.589Z" fill="white"/>
<path d="M83.5762 61.3954C84.5749 61.2338 85.4685 60.682 86.0604 59.8616C86.6524 59.0411 86.8941 58.0191 86.7325 57.0204C86.5709 56.0217 86.0192 55.128 85.1987 54.5361C84.3782 53.9442 83.3562 53.7024 82.3575 53.864C82.3038 53.8695 82.2498 53.8571 82.2039 53.8288C82.1579 53.8005 82.1226 53.7578 82.1033 53.7074C81.9292 53.2791 81.7412 52.856 81.5358 52.4434C81.5097 52.3956 81.5012 52.3402 81.5117 52.2868C81.5222 52.2334 81.551 52.1853 81.5932 52.1509L81.6228 52.1231C82.4052 51.4815 82.9007 50.5554 83.0003 49.5485C83.0999 48.5416 82.7954 47.5364 82.1538 46.754C81.5123 45.9716 80.5862 45.4761 79.5793 45.3765C78.5724 45.277 77.5671 45.5815 76.7847 46.223C76.7432 46.2583 76.6904 46.2777 76.6359 46.2777C76.5814 46.2777 76.5286 46.2583 76.487 46.223C76.1232 45.9392 75.7489 45.6659 75.3624 45.41C75.3167 45.3809 75.282 45.3373 75.264 45.2861C75.246 45.235 75.2457 45.1793 75.2632 45.128C75.5671 44.1984 75.5023 43.1875 75.0822 42.3043C74.6622 41.4211 73.9189 40.733 73.006 40.3821C72.0931 40.0313 71.0803 40.0445 70.1768 40.419C69.2734 40.7936 68.5483 41.5008 68.1514 42.3947C68.1308 42.4448 68.0936 42.4862 68.0461 42.5122C67.9985 42.5382 67.9435 42.5471 67.8902 42.5374C67.4289 42.473 66.9658 42.4278 66.5079 42.3982C66.4532 42.3964 66.4007 42.3762 66.359 42.3408C66.3172 42.3054 66.2887 42.2569 66.2781 42.2032C66.1505 41.4627 65.808 40.7761 65.2931 40.2289C64.7782 39.6817 64.1138 39.298 63.3824 39.1256C62.6511 38.9532 61.8852 38.9997 61.1801 39.2594C60.4751 39.519 59.8619 39.9803 59.4171 40.5858C58.8362 41.3836 58.5929 42.3781 58.7398 43.3539C58.7381 43.3731 58.7381 43.3923 58.7398 43.4114C58.7474 43.4654 58.7361 43.5203 58.7079 43.5669C58.6797 43.6135 58.6362 43.649 58.5849 43.6673C58.1566 43.8414 57.7353 44.0294 57.3175 44.2349C57.2684 44.2599 57.2123 44.2674 57.1584 44.256C57.1045 44.2445 57.0562 44.215 57.0215 44.1722C56.7044 43.7838 56.3135 43.462 55.8714 43.2253C55.4293 42.9887 54.9448 42.8418 54.4457 42.7933C53.9466 42.7447 53.4429 42.7954 52.9635 42.9425C52.4841 43.0895 52.0385 43.3299 51.6524 43.6499C51.2661 43.9633 50.9454 44.3497 50.7086 44.7872C50.4718 45.2246 50.3235 45.7044 50.2722 46.1992C50.221 46.6939 50.2677 47.1939 50.4099 47.6706C50.552 48.1473 50.7867 48.5913 51.1006 48.9772C51.134 49.0196 51.1522 49.072 51.1522 49.1261C51.1522 49.1801 51.134 49.2325 51.1006 49.2749C50.8133 49.637 50.5417 50.0131 50.2823 50.403C50.2527 50.4482 50.2089 50.4821 50.1578 50.4994C50.1067 50.5168 50.0512 50.5166 50.0003 50.4988C49.0569 50.1468 48.0127 50.1819 47.0951 50.5964C46.1775 51.011 45.461 51.7713 45.1015 52.7118C44.7421 53.6524 44.7689 54.6968 45.1761 55.6177C45.5834 56.5385 46.338 57.2611 47.2757 57.628C47.326 57.6477 47.3679 57.6845 47.394 57.7319C47.42 57.7793 47.4287 57.8343 47.4185 57.8874C47.354 58.3487 47.307 58.8101 47.2774 59.2679C47.2765 59.323 47.2564 59.3759 47.2204 59.4176C47.1844 59.4593 47.135 59.487 47.0807 59.496C46.0818 59.6576 45.1879 60.2094 44.5958 61.0301C44.0037 61.8507 43.7619 62.8729 43.9235 63.8719C44.0851 64.8708 44.6369 65.7647 45.4576 66.3567C46.2782 66.9488 47.3004 67.1907 48.2994 67.0291C48.3528 67.0236 48.4067 67.0355 48.4528 67.0631C48.4989 67.0907 48.5349 67.1325 48.5553 67.1823C48.7294 67.6123 48.9157 68.0336 49.1211 68.4497C49.1461 68.4993 49.1535 68.556 49.1421 68.6104C49.1307 68.6648 49.1012 68.7137 49.0584 68.7491C48.3045 69.3971 47.8332 70.3137 47.7448 71.3039C47.6564 72.2941 47.9579 73.2797 48.5851 74.051C49.2124 74.8223 50.1158 75.3183 51.1032 75.4336C52.0906 75.5489 53.0841 75.2744 53.8721 74.6684C53.914 74.6337 53.9666 74.6147 54.021 74.6147C54.0753 74.6147 54.128 74.6337 54.1698 74.6684C54.5343 74.9527 54.9086 75.2243 55.2928 75.4831C55.3395 75.5108 55.375 75.5541 55.3928 75.6054C55.4107 75.6567 55.4097 75.7127 55.3902 75.7634C55.2133 76.2328 55.1309 76.7325 55.1477 77.2338C55.1646 77.7351 55.2803 78.2282 55.4884 78.6846C55.6965 79.141 55.9927 79.5518 56.3601 79.8933C56.7275 80.2348 57.1587 80.5004 57.6291 80.6746C58.5674 81.0325 59.6093 81.0032 60.526 80.5932C61.4427 80.1832 62.1591 79.426 62.5177 78.488C62.5385 78.438 62.5757 78.3965 62.6231 78.3703C62.6705 78.3441 62.7254 78.3346 62.7788 78.3435C63.2384 78.4097 63.7015 78.4567 64.1716 78.4863C64.2259 78.4881 64.2779 78.5085 64.3191 78.5439C64.3602 78.5794 64.388 78.6278 64.3979 78.6812C64.5387 79.5715 64.9932 80.3821 65.6793 80.9667C66.3654 81.5513 67.2379 81.8713 68.1392 81.8689C68.3573 81.8685 68.575 81.8511 68.7903 81.8167C69.7814 81.656 70.6682 81.1084 71.2557 80.2943C71.8433 79.4801 72.0837 78.466 71.924 77.4748C71.9168 77.4204 71.9284 77.3652 71.9569 77.3183C71.9854 77.2714 72.0291 77.2357 72.0807 77.2171C72.509 77.043 72.932 76.855 73.3446 76.6513C73.3937 76.6256 73.4501 76.6176 73.5043 76.6287C73.5586 76.6398 73.6073 76.6693 73.6423 76.7122C74.2917 77.4607 75.2068 77.9272 76.194 78.0131C77.1812 78.099 78.1631 77.7975 78.932 77.1724C79.7009 76.5474 80.1965 75.6477 80.314 74.6638C80.4315 73.6799 80.1617 72.6888 79.5616 71.9003C79.5271 71.858 79.5082 71.8051 79.5082 71.7505C79.5082 71.696 79.5271 71.6431 79.5616 71.6008C79.8453 71.2387 80.1169 70.8661 80.3781 70.4762C80.4069 70.4307 80.4504 70.3964 80.5014 70.379C80.5523 70.3616 80.6077 70.3621 80.6584 70.3804C81.6017 70.7324 82.6459 70.6973 83.5635 70.2828C84.4811 69.8682 85.1977 69.1079 85.5571 68.1674C85.9165 67.2268 85.8897 66.1824 85.4825 65.2615C85.0752 64.3407 84.3206 63.6181 83.3829 63.2512C83.3326 63.2315 83.2908 63.1947 83.2647 63.1473C83.2386 63.0999 83.2299 63.0449 83.2402 62.9918C83.3028 62.5305 83.3499 62.0726 83.3812 61.6095C83.3854 61.5573 83.4068 61.5079 83.4421 61.4692C83.4774 61.4304 83.5246 61.4045 83.5762 61.3954ZM82.4811 65.6328C82.799 65.7543 83.0557 65.997 83.1946 66.3077C83.3335 66.6183 83.3433 66.9715 83.2219 67.2894C83.1005 67.6073 82.8577 67.8639 82.5471 68.0028C82.2364 68.1417 81.8833 68.1516 81.5654 68.0301C80.98 67.8031 80.3346 67.7829 79.7362 67.9729C79.1378 68.1629 78.6223 68.5516 78.275 69.0747C78.0522 69.409 77.8171 69.7293 77.5786 70.0409C77.1852 70.5332 76.9724 71.1455 76.9759 71.7757C76.9794 72.4058 77.1989 73.0158 77.5978 73.5037C77.7028 73.6359 77.7804 73.7877 77.826 73.9503C77.8715 74.1129 77.8841 74.283 77.8631 74.4505C77.842 74.618 77.7876 74.7797 77.7032 74.9259C77.6188 75.0721 77.506 75.2 77.3714 75.3021C77.2435 75.4069 77.096 75.4854 76.9375 75.5328C76.779 75.5803 76.6127 75.5958 76.4481 75.5784C76.2836 75.5611 76.1241 75.5113 75.979 75.4319C75.8339 75.3525 75.7059 75.245 75.6026 75.1158C75.2063 74.6276 74.6552 74.2892 74.0404 74.1566C73.4257 74.0239 72.7842 74.105 72.2217 74.3863C71.8735 74.5604 71.501 74.7241 71.1319 74.8721C70.5465 75.1046 70.0581 75.5302 69.7475 76.0782C69.4369 76.6262 69.3228 77.2639 69.424 77.8856C69.4485 78.0526 69.4394 78.2229 69.3973 78.3863C69.3552 78.5498 69.2809 78.7032 69.1788 78.8376C69.0766 78.972 68.9487 79.0847 68.8025 79.169C68.6563 79.2534 68.4947 79.3077 68.3272 79.3289C68.1645 79.3564 67.998 79.351 67.8374 79.313C67.6768 79.275 67.5255 79.2052 67.3923 79.1078C67.2582 79.011 67.1447 78.8885 67.0583 78.7474C66.9719 78.6063 66.9144 78.4495 66.8892 78.286C66.7887 77.6656 66.4794 77.098 66.0124 76.6773C65.5455 76.2566 64.9488 76.0079 64.3213 75.9723C63.9267 75.9491 63.5315 75.9085 63.1357 75.8505C63.003 75.8327 62.8692 75.8234 62.7353 75.8226C62.1752 75.8208 61.6278 75.9898 61.1662 76.307C60.7046 76.6243 60.3507 77.0748 60.1517 77.5984C60.0931 77.7522 60.0046 77.893 59.8914 78.0125C59.7782 78.132 59.6424 78.2279 59.4919 78.2948C59.3318 78.3634 59.1595 78.3989 58.9853 78.3989C58.8111 78.3989 58.6388 78.3634 58.4787 78.2948C58.3244 78.2369 58.1833 78.1487 58.0637 78.0354C57.9441 77.922 57.8484 77.7859 57.7823 77.6349C57.7152 77.4849 57.6784 77.3231 57.6739 77.1588C57.6694 76.9945 57.6974 76.8309 57.7562 76.6774C57.9823 76.0902 58.0007 75.4433 57.8085 74.8442C57.6163 74.245 57.2249 73.7296 56.6994 73.3835C56.3669 73.1624 56.0448 72.9274 55.7367 72.6872C55.2439 72.295 54.632 72.0829 54.0023 72.0861C53.3725 72.0892 52.7627 72.3075 52.274 72.7046C52.1417 72.8099 51.9897 72.8877 51.827 72.9334C51.6642 72.9791 51.4939 72.9918 51.3262 72.9707C51.1584 72.9496 50.9966 72.8952 50.8502 72.8106C50.7038 72.7261 50.5759 72.613 50.4738 72.4782C50.3697 72.35 50.292 72.2025 50.2451 72.0442C50.1983 71.8859 50.1831 71.7198 50.2006 71.5556C50.2181 71.3914 50.2678 71.2323 50.347 71.0874C50.4261 70.9425 50.5331 70.8146 50.6618 70.7112C51.1499 70.3151 51.4882 69.7643 51.6208 69.1499C51.7535 68.5355 51.6725 67.8942 51.3913 67.332C51.2172 66.9838 51.0431 66.6113 50.9038 66.2422C50.6743 65.6548 50.2497 65.1643 49.7012 64.853C49.1528 64.5417 48.514 64.4286 47.892 64.5326C47.7294 64.5588 47.5633 64.5526 47.4031 64.5144C47.243 64.4761 47.092 64.4066 46.9588 64.3097C46.819 64.2067 46.7015 64.0765 46.6133 63.9269C46.525 63.7773 46.4679 63.6114 46.4453 63.4392C46.4188 63.2767 46.4249 63.1105 46.4632 62.9503C46.5014 62.7902 46.5711 62.6392 46.6681 62.5061C46.864 62.2361 47.1588 62.0545 47.4881 62.0012C48.1106 61.9039 48.6809 61.596 49.1038 61.129C49.5268 60.662 49.7768 60.0641 49.8123 59.4351C49.8366 59.0399 49.8784 58.6447 49.9341 58.2477C50.0269 57.6272 49.9049 56.9935 49.5883 56.4517C49.2717 55.91 48.7794 55.4927 48.1932 55.269C48.0368 55.2058 47.8946 55.1122 47.7748 54.9936C47.655 54.875 47.5599 54.7338 47.4951 54.5781C47.4303 54.4224 47.3971 54.2555 47.3974 54.0868C47.3977 53.9182 47.4315 53.7514 47.4968 53.5959C47.5551 53.4415 47.6434 53.3002 47.7566 53.1801C47.8698 53.06 48.0056 52.9634 48.1563 52.8961C48.307 52.8288 48.4695 52.792 48.6345 52.7878C48.7995 52.7836 48.9637 52.8121 49.1176 52.8717C49.7042 53.0958 50.3497 53.1132 50.9476 52.9211C51.5455 52.729 52.06 52.3388 52.4063 51.8149C52.6291 51.483 52.8612 51.1609 53.1026 50.8487C53.4959 50.356 53.7085 49.7435 53.705 49.1131C53.7016 48.4827 53.4822 47.8725 53.0835 47.3842C52.9794 47.2567 52.9017 47.1098 52.8548 46.952C52.8078 46.7942 52.7927 46.6287 52.8102 46.465C52.8294 46.292 52.8836 46.1247 52.9695 45.9732C53.0554 45.8218 53.1712 45.6894 53.3098 45.5841C53.4384 45.4802 53.5862 45.4027 53.7448 45.356C53.9034 45.3094 54.0697 45.2946 54.234 45.3124C54.3984 45.3301 54.5576 45.3802 54.7025 45.4597C54.8475 45.5392 54.9753 45.6466 55.0786 45.7756C55.474 46.2641 56.0245 46.6027 56.6388 46.7354C57.2531 46.868 57.8943 46.7868 58.4561 46.5051C58.8147 46.3298 59.1786 46.1667 59.5476 46.0158C60.1241 45.7891 60.6073 45.3748 60.9193 44.8397C61.2314 44.3046 61.3541 43.68 61.2677 43.0667L61.259 43.0058C61.2321 42.8429 61.238 42.6764 61.2762 42.5159C61.3145 42.3553 61.3844 42.2041 61.4818 42.0709C61.5845 41.9309 61.7147 41.8133 61.8644 41.7253C62.014 41.6373 62.18 41.5807 62.3523 41.559C62.6817 41.5069 63.0183 41.5876 63.2883 41.7834C63.5582 41.9793 63.7394 42.2743 63.7921 42.6036C63.8899 43.2256 64.1979 43.7952 64.6649 44.2175C65.1319 44.6399 65.7296 44.8893 66.3582 44.9243C66.7534 44.9504 67.1503 44.9904 67.5421 45.0479C68.1633 45.1388 68.7971 45.0161 69.3395 44.6998C69.882 44.3835 70.3009 43.8924 70.5278 43.3069C70.5867 43.153 70.6755 43.0122 70.789 42.8927C70.9025 42.7732 71.0386 42.6773 71.1893 42.6106C71.3489 42.5423 71.5207 42.5071 71.6942 42.5071C71.8678 42.5071 72.0395 42.5423 72.1991 42.6106C72.3536 42.6692 72.495 42.7578 72.6152 42.8714C72.7353 42.9849 72.8318 43.1211 72.8992 43.272C72.9665 43.423 73.0033 43.5858 73.0074 43.751C73.0116 43.9163 72.983 44.0807 72.9233 44.2349C72.699 44.8219 72.6816 45.4679 72.874 46.0662C73.0665 46.6644 73.4573 47.1791 73.9818 47.5253C74.3143 47.7481 74.6347 47.9796 74.9463 48.2216C75.4391 48.6139 76.0512 48.8258 76.6811 48.8223C77.3109 48.8189 77.9206 48.6001 78.4091 48.2025C78.5327 48.0953 78.6769 48.0144 78.8329 47.9647C78.9888 47.9151 79.1532 47.8976 79.3161 47.9135C79.4889 47.9333 79.6559 47.9879 79.807 48.0741C79.9582 48.1603 80.0902 48.2762 80.1953 48.4149C80.4048 48.6735 80.5031 49.0047 80.4685 49.3357C80.4339 49.6668 80.2693 49.9705 80.0107 50.1802L79.9794 50.2063C79.501 50.6047 79.1718 51.1535 79.0453 51.763C78.9189 52.3726 79.0026 53.007 79.283 53.5629C79.4583 53.9192 79.6202 54.2824 79.7687 54.6527C80.0009 55.2378 80.4258 55.7261 80.9731 56.0369C81.5204 56.3478 82.1574 56.4626 82.7788 56.3623C82.9459 56.3375 83.1163 56.3464 83.28 56.3882C83.4437 56.4301 83.5974 56.5042 83.7321 56.6061C83.8668 56.7081 83.9798 56.8359 84.0645 56.982C84.1493 57.1282 84.204 57.2898 84.2256 57.4574C84.2516 57.6205 84.2453 57.7872 84.2069 57.9478C84.1684 58.1085 84.0987 58.2601 84.0017 58.3938C83.9047 58.5275 83.7823 58.6408 83.6415 58.7271C83.5006 58.8135 83.3442 58.8713 83.181 58.8971C82.56 58.9957 81.9913 59.3035 81.5692 59.7696C81.1471 60.2357 80.897 60.8321 80.8603 61.4598C80.8359 61.8567 80.7959 62.2519 80.7384 62.6489C80.6461 63.2703 80.7684 63.9046 81.0853 64.4472C81.4021 64.9897 81.8945 65.4079 82.4811 65.6328Z" fill="white"/>
<path d="M69.5287 49.4705C68.0835 48.9042 66.5406 48.6297 64.9889 48.6628C63.4372 48.6959 61.9073 49.0359 60.4877 49.6633C59.068 50.2906 57.7866 51.1928 56.7174 52.3179C55.6482 53.4429 54.8124 54.7686 54.2581 56.2183C53.7039 57.6681 53.4421 59.2132 53.4881 60.7646C53.534 62.316 53.8866 63.843 54.5257 65.2574C55.1647 66.6718 56.0775 67.9457 57.2114 69.0056C58.3453 70.0654 59.6778 70.8903 61.1321 71.4325C62.574 71.9838 64.1104 72.2458 65.6536 72.2033C67.1967 72.1609 68.7164 71.8149 70.1259 71.1852C71.5353 70.5554 72.8069 69.6542 73.8681 68.533C74.9293 67.4118 75.7592 66.0926 76.3105 64.6507C76.8618 63.2087 77.1238 61.6723 77.0813 60.1292C77.0389 58.586 76.6929 57.0663 76.0631 55.6569C75.4334 54.2474 74.5322 52.9758 73.411 51.9147C72.2898 50.8535 70.9706 50.0235 69.5287 49.4722V49.4705ZM73.9489 63.7462C73.0747 66.0313 71.3288 67.8755 69.0951 68.8736C66.8614 69.8716 64.3227 69.9416 62.0374 69.0683C60.3325 68.4168 58.8592 67.2744 57.8037 65.7855C56.7482 64.2966 56.1579 62.5281 56.1076 60.7037C56.0572 58.8793 56.5491 57.081 57.5208 55.5361C58.4926 53.9913 59.9007 52.7693 61.5671 52.0248C63.2334 51.2803 65.0831 51.0467 66.8822 51.3535C68.6813 51.6603 70.349 52.4938 71.6744 53.7484C72.9998 55.0031 73.9233 56.6227 74.3282 58.4023C74.7331 60.1819 74.6011 62.0417 73.9489 63.7462Z" fill="white"/>
<path d="M86.6824 6.91254C86.5863 6.68166 86.4242 6.48429 86.2164 6.34522C86.0085 6.20615 85.7642 6.13157 85.5142 6.13086H76.8425C76.5068 6.13086 76.1849 6.26421 75.9476 6.50157C75.7102 6.73892 75.5768 7.06085 75.5768 7.39653C75.5768 7.7322 75.7102 8.05413 75.9476 8.29149C76.1849 8.52885 76.5068 8.6622 76.8425 8.6622H82.4571L60.0145 31.1047H38.6165C38.4504 31.1046 38.2859 31.1374 38.1326 31.2014C37.9793 31.2653 37.8402 31.3591 37.7234 31.4773L30.1869 39.0121H16.6528C16.4825 39.0058 16.3127 39.0339 16.1535 39.0947C15.9943 39.1555 15.8491 39.2478 15.7264 39.366C15.6037 39.4842 15.5061 39.626 15.4394 39.7828C15.3727 39.9396 15.3384 40.1083 15.3384 40.2787C15.3384 40.4491 15.3727 40.6177 15.4394 40.7745C15.5061 40.9313 15.6037 41.0731 15.7264 41.1913C15.8491 41.3095 15.9943 41.4018 16.1535 41.4626C16.3127 41.5234 16.4825 41.5515 16.6528 41.5452H30.7109C30.8772 41.545 31.0419 41.5121 31.1955 41.4481C31.349 41.3842 31.4884 41.2906 31.6057 41.1726L39.1406 33.6378H60.5385C60.7051 33.6377 60.8701 33.6047 61.0239 33.5408C61.1778 33.4769 61.3175 33.3832 61.4351 33.2653L84.2415 10.4589V16.0647C84.2352 16.2347 84.2633 16.4043 84.324 16.5633C84.3847 16.7222 84.4769 16.8673 84.5949 16.9899C84.713 17.1124 84.8546 17.2098 85.0112 17.2764C85.1678 17.343 85.3362 17.3773 85.5063 17.3773C85.6765 17.3773 85.8449 17.343 86.0015 17.2764C86.1581 17.2098 86.2997 17.1124 86.4177 16.9899C86.5358 16.8673 86.628 16.7222 86.6887 16.5633C86.7494 16.4043 86.7774 16.2347 86.7711 16.0647V7.39653C86.7727 7.23101 86.7426 7.06673 86.6824 6.91254Z" fill="white"/>
</svg>
