<svg width="90" height="87" viewBox="0 0 90 87" fill="none" xmlns="http://www.w3.org/2000/svg">
<mask id="path-1-inside-1_286_3004" fill="white">
<path d="M81.4839 3H26.129C24.7414 3 23.6129 4.12845 23.6129 5.51613V8.03226C23.6129 9.41994 24.7414 10.5484 26.129 10.5484V21.871H9.77419C7.6936 21.871 6 23.5646 6 25.6452C6 27.7258 7.6936 29.4194 9.77419 29.4194H26.129V33.2034C26.0664 33.2034 26.0056 33.1948 25.9429 33.1948C15.4478 33.2906 6.51232 41.887 6.02273 52.3588C5.7334 58.5674 8.27717 64.424 12.8162 68.4194H9.77419C7.6936 68.4194 6 70.113 6 72.1936C6 74.2742 7.6936 75.9678 9.77419 75.9678H17.3226C18.0155 75.9678 18.5806 76.5317 18.5806 77.2258C18.5806 79.3064 20.2742 81 22.3548 81H39.9677V78.4839H22.3548C21.6619 78.4839 21.0968 77.92 21.0968 77.2258C21.0968 75.1452 19.4032 73.4516 17.3226 73.4516H9.77419C9.08128 73.4516 8.51613 72.8877 8.51613 72.1936C8.51613 71.4994 9.08128 70.9355 9.77419 70.9355H21.0968C23.1774 70.9355 24.871 69.2419 24.871 67.1613V64.6452C24.871 63.951 25.4361 63.3871 26.129 63.3871C26.822 63.3871 27.3871 63.951 27.3871 64.6452V72.1936C27.3871 74.2742 29.0807 75.9678 31.1613 75.9678H55.0645C55.7574 75.9678 56.3226 76.5317 56.3226 77.2258C56.3226 77.92 55.7574 78.4839 55.0645 78.4839H39.9677V81H55.0645C57.1451 81 58.8387 79.3064 58.8387 77.2258C58.8387 75.1452 57.1451 73.4516 55.0645 73.4516H31.1613C30.7786 73.4516 30.4481 73.2716 30.2165 73.0013C32.7726 72.4694 35.2359 71.4613 37.4012 69.9907C38.0653 69.5392 38.6378 69.0054 39.1299 68.4194H43.4201L45.6843 60.871H61.9286L64.1929 68.4194H74.3686L66.8202 43.2581H81.4839V10.5484C82.8716 10.5484 84 9.41994 84 8.03226V5.51613C84 4.12845 82.8716 3 81.4839 3ZM8.51613 25.6452C8.51613 24.951 9.08128 24.3871 9.77419 24.3871H43.9207C43.815 24.7919 43.7419 25.2084 43.7419 25.6452C43.7419 26.0819 43.815 26.4984 43.9207 26.9032H9.77419C9.08128 26.9032 8.51613 26.3393 8.51613 25.6452ZM35.9872 67.9101C34.1504 69.1577 32.0674 70.027 29.9032 70.5043V64.6452C29.9032 62.5646 28.2096 60.871 26.129 60.871C24.0484 60.871 22.3548 62.5646 22.3548 64.6452V67.1613C22.3548 67.8554 21.7897 68.4194 21.0968 68.4194H17.0683C11.4979 65.0715 8.23171 58.9962 8.53517 52.4773C8.96272 43.3158 16.7814 35.7938 25.9656 35.7109C26.0209 35.7109 26.0762 35.7097 26.1315 35.7097C30.7651 35.7097 35.129 37.4948 38.4394 40.7456C40.579 42.8465 40.5501 46.3037 38.3724 48.7873C36.9676 50.39 36.1936 52.4485 36.1936 54.5807C36.1936 56.2515 36.6641 57.8769 37.5548 59.2806C39.4345 62.2458 38.7459 66.0341 35.9872 67.9101ZM41.5477 65.9032H40.5882C41.5151 63.3859 41.2713 60.4434 39.6809 57.9347C39.0457 56.9334 38.7097 55.7736 38.7097 54.5807C38.7097 53.0584 39.2619 51.5891 40.2644 50.4453C42.0889 48.3659 42.7935 45.7036 42.4009 43.2581H48.3411L41.5477 65.9032ZM56.6445 43.2581L59.6637 53.3226H47.9492L50.9684 43.2581H56.6445ZM46.4393 58.3548L47.1942 55.8387H60.4187L61.1736 58.3548H46.4393ZM70.9863 65.9032H66.0652L59.2718 43.2581H64.1929L70.9863 65.9032ZM78.9678 40.7419H41.5502C41.1969 40.0926 40.7504 39.4876 40.203 38.9494C37.029 35.8332 32.9691 33.9436 28.6452 33.3858V29.4194H45.4804C46.365 30.1934 47.5088 30.6774 48.7742 30.6774H49.1415C49.918 30.6774 50.6963 30.4937 51.3923 30.1467L53.6216 29.0317C54.1486 29.2394 54.8305 29.5336 54.9816 29.7302C55.1487 30.0871 54.9214 31.4563 54.785 32.2727C54.4644 34.2053 54.0995 36.3952 55.6899 37.316C57.2459 38.216 58.8553 36.8959 60.4113 35.6206C61.0379 35.1083 62.2013 34.1537 62.6129 34.1383C63.0257 34.1537 64.1904 35.1083 64.817 35.6206C66.0173 36.6029 67.2477 37.6121 68.4603 37.6121C68.8215 37.6121 69.1815 37.5224 69.5372 37.316C71.1288 36.3965 70.7651 34.2053 70.4433 32.2727C70.3075 31.4563 70.0796 30.0889 70.2356 29.748C70.4648 29.4458 71.7099 28.9851 72.4551 28.7099C74.3268 28.0163 76.4516 27.2288 76.4516 25.3331C76.4516 23.4374 74.3268 22.6499 72.452 21.9551C71.7087 21.6799 70.4617 21.2192 70.2455 20.9348C70.0784 20.5779 70.3063 19.2086 70.442 18.3922C70.7627 16.4603 71.1276 14.2698 69.5372 13.3489C67.9824 12.4508 66.373 13.7691 64.8158 15.045C64.1892 15.5567 63.0257 16.5119 62.6141 16.5267C62.2013 16.5119 61.0366 15.5567 60.4101 15.045C58.8541 13.7679 57.2434 12.4508 55.6911 13.3489C54.0995 14.2685 54.4631 16.4603 54.785 18.3922C54.9214 19.2086 55.1487 20.5767 54.9926 20.9164C54.7776 21.2014 53.6646 21.6259 52.9133 21.9035L51.3923 21.1424C50.6963 20.7966 49.918 20.6129 49.1415 20.6129H48.7742C47.51 20.6129 46.3662 21.097 45.4804 21.871H28.6452V10.5484H78.9678V40.7419ZM57.2661 17.9801C57.1519 17.2914 56.9743 16.2207 57.0155 15.6709C57.4977 15.9105 58.2988 16.5684 58.8148 16.9911C60.1029 18.0464 61.3198 19.0428 62.6129 19.0428C63.906 19.0428 65.1229 18.0464 66.4098 16.9911C66.9258 16.5684 67.7269 15.9117 68.2091 15.6709C68.2515 16.2207 68.0727 17.2927 67.9585 17.9801C67.6906 19.5889 67.4375 21.1086 68.0629 22.1904C68.6692 23.2384 70.0821 23.7618 71.5779 24.3152C72.2431 24.5622 73.4133 24.9946 73.8372 25.3331C73.4133 25.6716 72.2431 26.1028 71.5779 26.351C70.0821 26.9045 68.6692 27.4278 68.0641 28.4758C67.4375 29.5563 67.6919 31.0761 67.9597 32.6868C68.0739 33.3748 68.2515 34.4455 68.2103 34.9953C67.7281 34.7563 66.9271 34.0984 66.4111 33.6752C65.1229 32.6198 63.906 31.6234 62.6129 31.6234C61.3198 31.6234 60.1029 32.6198 58.816 33.6752C58.3 34.0984 57.4989 34.7551 57.0167 34.9953C56.9743 34.4455 57.1531 33.3735 57.2674 32.6868C57.5352 31.0773 57.7883 29.5576 57.1629 28.4758C56.9768 28.1539 56.6948 27.8935 56.3766 27.6545L60.3935 25.6452L55.8496 23.3729C56.4129 23.0547 56.8785 22.6824 57.1629 22.1904C57.7883 21.1099 57.534 19.5901 57.2661 17.9801ZM54.7678 25.6452L50.2663 27.8959C49.9192 28.0691 49.5304 28.1613 49.1415 28.1613H48.7742C47.3865 28.1613 46.2581 27.0328 46.2581 25.6452C46.2581 24.2575 47.3865 23.129 48.7742 23.129H49.1415C49.5304 23.129 49.9192 23.2212 50.2663 23.3944L54.7678 25.6452ZM26.129 8.03226V5.51613H81.4839L81.4851 8.03226H26.129Z"/>
</mask>
<path d="M81.4839 3H26.129C24.7414 3 23.6129 4.12845 23.6129 5.51613V8.03226C23.6129 9.41994 24.7414 10.5484 26.129 10.5484V21.871H9.77419C7.6936 21.871 6 23.5646 6 25.6452C6 27.7258 7.6936 29.4194 9.77419 29.4194H26.129V33.2034C26.0664 33.2034 26.0056 33.1948 25.9429 33.1948C15.4478 33.2906 6.51232 41.887 6.02273 52.3588C5.7334 58.5674 8.27717 64.424 12.8162 68.4194H9.77419C7.6936 68.4194 6 70.113 6 72.1936C6 74.2742 7.6936 75.9678 9.77419 75.9678H17.3226C18.0155 75.9678 18.5806 76.5317 18.5806 77.2258C18.5806 79.3064 20.2742 81 22.3548 81H39.9677V78.4839H22.3548C21.6619 78.4839 21.0968 77.92 21.0968 77.2258C21.0968 75.1452 19.4032 73.4516 17.3226 73.4516H9.77419C9.08128 73.4516 8.51613 72.8877 8.51613 72.1936C8.51613 71.4994 9.08128 70.9355 9.77419 70.9355H21.0968C23.1774 70.9355 24.871 69.2419 24.871 67.1613V64.6452C24.871 63.951 25.4361 63.3871 26.129 63.3871C26.822 63.3871 27.3871 63.951 27.3871 64.6452V72.1936C27.3871 74.2742 29.0807 75.9678 31.1613 75.9678H55.0645C55.7574 75.9678 56.3226 76.5317 56.3226 77.2258C56.3226 77.92 55.7574 78.4839 55.0645 78.4839H39.9677V81H55.0645C57.1451 81 58.8387 79.3064 58.8387 77.2258C58.8387 75.1452 57.1451 73.4516 55.0645 73.4516H31.1613C30.7786 73.4516 30.4481 73.2716 30.2165 73.0013C32.7726 72.4694 35.2359 71.4613 37.4012 69.9907C38.0653 69.5392 38.6378 69.0054 39.1299 68.4194H43.4201L45.6843 60.871H61.9286L64.1929 68.4194H74.3686L66.8202 43.2581H81.4839V10.5484C82.8716 10.5484 84 9.41994 84 8.03226V5.51613C84 4.12845 82.8716 3 81.4839 3ZM8.51613 25.6452C8.51613 24.951 9.08128 24.3871 9.77419 24.3871H43.9207C43.815 24.7919 43.7419 25.2084 43.7419 25.6452C43.7419 26.0819 43.815 26.4984 43.9207 26.9032H9.77419C9.08128 26.9032 8.51613 26.3393 8.51613 25.6452ZM35.9872 67.9101C34.1504 69.1577 32.0674 70.027 29.9032 70.5043V64.6452C29.9032 62.5646 28.2096 60.871 26.129 60.871C24.0484 60.871 22.3548 62.5646 22.3548 64.6452V67.1613C22.3548 67.8554 21.7897 68.4194 21.0968 68.4194H17.0683C11.4979 65.0715 8.23171 58.9962 8.53517 52.4773C8.96272 43.3158 16.7814 35.7938 25.9656 35.7109C26.0209 35.7109 26.0762 35.7097 26.1315 35.7097C30.7651 35.7097 35.129 37.4948 38.4394 40.7456C40.579 42.8465 40.5501 46.3037 38.3724 48.7873C36.9676 50.39 36.1936 52.4485 36.1936 54.5807C36.1936 56.2515 36.6641 57.8769 37.5548 59.2806C39.4345 62.2458 38.7459 66.0341 35.9872 67.9101ZM41.5477 65.9032H40.5882C41.5151 63.3859 41.2713 60.4434 39.6809 57.9347C39.0457 56.9334 38.7097 55.7736 38.7097 54.5807C38.7097 53.0584 39.2619 51.5891 40.2644 50.4453C42.0889 48.3659 42.7935 45.7036 42.4009 43.2581H48.3411L41.5477 65.9032ZM56.6445 43.2581L59.6637 53.3226H47.9492L50.9684 43.2581H56.6445ZM46.4393 58.3548L47.1942 55.8387H60.4187L61.1736 58.3548H46.4393ZM70.9863 65.9032H66.0652L59.2718 43.2581H64.1929L70.9863 65.9032ZM78.9678 40.7419H41.5502C41.1969 40.0926 40.7504 39.4876 40.203 38.9494C37.029 35.8332 32.9691 33.9436 28.6452 33.3858V29.4194H45.4804C46.365 30.1934 47.5088 30.6774 48.7742 30.6774H49.1415C49.918 30.6774 50.6963 30.4937 51.3923 30.1467L53.6216 29.0317C54.1486 29.2394 54.8305 29.5336 54.9816 29.7302C55.1487 30.0871 54.9214 31.4563 54.785 32.2727C54.4644 34.2053 54.0995 36.3952 55.6899 37.316C57.2459 38.216 58.8553 36.8959 60.4113 35.6206C61.0379 35.1083 62.2013 34.1537 62.6129 34.1383C63.0257 34.1537 64.1904 35.1083 64.817 35.6206C66.0173 36.6029 67.2477 37.6121 68.4603 37.6121C68.8215 37.6121 69.1815 37.5224 69.5372 37.316C71.1288 36.3965 70.7651 34.2053 70.4433 32.2727C70.3075 31.4563 70.0796 30.0889 70.2356 29.748C70.4648 29.4458 71.7099 28.9851 72.4551 28.7099C74.3268 28.0163 76.4516 27.2288 76.4516 25.3331C76.4516 23.4374 74.3268 22.6499 72.452 21.9551C71.7087 21.6799 70.4617 21.2192 70.2455 20.9348C70.0784 20.5779 70.3063 19.2086 70.442 18.3922C70.7627 16.4603 71.1276 14.2698 69.5372 13.3489C67.9824 12.4508 66.373 13.7691 64.8158 15.045C64.1892 15.5567 63.0257 16.5119 62.6141 16.5267C62.2013 16.5119 61.0366 15.5567 60.4101 15.045C58.8541 13.7679 57.2434 12.4508 55.6911 13.3489C54.0995 14.2685 54.4631 16.4603 54.785 18.3922C54.9214 19.2086 55.1487 20.5767 54.9926 20.9164C54.7776 21.2014 53.6646 21.6259 52.9133 21.9035L51.3923 21.1424C50.6963 20.7966 49.918 20.6129 49.1415 20.6129H48.7742C47.51 20.6129 46.3662 21.097 45.4804 21.871H28.6452V10.5484H78.9678V40.7419ZM57.2661 17.9801C57.1519 17.2914 56.9743 16.2207 57.0155 15.6709C57.4977 15.9105 58.2988 16.5684 58.8148 16.9911C60.1029 18.0464 61.3198 19.0428 62.6129 19.0428C63.906 19.0428 65.1229 18.0464 66.4098 16.9911C66.9258 16.5684 67.7269 15.9117 68.2091 15.6709C68.2515 16.2207 68.0727 17.2927 67.9585 17.9801C67.6906 19.5889 67.4375 21.1086 68.0629 22.1904C68.6692 23.2384 70.0821 23.7618 71.5779 24.3152C72.2431 24.5622 73.4133 24.9946 73.8372 25.3331C73.4133 25.6716 72.2431 26.1028 71.5779 26.351C70.0821 26.9045 68.6692 27.4278 68.0641 28.4758C67.4375 29.5563 67.6919 31.0761 67.9597 32.6868C68.0739 33.3748 68.2515 34.4455 68.2103 34.9953C67.7281 34.7563 66.9271 34.0984 66.4111 33.6752C65.1229 32.6198 63.906 31.6234 62.6129 31.6234C61.3198 31.6234 60.1029 32.6198 58.816 33.6752C58.3 34.0984 57.4989 34.7551 57.0167 34.9953C56.9743 34.4455 57.1531 33.3735 57.2674 32.6868C57.5352 31.0773 57.7883 29.5576 57.1629 28.4758C56.9768 28.1539 56.6948 27.8935 56.3766 27.6545L60.3935 25.6452L55.8496 23.3729C56.4129 23.0547 56.8785 22.6824 57.1629 22.1904C57.7883 21.1099 57.534 19.5901 57.2661 17.9801ZM54.7678 25.6452L50.2663 27.8959C49.9192 28.0691 49.5304 28.1613 49.1415 28.1613H48.7742C47.3865 28.1613 46.2581 27.0328 46.2581 25.6452C46.2581 24.2575 47.3865 23.129 48.7742 23.129H49.1415C49.5304 23.129 49.9192 23.2212 50.2663 23.3944L54.7678 25.6452ZM26.129 8.03226V5.51613H81.4839L81.4851 8.03226H26.129Z" fill="white"/>
<path d="M39.9677 81H40.1177V78.4839H39.9677H39.8177V81H39.9677ZM26.129 10.5484H26.429V10.2484H26.129V10.5484ZM26.129 21.871V22.171H26.429V21.871H26.129ZM26.129 29.4194H26.429V29.1194H26.129V29.4194ZM26.129 33.2034V33.5034H26.429V33.2034H26.129ZM25.9429 33.1948V32.8948L25.9402 32.8948L25.9429 33.1948ZM6.02273 52.3588L5.72306 52.3448L5.72305 52.3448L6.02273 52.3588ZM12.8162 68.4194V68.7194H13.611L13.0144 68.1942L12.8162 68.4194ZM30.2165 73.0013L30.1554 72.7076L29.6584 72.8111L29.9887 73.1965L30.2165 73.0013ZM37.4012 69.9907L37.5698 70.2389L37.5699 70.2388L37.4012 69.9907ZM39.1299 68.4194V68.1194H38.99L38.9001 68.2264L39.1299 68.4194ZM43.4201 68.4194V68.7194H43.6433L43.7074 68.5056L43.4201 68.4194ZM45.6843 60.871V60.571H45.4611L45.397 60.7848L45.6843 60.871ZM61.9286 60.871L62.2159 60.7848L62.1518 60.571H61.9286V60.871ZM64.1929 68.4194L63.9055 68.5056L63.9696 68.7194H64.1929V68.4194ZM74.3686 68.4194V68.7194H74.7718L74.6559 68.3332L74.3686 68.4194ZM66.8202 43.2581V42.9581H66.417L66.5328 43.3443L66.8202 43.2581ZM81.4839 43.2581V43.5581H81.7839V43.2581H81.4839ZM81.4839 10.5484V10.2484H81.1839V10.5484H81.4839ZM43.9207 24.3871L44.211 24.4629L44.309 24.0871H43.9207V24.3871ZM43.9207 26.9032V27.2032H44.309L44.211 26.8275L43.9207 26.9032ZM35.9872 67.9101L36.1557 68.1583L36.1558 68.1582L35.9872 67.9101ZM29.9032 70.5043H29.6032V70.8776L29.9678 70.7972L29.9032 70.5043ZM17.0683 68.4194L16.9137 68.6765L16.9851 68.7194H17.0683V68.4194ZM8.53517 52.4773L8.2355 52.4633L8.2355 52.4634L8.53517 52.4773ZM25.9656 35.7109V35.4109L25.9629 35.4109L25.9656 35.7109ZM38.4394 40.7456L38.2292 40.9597L38.2292 40.9597L38.4394 40.7456ZM38.3724 48.7873L38.1469 48.5895L38.1468 48.5895L38.3724 48.7873ZM37.5548 59.2806L37.8082 59.12L37.8081 59.1198L37.5548 59.2806ZM41.5477 65.9032V66.2032H41.7709L41.835 65.9894L41.5477 65.9032ZM40.5882 65.9032L40.3067 65.7996L40.158 66.2032H40.5882V65.9032ZM39.6809 57.9347L39.9342 57.774L39.9342 57.774L39.6809 57.9347ZM40.2644 50.4453L40.0389 50.2474L40.0388 50.2475L40.2644 50.4453ZM42.4009 43.2581V42.9581H42.049L42.1047 43.3056L42.4009 43.2581ZM48.3411 43.2581L48.6285 43.3443L48.7443 42.9581H48.3411V43.2581ZM56.6445 43.2581L56.9318 43.1719L56.8677 42.9581H56.6445V43.2581ZM59.6637 53.3226V53.6226H60.0669L59.9511 53.2364L59.6637 53.3226ZM47.9492 53.3226L47.6619 53.2364L47.546 53.6226H47.9492V53.3226ZM50.9684 43.2581V42.9581H50.7452L50.6811 43.1719L50.9684 43.2581ZM46.4393 58.3548L46.1519 58.2686L46.0361 58.6548H46.4393V58.3548ZM47.1942 55.8387V55.5387H46.971L46.9069 55.7525L47.1942 55.8387ZM60.4187 55.8387L60.706 55.7525L60.6419 55.5387H60.4187V55.8387ZM61.1736 58.3548V58.6548H61.5769L61.461 58.2686L61.1736 58.3548ZM70.9863 65.9032V66.2032H71.3895L71.2736 65.817L70.9863 65.9032ZM66.0652 65.9032L65.7779 65.9894L65.842 66.2032H66.0652V65.9032ZM59.2718 43.2581V42.9581H58.8686L58.9844 43.3443L59.2718 43.2581ZM64.1929 43.2581L64.4802 43.1719L64.4161 42.9581H64.1929V43.2581ZM78.9678 40.7419V41.0419H79.2678V40.7419H78.9678ZM41.5502 40.7419L41.2866 40.8853L41.3718 41.0419H41.5502V40.7419ZM40.203 38.9494L40.4133 38.7355L40.4132 38.7354L40.203 38.9494ZM28.6452 33.3858H28.3452V33.6496L28.6068 33.6834L28.6452 33.3858ZM28.6452 29.4194V29.1194H28.3452V29.4194H28.6452ZM45.4804 29.4194L45.6779 29.1936L45.5931 29.1194H45.4804V29.4194ZM51.3923 30.1467L51.5262 30.4151L51.5265 30.415L51.3923 30.1467ZM53.6216 29.0317L53.7315 28.7526L53.607 28.7036L53.4874 28.7634L53.6216 29.0317ZM54.9816 29.7302L55.2533 29.603L55.2394 29.5733L55.2194 29.5473L54.9816 29.7302ZM54.785 32.2727L54.4891 32.2233L54.4891 32.2236L54.785 32.2727ZM55.6899 37.316L55.5396 37.5757L55.5397 37.5757L55.6899 37.316ZM60.4113 35.6206L60.2214 35.3884L60.2211 35.3886L60.4113 35.6206ZM62.6129 34.1383L62.6241 33.8385L62.6129 33.8381L62.6017 33.8385L62.6129 34.1383ZM64.817 35.6206L65.007 35.3884L65.0069 35.3884L64.817 35.6206ZM69.5372 37.316L69.3871 37.0563L69.3866 37.0566L69.5372 37.316ZM70.4433 32.2727L70.1473 32.3219L70.1473 32.322L70.4433 32.2727ZM70.2356 29.748L69.9966 29.5668L69.9766 29.5931L69.9628 29.6232L70.2356 29.748ZM72.4551 28.7099L72.559 28.9913L72.5593 28.9912L72.4551 28.7099ZM72.452 21.9551L72.5562 21.6738L72.5561 21.6738L72.452 21.9551ZM70.2455 20.9348L69.9738 21.062L69.9873 21.0909L70.0066 21.1164L70.2455 20.9348ZM70.442 18.3922L70.738 18.4415L70.738 18.4414L70.442 18.3922ZM69.5372 13.3489L69.6875 13.0893L69.6872 13.0892L69.5372 13.3489ZM64.8158 15.045L65.0055 15.2773L65.0059 15.277L64.8158 15.045ZM62.6141 16.5267L62.6034 16.8265L62.6142 16.8268L62.6249 16.8265L62.6141 16.5267ZM60.4101 15.045L60.2197 15.2769L60.2203 15.2773L60.4101 15.045ZM55.6911 13.3489L55.8412 13.6087L55.8413 13.6086L55.6911 13.3489ZM54.785 18.3922L54.4891 18.4416L54.4891 18.4417L54.785 18.3922ZM54.9926 20.9164L55.2322 21.097L55.2517 21.0711L55.2653 21.0416L54.9926 20.9164ZM52.9133 21.9035L52.779 22.1718L52.8953 22.23L53.0173 22.1849L52.9133 21.9035ZM51.3923 21.1424L51.5266 20.8741L51.5258 20.8738L51.3923 21.1424ZM45.4804 21.871V22.171H45.593L45.6778 22.0969L45.4804 21.871ZM28.6452 21.871H28.3452V22.171H28.6452V21.871ZM28.6452 10.5484V10.2484H28.3452V10.5484H28.6452ZM78.9678 10.5484H79.2678V10.2484H78.9678V10.5484ZM57.2661 17.9801L56.9702 18.0292L56.9702 18.0293L57.2661 17.9801ZM57.0155 15.6709L57.149 15.4023L56.7496 15.2039L56.7163 15.6486L57.0155 15.6709ZM58.8148 16.9911L59.0049 16.759L59.0048 16.759L58.8148 16.9911ZM66.4098 16.9911L66.2197 16.759L66.2196 16.7591L66.4098 16.9911ZM68.2091 15.6709L68.5082 15.6479L68.4739 15.2034L68.0751 15.4026L68.2091 15.6709ZM67.9585 17.9801L68.2544 18.0293L68.2544 18.0293L67.9585 17.9801ZM68.0629 22.1904L67.8032 22.3405L67.8032 22.3406L68.0629 22.1904ZM71.5779 24.3152L71.6823 24.034L71.682 24.0339L71.5779 24.3152ZM73.8372 25.3331L74.0244 25.5675L74.318 25.3331L74.0244 25.0987L73.8372 25.3331ZM71.5779 26.351L71.682 26.6323L71.6827 26.6321L71.5779 26.351ZM68.0641 28.4758L68.3236 28.6263L68.3239 28.6258L68.0641 28.4758ZM67.9597 32.6868L68.2556 32.6376L68.2556 32.6376L67.9597 32.6868ZM68.2103 34.9953L68.0771 35.2641L68.4762 35.4618L68.5095 35.0177L68.2103 34.9953ZM66.4111 33.6752L66.6013 33.4432L66.6012 33.4431L66.4111 33.6752ZM58.816 33.6752L58.6258 33.4432L58.6257 33.4432L58.816 33.6752ZM57.0167 34.9953L56.7176 35.0183L56.7519 35.4623L57.1505 35.2638L57.0167 34.9953ZM57.2674 32.6868L56.9714 32.6375L56.9714 32.6375L57.2674 32.6868ZM57.1629 28.4758L57.4227 28.3257L57.4226 28.3256L57.1629 28.4758ZM56.3766 27.6545L56.2424 27.3862L55.8087 27.6032L56.1965 27.8944L56.3766 27.6545ZM60.3935 25.6452L60.5277 25.9135L61.0641 25.6451L60.5277 25.3768L60.3935 25.6452ZM55.8496 23.3729L55.702 23.1117L55.2111 23.389L55.7154 23.6412L55.8496 23.3729ZM57.1629 22.1904L56.9033 22.0401L56.9032 22.0403L57.1629 22.1904ZM54.7678 25.6452L54.902 25.9135L55.4386 25.6452L54.902 25.3768L54.7678 25.6452ZM50.2663 27.8959L50.4003 28.1643L50.4005 28.1642L50.2663 27.8959ZM50.2663 23.3944L50.4005 23.1261L50.4003 23.126L50.2663 23.3944ZM26.129 8.03226H25.829V8.33226H26.129V8.03226ZM26.129 5.51613V5.21613H25.829V5.51613H26.129ZM81.4839 5.51613L81.7839 5.51598L81.7837 5.21613H81.4839V5.51613ZM81.4851 8.03226V8.33226H81.7853L81.7851 8.03211L81.4851 8.03226ZM81.4839 3V2.7H26.129V3V3.3H81.4839V3ZM26.129 3V2.7C24.5757 2.7 23.3129 3.96276 23.3129 5.51613H23.6129H23.9129C23.9129 4.29413 24.907 3.3 26.129 3.3V3ZM23.6129 5.51613H23.3129V8.03226H23.6129H23.9129V5.51613H23.6129ZM23.6129 8.03226H23.3129C23.3129 9.58562 24.5757 10.8484 26.129 10.8484V10.5484V10.2484C24.907 10.2484 23.9129 9.25425 23.9129 8.03226H23.6129ZM26.129 10.5484H25.829V21.871H26.129H26.429V10.5484H26.129ZM26.129 21.871V21.571H9.77419V21.871V22.171H26.129V21.871ZM9.77419 21.871V21.571C7.52791 21.571 5.7 23.3989 5.7 25.6452H6H6.3C6.3 23.7302 7.85928 22.171 9.77419 22.171V21.871ZM6 25.6452H5.7C5.7 27.8914 7.52791 29.7194 9.77419 29.7194V29.4194V29.1194C7.85928 29.1194 6.3 27.5601 6.3 25.6452H6ZM9.77419 29.4194V29.7194H26.129V29.4194V29.1194H9.77419V29.4194ZM26.129 29.4194H25.829V33.2034H26.129H26.429V29.4194H26.129ZM26.129 33.2034V32.9034C26.1098 32.9034 26.0893 32.9021 26.0568 32.8998C26.0276 32.8978 25.9864 32.8948 25.9429 32.8948V33.1948V33.4948C25.9621 33.4948 25.9826 33.4961 26.0151 33.4984C26.0443 33.5004 26.0856 33.5034 26.129 33.5034V33.2034ZM25.9429 33.1948L25.9402 32.8948C15.2862 32.9921 6.22009 41.7137 5.72306 52.3448L6.02273 52.3588L6.3224 52.3728C6.80454 42.0603 15.6094 33.5891 25.9456 33.4948L25.9429 33.1948ZM6.02273 52.3588L5.72305 52.3448C5.42945 58.6451 8.01109 64.5895 12.6179 68.6445L12.8162 68.4194L13.0144 68.1942C8.54325 64.2586 6.03734 58.4897 6.3224 52.3727L6.02273 52.3588ZM12.8162 68.4194V68.1194H9.77419V68.4194V68.7194H12.8162V68.4194ZM9.77419 68.4194V68.1194C7.52791 68.1194 5.7 69.9473 5.7 72.1936H6H6.3C6.3 70.2786 7.85928 68.7194 9.77419 68.7194V68.4194ZM6 72.1936H5.7C5.7 74.4398 7.52791 76.2678 9.77419 76.2678V75.9678V75.6677C7.85928 75.6677 6.3 74.1085 6.3 72.1936H6ZM9.77419 75.9678V76.2678H17.3226V75.9678V75.6677H9.77419V75.9678ZM17.3226 75.9678V76.2678C17.85 76.2678 18.2806 76.6975 18.2806 77.2258H18.5806H18.8806C18.8806 76.3658 18.181 75.6677 17.3226 75.6677V75.9678ZM18.5806 77.2258H18.2806C18.2806 79.4721 20.1086 81.3 22.3548 81.3V81V80.7C20.4399 80.7 18.8806 79.1407 18.8806 77.2258H18.5806ZM22.3548 81V81.3H39.9677V81V80.7H22.3548V81ZM39.9677 78.4839V78.1839H22.3548V78.4839V78.7839H39.9677V78.4839ZM22.3548 78.4839V78.1839C21.8274 78.1839 21.3968 77.7541 21.3968 77.2258H21.0968H20.7968C20.7968 78.0858 21.4964 78.7839 22.3548 78.7839V78.4839ZM21.0968 77.2258H21.3968C21.3968 74.9795 19.5689 73.1516 17.3226 73.1516V73.4516V73.7516C19.2375 73.7516 20.7968 75.3109 20.7968 77.2258H21.0968ZM17.3226 73.4516V73.1516H9.77419V73.4516V73.7516H17.3226V73.4516ZM9.77419 73.4516V73.1516C9.24677 73.1516 8.81613 72.7218 8.81613 72.1936H8.51613H8.21613C8.21613 73.0536 8.91578 73.7516 9.77419 73.7516V73.4516ZM8.51613 72.1936H8.81613C8.81613 71.6653 9.24677 71.2355 9.77419 71.2355V70.9355V70.6355C8.91578 70.6355 8.21613 71.3335 8.21613 72.1936H8.51613ZM9.77419 70.9355V71.2355H21.0968V70.9355V70.6355H9.77419V70.9355ZM21.0968 70.9355V71.2355C23.3431 71.2355 25.171 69.4076 25.171 67.1613H24.871H24.571C24.571 69.0762 23.0117 70.6355 21.0968 70.6355V70.9355ZM24.871 67.1613H25.171V64.6452H24.871H24.571V67.1613H24.871ZM24.871 64.6452H25.171C25.171 64.1169 25.6016 63.6871 26.129 63.6871V63.3871V63.0871C25.2706 63.0871 24.571 63.7851 24.571 64.6452H24.871ZM26.129 63.3871V63.6871C26.6565 63.6871 27.0871 64.1169 27.0871 64.6452H27.3871H27.6871C27.6871 63.7851 26.9874 63.0871 26.129 63.0871V63.3871ZM27.3871 64.6452H27.0871V72.1936H27.3871H27.6871V64.6452H27.3871ZM27.3871 72.1936H27.0871C27.0871 74.4398 28.915 76.2678 31.1613 76.2678V75.9678V75.6677C29.2464 75.6677 27.6871 74.1085 27.6871 72.1936H27.3871ZM31.1613 75.9678V76.2678H55.0645V75.9678V75.6677H31.1613V75.9678ZM55.0645 75.9678V76.2678C55.5919 76.2678 56.0226 76.6975 56.0226 77.2258H56.3226H56.6226C56.6226 76.3658 55.9229 75.6677 55.0645 75.6677V75.9678ZM56.3226 77.2258H56.0226C56.0226 77.7541 55.5919 78.1839 55.0645 78.1839V78.4839V78.7839C55.9229 78.7839 56.6226 78.0858 56.6226 77.2258H56.3226ZM55.0645 78.4839V78.1839H39.9677V78.4839V78.7839H55.0645V78.4839ZM39.9677 81V81.3H55.0645V81V80.7H39.9677V81ZM55.0645 81V81.3C57.3108 81.3 59.1387 79.4721 59.1387 77.2258H58.8387H58.5387C58.5387 79.1407 56.9794 80.7 55.0645 80.7V81ZM58.8387 77.2258H59.1387C59.1387 74.9795 57.3108 73.1516 55.0645 73.1516V73.4516V73.7516C56.9794 73.7516 58.5387 75.3109 58.5387 77.2258H58.8387ZM55.0645 73.4516V73.1516H31.1613V73.4516V73.7516H55.0645V73.4516ZM31.1613 73.4516V73.1516C30.8781 73.1516 30.6271 73.0195 30.4443 72.8061L30.2165 73.0013L29.9887 73.1965C30.2691 73.5238 30.6791 73.7516 31.1613 73.7516V73.4516ZM30.2165 73.0013L30.2776 73.2951C32.8696 72.7556 35.3699 71.733 37.5698 70.2389L37.4012 69.9907L37.2327 69.7425C35.1019 71.1897 32.6755 72.1831 30.1554 72.7076L30.2165 73.0013ZM37.4012 69.9907L37.5699 70.2388C38.2588 69.7704 38.8515 69.2174 39.3596 68.6123L39.1299 68.4194L38.9001 68.2264C38.4241 68.7933 37.8718 69.308 37.2326 69.7426L37.4012 69.9907ZM39.1299 68.4194V68.7194H43.4201V68.4194V68.1194H39.1299V68.4194ZM43.4201 68.4194L43.7074 68.5056L45.9717 60.9572L45.6843 60.871L45.397 60.7848L43.1327 68.3332L43.4201 68.4194ZM45.6843 60.871V61.171H61.9286V60.871V60.571H45.6843V60.871ZM61.9286 60.871L61.6412 60.9572L63.9055 68.5056L64.1929 68.4194L64.4802 68.3332L62.2159 60.7848L61.9286 60.871ZM64.1929 68.4194V68.7194H74.3686V68.4194V68.1194H64.1929V68.4194ZM74.3686 68.4194L74.6559 68.3332L67.1075 43.1719L66.8202 43.2581L66.5328 43.3443L74.0812 68.5056L74.3686 68.4194ZM66.8202 43.2581V43.5581H81.4839V43.2581V42.9581H66.8202V43.2581ZM81.4839 43.2581H81.7839V10.5484H81.4839H81.1839V43.2581H81.4839ZM81.4839 10.5484V10.8484C83.0372 10.8484 84.3 9.58562 84.3 8.03226H84H83.7C83.7 9.25425 82.7059 10.2484 81.4839 10.2484V10.5484ZM84 8.03226H84.3V5.51613H84H83.7V8.03226H84ZM84 5.51613H84.3C84.3 3.96276 83.0372 2.7 81.4839 2.7V3V3.3C82.7059 3.3 83.7 4.29413 83.7 5.51613H84ZM8.51613 25.6452H8.81613C8.81613 25.1169 9.24677 24.6871 9.77419 24.6871V24.3871V24.0871C8.91578 24.0871 8.21613 24.7851 8.21613 25.6452H8.51613ZM9.77419 24.3871V24.6871H43.9207V24.3871V24.0871H9.77419V24.3871ZM43.9207 24.3871L43.6304 24.3113C43.5207 24.7317 43.4419 25.1749 43.4419 25.6452H43.7419H44.0419C44.0419 25.242 44.1094 24.8521 44.211 24.4629L43.9207 24.3871ZM43.7419 25.6452H43.4419C43.4419 26.1155 43.5207 26.5586 43.6304 26.979L43.9207 26.9032L44.211 26.8275C44.1094 26.4382 44.0419 26.0484 44.0419 25.6452H43.7419ZM43.9207 26.9032V26.6032H9.77419V26.9032V27.2032H43.9207V26.9032ZM9.77419 26.9032V26.6032C9.24677 26.6032 8.81613 26.1734 8.81613 25.6452H8.51613H8.21613C8.21613 26.5052 8.91578 27.2032 9.77419 27.2032V26.9032ZM35.9872 67.9101L35.8186 67.662C34.0153 68.8869 31.9679 69.7417 29.8386 70.2113L29.9032 70.5043L29.9678 70.7972C32.1668 70.3122 34.2856 69.4286 36.1557 68.1583L35.9872 67.9101ZM29.9032 70.5043H30.2032V64.6452H29.9032H29.6032V70.5043H29.9032ZM29.9032 64.6452H30.2032C30.2032 62.3989 28.3753 60.571 26.129 60.571V60.871V61.171C28.0439 61.171 29.6032 62.7303 29.6032 64.6452H29.9032ZM26.129 60.871V60.571C23.8827 60.571 22.0548 62.3989 22.0548 64.6452H22.3548H22.6548C22.6548 62.7303 24.2141 61.171 26.129 61.171V60.871ZM22.3548 64.6452H22.0548V67.1613H22.3548H22.6548V64.6452H22.3548ZM22.3548 67.1613H22.0548C22.0548 67.6896 21.6242 68.1194 21.0968 68.1194V68.4194V68.7194C21.9552 68.7194 22.6548 68.0213 22.6548 67.1613H22.3548ZM21.0968 68.4194V68.1194H17.0683V68.4194V68.7194H21.0968V68.4194ZM17.0683 68.4194L17.2228 68.1622C11.7468 64.8711 8.53653 58.8998 8.83485 52.4913L8.53517 52.4773L8.2355 52.4634C7.9269 59.0926 11.249 65.2719 16.9137 68.6765L17.0683 68.4194ZM8.53517 52.4773L8.83485 52.4913C9.25495 43.4891 16.943 36.0924 25.9683 36.0109L25.9656 35.7109L25.9629 35.4109C16.6198 35.4953 8.67048 43.1425 8.2355 52.4633L8.53517 52.4773ZM25.9656 35.7109V36.0109C25.9952 36.0109 26.0245 36.0106 26.0519 36.0103C26.0798 36.01 26.1058 36.0097 26.1315 36.0097V35.7097V35.4097C26.1019 35.4097 26.0726 35.41 26.0452 35.4103C26.0173 35.4106 25.9913 35.4109 25.9656 35.4109V35.7109ZM26.1315 35.7097V36.0097C30.6864 36.0097 34.9748 37.7639 38.2292 40.9597L38.4394 40.7456L38.6496 40.5316C35.2831 37.2257 30.8438 35.4097 26.1315 35.4097V35.7097ZM38.4394 40.7456L38.2292 40.9597C40.2377 42.9319 40.2366 46.2062 38.1469 48.5895L38.3724 48.7873L38.598 48.9851C40.8636 46.4012 40.9202 42.7611 38.6496 40.5316L38.4394 40.7456ZM38.3724 48.7873L38.1468 48.5895C36.694 50.247 35.8936 52.3758 35.8936 54.5807H36.1936H36.4935C36.4935 52.5211 37.2412 50.533 38.598 48.985L38.3724 48.7873ZM36.1936 54.5807H35.8936C35.8936 56.3081 36.3801 57.9893 37.3015 59.4413L37.5548 59.2806L37.8081 59.1198C36.9481 57.7645 36.4935 56.1949 36.4935 54.5807H36.1936ZM37.5548 59.2806L37.3014 59.4412C39.1019 62.2813 38.4322 65.8847 35.8185 67.662L35.9872 67.9101L36.1558 68.1582C39.0597 66.1835 39.7672 62.2102 37.8082 59.12L37.5548 59.2806ZM41.5477 65.9032V65.6032H40.5882V65.9032V66.2032H41.5477V65.9032ZM40.5882 65.9032L40.8697 66.0069C41.8288 63.4023 41.5749 60.3621 39.9342 57.774L39.6809 57.9347L39.4275 58.0953C40.9676 60.5248 41.2015 63.3695 40.3067 65.7996L40.5882 65.9032ZM39.6809 57.9347L39.9342 57.774C39.3297 56.821 39.0097 55.717 39.0097 54.5807H38.7097H38.4097C38.4097 55.8302 38.7617 57.0458 39.4275 58.0954L39.6809 57.9347ZM38.7097 54.5807H39.0097C39.0097 53.1311 39.5356 51.732 40.4901 50.643L40.2644 50.4453L40.0388 50.2475C38.9883 51.4461 38.4097 52.9858 38.4097 54.5807H38.7097ZM40.2644 50.4453L40.49 50.6431C42.3732 48.4967 43.1039 45.7444 42.6972 43.2105L42.4009 43.2581L42.1047 43.3056C42.4831 45.6627 41.8045 48.2351 40.0389 50.2474L40.2644 50.4453ZM42.4009 43.2581V43.5581H48.3411V43.2581V42.9581H42.4009V43.2581ZM48.3411 43.2581L48.0538 43.1719L41.2603 65.817L41.5477 65.9032L41.835 65.9894L48.6285 43.3443L48.3411 43.2581ZM56.6445 43.2581L56.3571 43.3443L59.3764 53.4088L59.6637 53.3226L59.9511 53.2364L56.9318 43.1719L56.6445 43.2581ZM59.6637 53.3226V53.0226H47.9492V53.3226V53.6226H59.6637V53.3226ZM47.9492 53.3226L48.2366 53.4088L51.2558 43.3443L50.9684 43.2581L50.6811 43.1719L47.6619 53.2364L47.9492 53.3226ZM50.9684 43.2581V43.5581H56.6445V43.2581V42.9581H50.9684V43.2581ZM46.4393 58.3548L46.7266 58.4411L47.4816 55.9249L47.1942 55.8387L46.9069 55.7525L46.1519 58.2686L46.4393 58.3548ZM47.1942 55.8387V56.1387H60.4187V55.8387V55.5387H47.1942V55.8387ZM60.4187 55.8387L60.1313 55.9249L60.8863 58.4411L61.1736 58.3548L61.461 58.2686L60.706 55.7525L60.4187 55.8387ZM61.1736 58.3548V58.0548H46.4393V58.3548V58.6548H61.1736V58.3548ZM70.9863 65.9032V65.6032H66.0652V65.9032V66.2032H70.9863V65.9032ZM66.0652 65.9032L66.3526 65.817L59.5591 43.1719L59.2718 43.2581L58.9844 43.3443L65.7779 65.9894L66.0652 65.9032ZM59.2718 43.2581V43.5581H64.1929V43.2581V42.9581H59.2718V43.2581ZM64.1929 43.2581L63.9055 43.3443L70.6989 65.9894L70.9863 65.9032L71.2736 65.817L64.4802 43.1719L64.1929 43.2581ZM78.9678 40.7419V40.4419H41.5502V40.7419V41.0419H78.9678V40.7419ZM41.5502 40.7419L41.8137 40.5986C41.447 39.9246 40.9829 39.2954 40.4133 38.7355L40.203 38.9494L39.9927 39.1634C40.5178 39.6797 40.9468 40.2607 41.2866 40.8853L41.5502 40.7419ZM40.203 38.9494L40.4132 38.7354C37.1904 35.5712 33.0694 33.654 28.6835 33.0883L28.6452 33.3858L28.6068 33.6834C32.8689 34.2332 36.8675 36.0951 39.9928 39.1635L40.203 38.9494ZM28.6452 33.3858H28.9452V29.4194H28.6452H28.3452V33.3858H28.6452ZM28.6452 29.4194V29.7194H45.4804V29.4194V29.1194H28.6452V29.4194ZM45.4804 29.4194L45.2828 29.6451C46.2173 30.4628 47.4299 30.9774 48.7742 30.9774V30.6774V30.3774C47.5876 30.3774 46.5126 29.9239 45.6779 29.1936L45.4804 29.4194ZM48.7742 30.6774V30.9774H49.1415V30.6774V30.3774H48.7742V30.6774ZM49.1415 30.6774V30.9774C49.9646 30.9774 50.7887 30.7829 51.5262 30.4151L51.3923 30.1467L51.2584 29.8782C50.6039 30.2046 49.8714 30.3774 49.1415 30.3774V30.6774ZM51.3923 30.1467L51.5265 30.415L53.7557 29.3001L53.6216 29.0317L53.4874 28.7634L51.2581 29.8784L51.3923 30.1467ZM53.6216 29.0317L53.5116 29.3109C53.7726 29.4137 54.0665 29.5358 54.3114 29.6549C54.4341 29.7146 54.5395 29.771 54.6203 29.8216C54.6606 29.8468 54.6916 29.8686 54.7142 29.8867C54.7381 29.9058 54.7451 29.9148 54.7437 29.913L54.9816 29.7302L55.2194 29.5473C55.147 29.4531 55.0366 29.3744 54.9386 29.313C54.8326 29.2467 54.7062 29.1797 54.5737 29.1153C54.3082 28.9862 53.9976 28.8574 53.7315 28.7526L53.6216 29.0317ZM54.9816 29.7302L54.7099 29.8574C54.7099 29.8574 54.7108 29.8592 54.7122 29.8635C54.7136 29.8677 54.7154 29.8736 54.7174 29.8816C54.7215 29.8976 54.7256 29.9192 54.7292 29.9471C54.7365 30.0033 54.7405 30.0755 54.7405 30.1633C54.7406 30.3391 54.7248 30.557 54.6988 30.7968C54.6469 31.2758 54.5575 31.8137 54.4891 32.2233L54.785 32.2727L55.0809 32.3222C55.1489 31.9154 55.2413 31.3605 55.2954 30.8615C55.3224 30.6123 55.3406 30.37 55.3405 30.1631C55.3405 29.9721 55.3261 29.7586 55.2533 29.603L54.9816 29.7302ZM54.785 32.2727L54.4891 32.2236C54.3303 33.1805 54.1509 34.249 54.2216 35.1961C54.2931 36.1539 54.6256 37.0465 55.5396 37.5757L55.6899 37.316L55.8402 37.0564C55.1637 36.6647 54.8835 36.002 54.82 35.1515C54.7557 34.2903 54.9191 33.2976 55.081 32.3218L54.785 32.2727ZM55.6899 37.316L55.5397 37.5757C56.4332 38.0925 57.3357 37.9568 58.1796 37.5549C59.0105 37.1591 59.8315 36.4837 60.6015 35.8526L60.4113 35.6206L60.2211 35.3886C59.4351 36.0328 58.6734 36.6551 57.9216 37.0132C57.1828 37.3651 56.5025 37.4395 55.8401 37.0564L55.6899 37.316ZM60.4113 35.6206L60.6012 35.8529C60.9159 35.5955 61.3565 35.2346 61.7687 34.9361C61.9751 34.7866 62.1683 34.6573 62.3307 34.5657C62.412 34.5199 62.4806 34.4863 62.5359 34.4645C62.5633 34.4537 62.5849 34.4468 62.6012 34.4426C62.618 34.4384 62.625 34.4381 62.6241 34.4381L62.6129 34.1383L62.6017 33.8385C62.5012 33.8423 62.4016 33.8725 62.3157 33.9063C62.2262 33.9417 62.1315 33.9892 62.036 34.043C61.845 34.1508 61.631 34.295 61.4168 34.4501C60.9877 34.7608 60.5332 35.1334 60.2214 35.3884L60.4113 35.6206ZM62.6129 34.1383L62.6018 34.4381C62.601 34.4381 62.6082 34.4384 62.625 34.4427C62.6414 34.4468 62.6631 34.4538 62.6905 34.4646C62.746 34.4864 62.8148 34.52 62.8962 34.5658C63.0589 34.6574 63.2523 34.7867 63.4589 34.9362C63.8716 35.2347 64.3124 35.5956 64.6271 35.8529L64.817 35.6206L65.0069 35.3884C64.6949 35.1333 64.2402 34.7608 63.8106 34.45C63.5961 34.2949 63.3818 34.1507 63.1905 34.0429C63.0948 33.9891 63 33.9416 62.9103 33.9063C62.8243 33.8724 62.7246 33.8423 62.6241 33.8385L62.6129 34.1383ZM64.817 35.6206L64.627 35.8528C65.2233 36.3408 65.8471 36.8525 66.4768 37.2402C67.1052 37.6271 67.7729 37.9121 68.4603 37.9121V37.6121V37.3121C67.9352 37.3121 67.3813 37.0925 66.7913 36.7293C66.2025 36.3667 65.6109 35.8827 65.007 35.3884L64.817 35.6206ZM68.4603 37.6121V37.9121C68.8742 37.9121 69.2861 37.8086 69.6878 37.5755L69.5372 37.316L69.3866 37.0566C69.0769 37.2363 68.7689 37.3121 68.4603 37.3121V37.6121ZM69.5372 37.316L69.6873 37.5758C70.6019 37.0474 70.9351 36.1546 71.0069 35.1967C71.078 34.2493 70.8986 33.1805 70.7392 32.2234L70.4433 32.2727L70.1473 32.322C70.3098 33.2976 70.4732 34.2906 70.4086 35.1518C70.3448 36.0025 70.0641 36.6651 69.3871 37.0563L69.5372 37.316ZM70.4433 32.2727L70.7392 32.2235C70.671 31.8137 70.5816 31.2759 70.5282 30.7987C70.5014 30.5598 70.4846 30.343 70.4831 30.1691C70.4824 30.0821 70.4856 30.0109 70.4921 29.956C70.4953 29.9288 70.4991 29.908 70.5026 29.8928C70.5064 29.8772 70.509 29.8716 70.5084 29.8728L70.2356 29.748L69.9628 29.6232C69.893 29.7757 69.8816 29.9873 69.8832 30.174C69.8848 30.3778 69.9042 30.6178 69.9319 30.8654C69.9874 31.3613 70.0797 31.9153 70.1473 32.3219L70.4433 32.2727ZM70.2356 29.748L70.4747 29.9292C70.4904 29.9085 70.5603 29.8487 70.7209 29.7587C70.8687 29.6759 71.0586 29.586 71.271 29.4941C71.6953 29.3106 72.1851 29.1294 72.559 28.9913L72.4551 28.7099L72.3511 28.4284C71.9799 28.5655 71.4746 28.7523 71.0327 28.9435C70.812 29.0389 70.6011 29.1381 70.4276 29.2353C70.2671 29.3252 70.0954 29.4364 69.9966 29.5668L70.2356 29.748ZM72.4551 28.7099L72.5593 28.9912C73.4862 28.6477 74.5227 28.2654 75.324 27.7203C76.1348 27.1687 76.7516 26.4175 76.7516 25.3331H76.4516H76.1516C76.1516 26.1445 75.706 26.7348 74.9865 27.2242C74.2574 27.7202 73.2957 28.0785 72.3508 28.4285L72.4551 28.7099ZM76.4516 25.3331H76.7516C76.7516 24.2487 76.1348 23.4974 75.3236 22.9457C74.5219 22.4005 73.4846 22.0179 72.5562 21.6738L72.452 21.9551L72.3477 22.2364C73.2941 22.5871 74.2567 22.9457 74.9861 23.4418C75.706 23.9315 76.1516 24.5218 76.1516 25.3331H76.4516ZM72.452 21.9551L72.5561 21.6738C72.183 21.5356 71.6928 21.3543 71.2693 21.1727C71.0573 21.0818 70.8681 20.9933 70.7216 20.9127C70.6483 20.8724 70.59 20.8363 70.5468 20.8053C70.5253 20.7899 70.5095 20.7771 70.4983 20.7671C70.4868 20.7567 70.4833 20.752 70.4843 20.7532L70.2455 20.9348L70.0066 21.1164C70.1035 21.2438 70.2754 21.352 70.4322 21.4383C70.6036 21.5326 70.8131 21.6299 71.0328 21.7241C71.4727 21.9128 71.9777 22.0994 72.3478 22.2365L72.452 21.9551ZM70.2455 20.9348L70.5172 20.8076C70.5172 20.8076 70.5163 20.8058 70.5149 20.8015C70.5134 20.7973 70.5116 20.7914 70.5096 20.7835C70.5056 20.7674 70.5015 20.7458 70.4979 20.718C70.4906 20.6618 70.4866 20.5896 70.4866 20.5017C70.4866 20.326 70.5024 20.108 70.5284 19.8682C70.5804 19.3892 70.6698 18.8513 70.738 18.4415L70.442 18.3922L70.1461 18.343C70.0785 18.7496 69.9861 19.3046 69.9319 19.8035C69.9049 20.0526 69.8866 20.2949 69.8866 20.5018C69.8866 20.6928 69.9009 20.9064 69.9738 21.062L70.2455 20.9348ZM70.442 18.3922L70.738 18.4414C70.8967 17.4848 71.0761 16.4163 71.0054 15.4691C70.9339 14.5113 70.6014 13.6185 69.6875 13.0893L69.5372 13.3489L69.3869 13.6086C70.0633 14.0002 70.3436 14.6631 70.4071 15.5138C70.4714 16.375 70.308 17.3677 70.1461 18.3431L70.442 18.3922ZM69.5372 13.3489L69.6872 13.0892C68.7943 12.5734 67.8922 12.7091 67.0484 13.1109C66.2175 13.5065 65.3962 14.1815 64.6256 14.8129L64.8158 15.045L65.0059 15.277C65.7925 14.6326 66.5546 14.0105 67.3064 13.6526C68.0453 13.3008 68.7253 13.2264 69.3871 13.6087L69.5372 13.3489ZM64.8158 15.045L64.626 14.8126C64.3111 15.0698 63.8706 15.4307 63.4584 15.7292C63.2519 15.8787 63.0588 16.008 62.8964 16.0995C62.8151 16.1453 62.7465 16.1789 62.6913 16.2006C62.6639 16.2114 62.6423 16.2183 62.6261 16.2224C62.6094 16.2266 62.6024 16.2269 62.6034 16.2268L62.6141 16.5267L62.6249 16.8265C62.7255 16.8229 62.8252 16.7927 62.9112 16.7589C63.0008 16.7236 63.0954 16.6761 63.191 16.6222C63.382 16.5145 63.5961 16.3703 63.8103 16.2152C64.2393 15.9045 64.6938 15.5319 65.0055 15.2773L64.8158 15.045ZM62.6141 16.5267L62.6248 16.2268C62.6257 16.2269 62.6186 16.2266 62.6018 16.2224C62.5855 16.2182 62.5638 16.2113 62.5364 16.2005C62.481 16.1788 62.4122 16.1452 62.3308 16.0994C62.1681 16.0079 61.9747 15.8786 61.7681 15.7291C61.3554 15.4306 60.9146 15.0697 60.5998 14.8126L60.4101 15.045L60.2203 15.2773C60.5321 15.532 60.9869 15.9045 61.4164 16.2153C61.6309 16.3704 61.8452 16.5146 62.0366 16.6223C62.1323 16.6762 62.2271 16.7237 62.3169 16.7589C62.403 16.7928 62.5028 16.8229 62.6034 16.8265L62.6141 16.5267ZM60.4101 15.045L60.6004 14.8131C59.8302 14.1809 59.009 13.5059 58.1781 13.1104C57.3345 12.7088 56.4326 12.5733 55.5409 13.0893L55.6911 13.3489L55.8413 13.6086C56.5019 13.2264 57.1815 13.3005 57.9203 13.6521C58.6718 14.0099 59.4339 14.6319 60.2197 15.2769L60.4101 15.045ZM55.6911 13.3489L55.541 13.0892C54.6264 13.6176 54.2932 14.5105 54.2213 15.4685C54.1503 16.416 54.3297 17.4848 54.4891 18.4416L54.785 18.3922L55.0809 18.3429C54.9185 17.3677 54.7551 16.3747 54.8197 15.5134C54.8834 14.6626 55.1642 13.9998 55.8412 13.6087L55.6911 13.3489ZM54.785 18.3922L54.4891 18.4417C54.5575 18.8512 54.647 19.3893 54.7003 19.8664C54.727 20.1053 54.7438 20.322 54.7452 20.4958C54.7459 20.5828 54.7427 20.6538 54.7362 20.7087C54.733 20.7358 54.7293 20.7565 54.7257 20.7715C54.722 20.7871 54.7194 20.7926 54.72 20.7911L54.9926 20.9164L55.2653 21.0416C55.3353 20.8891 55.3467 20.6775 55.3452 20.4911C55.3436 20.2874 55.3243 20.0474 55.2966 19.7997C55.2412 19.3038 55.1489 18.7496 55.0809 18.3428L54.785 18.3922ZM54.9926 20.9164L54.7531 20.7357C54.7394 20.754 54.6778 20.8085 54.533 20.8918C54.3998 20.9685 54.2278 21.0521 54.0327 21.1383C53.6432 21.3106 53.185 21.4833 52.8093 21.6221L52.9133 21.9035L53.0173 22.1849C53.3929 22.0461 53.8669 21.8677 54.2754 21.6871C54.4794 21.5969 54.6729 21.5036 54.8323 21.4118C54.9803 21.3267 55.1384 21.2213 55.2322 21.097L54.9926 20.9164ZM52.9133 21.9035L53.0475 21.6352L51.5266 20.8741L51.3923 21.1424L51.258 21.4107L52.779 22.1718L52.9133 21.9035ZM51.3923 21.1424L51.5258 20.8738C50.7886 20.5074 49.9646 20.3129 49.1415 20.3129V20.6129V20.9129C49.8714 20.9129 50.6041 21.0857 51.2588 21.4111L51.3923 21.1424ZM49.1415 20.6129V20.3129H48.7742V20.6129V20.9129H49.1415V20.6129ZM48.7742 20.6129V20.3129C47.4311 20.3129 46.2185 20.8276 45.283 21.6451L45.4804 21.871L45.6778 22.0969C46.5138 21.3663 47.5889 20.9129 48.7742 20.9129V20.6129ZM45.4804 21.871V21.571H28.6452V21.871V22.171H45.4804V21.871ZM28.6452 21.871H28.9452V10.5484H28.6452H28.3452V21.871H28.6452ZM28.6452 10.5484V10.8484H78.9678V10.5484V10.2484H28.6452V10.5484ZM78.9678 10.5484H78.6677V40.7419H78.9678H79.2678V10.5484H78.9678ZM57.2661 17.9801L57.5621 17.931C57.5048 17.5858 57.4328 17.1516 57.3802 16.7357C57.3266 16.3133 57.2966 15.935 57.3147 15.6933L57.0155 15.6709L56.7163 15.6486C56.6933 15.9566 56.7314 16.3886 56.7849 16.8111C56.8393 17.2402 56.9132 17.6857 56.9702 18.0292L57.2661 17.9801ZM57.0155 15.6709L56.882 15.9396C57.0952 16.0455 57.3961 16.2541 57.7208 16.5011C58.0408 16.7445 58.3659 17.0112 58.6247 17.2231L58.8148 16.9911L59.0048 16.759C58.7476 16.5483 58.4142 16.2747 58.0841 16.0236C57.7587 15.7761 57.4181 15.536 57.149 15.4023L57.0155 15.6709ZM58.8148 16.9911L58.6246 17.2231C59.2647 17.7475 59.9078 18.275 60.5562 18.669C61.2058 19.0639 61.8887 19.3428 62.6129 19.3428V19.0428V18.7428C62.0441 18.7428 61.472 18.5235 60.8678 18.1563C60.2624 17.7883 59.653 17.29 59.0049 16.759L58.8148 16.9911ZM62.6129 19.0428V19.3428C63.3372 19.3428 64.0201 19.0639 64.6695 18.669C65.3177 18.2749 65.9606 17.7474 66.6001 17.223L66.4098 16.9911L66.2196 16.7591C65.5722 17.29 64.9631 17.7884 64.3578 18.1563C63.7538 18.5235 63.1817 18.7428 62.6129 18.7428V19.0428ZM66.4098 16.9911L66.5999 17.2231C66.8586 17.0113 67.1837 16.7449 67.5037 16.5016C67.8283 16.2548 68.1296 16.046 68.3431 15.9393L68.2091 15.6709L68.0751 15.4026C67.8064 15.5367 67.466 15.7766 67.1406 16.024C66.8105 16.2749 66.4771 16.5482 66.2197 16.759L66.4098 16.9911ZM68.2091 15.6709L67.91 15.694C67.9286 15.9353 67.8986 16.3135 67.8449 16.7361C67.7921 17.1521 67.7198 17.5863 67.6625 17.9309L67.9585 17.9801L68.2544 18.0293C68.3114 17.6865 68.3856 17.241 68.4401 16.8117C68.4938 16.3891 68.532 15.9564 68.5082 15.6479L68.2091 15.6709ZM67.9585 17.9801L67.6625 17.9308C67.5295 18.73 67.3951 19.5339 67.3758 20.2751C67.3566 21.0174 67.4511 21.7315 67.8032 22.3405L68.0629 22.1904L68.3226 22.0403C68.0494 21.5676 67.9577 20.9809 67.9756 20.2907C67.9936 19.5993 68.1196 18.8389 68.2544 18.0293L67.9585 17.9801ZM68.0629 22.1904L67.8032 22.3406C68.1462 22.9335 68.7062 23.3593 69.3448 23.7025C69.9827 24.0453 70.7307 24.3217 71.4737 24.5966L71.5779 24.3152L71.682 24.0339C70.9292 23.7553 70.2229 23.4933 69.6288 23.174C69.0354 22.8551 68.5859 22.4953 68.3226 22.0402L68.0629 22.1904ZM71.5779 24.3152L71.4734 24.5965C71.8072 24.7204 72.2597 24.8879 72.6812 25.0662C73.1139 25.2491 73.475 25.4277 73.65 25.5675L73.8372 25.3331L74.0244 25.0987C73.7756 24.9 73.3396 24.6932 72.9149 24.5135C72.479 24.3292 72.0138 24.157 71.6823 24.034L71.5779 24.3152ZM73.8372 25.3331L73.65 25.0987C73.475 25.2384 73.1141 25.4167 72.6813 25.5996C72.2597 25.7777 71.8072 25.9452 71.473 26.0699L71.5779 26.351L71.6827 26.6321C72.0138 26.5086 72.4791 26.3364 72.9148 26.1523C73.3394 25.9728 73.7755 25.7663 74.0244 25.5675L73.8372 25.3331ZM71.5779 26.351L71.4737 26.0696C70.7307 26.3446 69.9827 26.6209 69.3449 26.9637C68.7065 27.3069 68.1467 27.7328 67.8043 28.3258L68.0641 28.4758L68.3239 28.6258C68.5866 28.1708 69.0358 27.8111 69.629 27.4922C70.2229 27.173 70.9292 26.9109 71.682 26.6323L71.5779 26.351ZM68.0641 28.4758L67.8046 28.3253C67.4517 28.934 67.3572 29.648 67.3766 30.3903C67.396 31.1315 67.5307 31.936 67.6637 32.736L67.9597 32.6868L68.2556 32.6376C68.1208 31.8269 67.9945 31.0661 67.9764 30.3746C67.9583 29.6843 68.05 29.0982 68.3236 28.6263L68.0641 28.4758ZM67.9597 32.6868L67.6637 32.7359C67.721 33.0807 67.793 33.5148 67.8457 33.9306C67.8992 34.3529 67.9292 34.7312 67.9111 34.9729L68.2103 34.9953L68.5095 35.0177C68.5325 34.7096 68.4944 34.2776 68.4409 33.8551C68.3865 33.4261 68.3126 32.9808 68.2556 32.6376L67.9597 32.6868ZM68.2103 34.9953L68.3435 34.7265C68.1305 34.6209 67.8297 34.4125 67.505 34.1655C67.1851 33.9222 66.86 33.6554 66.6013 33.4432L66.4111 33.6752L66.2208 33.9071C66.4781 34.1182 66.8116 34.392 67.1417 34.6431C67.4671 34.8906 67.8079 35.1307 68.0771 35.2641L68.2103 34.9953ZM66.4111 33.6752L66.6012 33.4431C65.9611 32.9187 65.318 32.3912 64.6696 31.9972C64.02 31.6024 63.3372 31.3234 62.6129 31.3234V31.6234V31.9234C63.1817 31.9234 63.7538 32.1427 64.358 32.5099C64.9634 32.8779 65.5728 33.3762 66.2209 33.9072L66.4111 33.6752ZM62.6129 31.6234V31.3234C61.8887 31.3234 61.2058 31.6024 60.5563 31.9972C59.9081 32.3913 59.2653 32.9188 58.6258 33.4432L58.816 33.6752L59.0062 33.9071C59.6537 33.3762 60.2627 32.8778 60.868 32.5099C61.472 32.1427 62.0441 31.9234 62.6129 31.9234V31.6234ZM58.816 33.6752L58.6257 33.4432C58.3672 33.6553 58.0421 33.9218 57.7221 34.165C57.3975 34.4118 57.0964 34.6204 56.883 34.7267L57.0167 34.9953L57.1505 35.2638C57.4193 35.1299 57.7598 34.8901 58.0852 34.6427C58.4154 34.3917 58.7488 34.1183 59.0062 33.9071L58.816 33.6752ZM57.0167 34.9953L57.3158 34.9722C57.2972 34.7309 57.3272 34.3527 57.3809 33.9302C57.4337 33.5143 57.506 33.0803 57.5633 32.736L57.2674 32.6868L56.9714 32.6375C56.9144 32.98 56.8402 33.4254 56.7857 33.8546C56.732 34.2772 56.6938 34.7098 56.7176 35.0183L57.0167 34.9953ZM57.2674 32.6868L57.5633 32.736C57.6963 31.9365 57.8308 31.1324 57.85 30.3912C57.8692 29.6489 57.7748 28.9347 57.4227 28.3257L57.1629 28.4758L56.9032 28.626C57.1765 29.0986 57.2681 29.6853 57.2502 30.3756C57.2323 31.0671 57.1062 31.8276 56.9714 32.6375L57.2674 32.6868ZM57.1629 28.4758L57.4226 28.3256C57.2068 27.9523 56.8875 27.6629 56.5568 27.4146L56.3766 27.6545L56.1965 27.8944C56.5022 28.124 56.7468 28.3555 56.9032 28.626L57.1629 28.4758ZM56.3766 27.6545L56.5109 27.9228L60.5277 25.9135L60.3935 25.6452L60.2593 25.3769L56.2424 27.3862L56.3766 27.6545ZM60.3935 25.6452L60.5277 25.3768L55.9838 23.1046L55.8496 23.3729L55.7154 23.6412L60.2593 25.9135L60.3935 25.6452ZM55.8496 23.3729L55.9971 23.6341C56.5821 23.3037 57.1 22.8987 57.4227 22.3405L57.1629 22.1904L56.9032 22.0403C56.657 22.4662 56.2437 22.8057 55.702 23.1117L55.8496 23.3729ZM57.1629 22.1904L57.4226 22.3407C57.7748 21.7321 57.8689 21.0181 57.8494 20.2759C57.8298 19.5348 57.6951 18.7306 57.5621 17.9308L57.2661 17.9801L56.9702 18.0293C57.105 18.8396 57.2313 19.6003 57.2496 20.2917C57.2678 20.982 57.1764 21.5682 56.9033 22.0401L57.1629 22.1904ZM54.7678 25.6452L54.6337 25.3768L50.1321 27.6276L50.2663 27.8959L50.4005 28.1642L54.902 25.9135L54.7678 25.6452ZM50.2663 27.8959L50.1323 27.6275C49.8267 27.78 49.4837 27.8613 49.1415 27.8613V28.1613V28.4613C49.5771 28.4613 50.0118 28.3583 50.4003 28.1643L50.2663 27.8959ZM49.1415 28.1613V27.8613H48.7742V28.1613V28.4613H49.1415V28.1613ZM48.7742 28.1613V27.8613C47.5522 27.8613 46.5581 26.8672 46.5581 25.6452H46.2581H45.9581C45.9581 27.1985 47.2208 28.4613 48.7742 28.4613V28.1613ZM46.2581 25.6452H46.5581C46.5581 24.4232 47.5522 23.429 48.7742 23.429V23.129V22.829C47.2208 22.829 45.9581 24.0918 45.9581 25.6452H46.2581ZM48.7742 23.129V23.429H49.1415V23.129V22.829H48.7742V23.129ZM49.1415 23.129V23.429C49.4837 23.429 49.8267 23.5103 50.1323 23.6628L50.2663 23.3944L50.4003 23.126C50.0118 22.9321 49.5771 22.829 49.1415 22.829V23.129ZM50.2663 23.3944L50.1321 23.6627L54.6337 25.9135L54.7678 25.6452L54.902 25.3768L50.4005 23.1261L50.2663 23.3944ZM26.129 8.03226H26.429V5.51613H26.129H25.829V8.03226H26.129ZM26.129 5.51613V5.81613H81.4839V5.51613V5.21613H26.129V5.51613ZM81.4839 5.51613L81.1839 5.51628L81.1851 8.0324L81.4851 8.03226L81.7851 8.03211L81.7839 5.51598L81.4839 5.51613ZM81.4851 8.03226V7.73226H26.129V8.03226V8.33226H81.4851V8.03226Z" fill="#A793B7" mask="url(#path-1-inside-1_286_3004)"/>
<path d="M26.1289 38.376C28.1266 38.3761 29.7529 40.0023 29.7529 42C29.7528 43.9976 28.1265 45.6239 26.1289 45.624C24.1312 45.624 22.505 43.9977 22.5049 42C22.5049 40.0022 24.1312 38.376 26.1289 38.376ZM26.1289 40.5918C25.3532 40.5918 24.7207 41.2229 24.7207 42C24.7208 42.777 25.3533 43.4082 26.1289 43.4082C26.9044 43.4081 27.537 42.7769 27.5371 42C27.5371 41.223 26.9045 40.5919 26.1289 40.5918Z" fill="white" stroke="white" stroke-width="0.3"/>
<path d="M15.5596 42.7539C16.9715 41.3411 19.2702 41.3398 20.6846 42.7539V42.7549C21.3699 43.4385 21.747 44.3483 21.7471 45.3164C21.7471 46.2853 21.3701 47.1961 20.6846 47.8799C19.978 48.5852 19.0505 48.9394 18.123 48.9395C17.1938 48.9395 16.2661 48.5853 15.5596 47.8789C14.8758 47.1951 14.499 46.2853 14.499 45.3164C14.4991 44.3482 14.8759 43.4376 15.5596 42.7539ZM18.123 43.9102C17.8067 43.9102 17.4905 44.0139 17.2324 44.2246L17.126 44.3213C16.8613 44.586 16.7149 44.941 16.7148 45.3164C16.7148 45.6922 16.8587 46.0473 17.126 46.3125V46.3115C17.6732 46.858 18.5678 46.8626 19.1182 46.3115C19.3842 46.0447 19.5312 45.6918 19.5312 45.3164C19.5312 44.9407 19.3837 44.5871 19.1172 44.3213H19.1182C18.8435 44.046 18.4826 43.9102 18.123 43.9102Z" fill="white" stroke="white" stroke-width="0.3"/>
<path d="M14.8066 49.6992C16.8043 49.6993 18.4307 51.3256 18.4307 53.3232C18.4305 55.3208 16.8042 56.9471 14.8066 56.9473C12.809 56.9473 11.1827 55.3209 11.1826 53.3232C11.1826 51.3255 12.8089 49.6992 14.8066 49.6992ZM14.8066 51.915C14.031 51.915 13.3984 52.5462 13.3984 53.3232C13.3986 54.1002 14.031 54.7314 14.8066 54.7314C15.5821 54.7313 16.2147 54.1002 16.2148 53.3232C16.2148 52.5462 15.5822 51.9152 14.8066 51.915Z" fill="white" stroke="white" stroke-width="0.3"/>
<path d="M15.5605 58.7676C16.9737 57.3527 19.2709 57.3542 20.6855 58.7676C21.3709 59.45 21.748 60.3601 21.748 61.3291C21.748 62.2974 21.3711 63.2079 20.6855 63.8916C19.9791 64.598 19.0518 64.9511 18.123 64.9512C17.1949 64.9512 16.2671 64.598 15.5605 63.8916C14.8768 63.2078 14.5 62.2974 14.5 61.3291C14.5 60.3602 14.8767 59.4514 15.5605 58.7676ZM18.1211 59.9229C17.7616 59.9229 17.4006 60.0588 17.126 60.334C16.8613 60.5987 16.7148 60.9528 16.7148 61.3291C16.7149 61.7045 16.861 62.0594 17.127 62.3242C17.676 62.8766 18.5677 62.8728 19.1162 62.3242L19.1172 62.3252C19.3837 62.0593 19.5304 61.7046 19.5283 61.3281C19.5281 60.952 19.3816 60.5993 19.1172 60.335H19.1162C18.8419 60.0605 18.481 59.9229 18.1211 59.9229Z" fill="white" stroke="white" stroke-width="0.3"/>
</svg>
