<svg width="91" height="91" viewBox="0 0 91 91" fill="none" xmlns="http://www.w3.org/2000/svg">
<path d="M78.6011 30.5765C78.7198 30.2143 78.7849 29.828 78.7849 29.4268V11.2969C78.7849 9.249 77.1127 7.58301 75.0575 7.58301H52.2788C50.2236 7.58301 48.5515 9.249 48.5515 11.2969V12.6013C43.6377 12.5029 38.5302 13.5226 34.0147 15.5029C29.8805 17.3073 26.184 19.8596 23.0176 23.0885H19.1232C18.5162 23.0885 18.0242 23.5805 18.0242 24.1875C18.0242 24.7945 18.5162 25.2865 19.1232 25.2865H34.4924C35.3356 25.2865 36.0216 25.9666 36.0216 26.8023V44.9321C36.0216 45.768 35.3356 46.448 34.4924 46.448H32.3897C30.8175 46.448 29.5384 47.7231 29.5384 49.2903V51.8503L22.7897 46.987C22.3006 46.6344 21.7229 46.4482 21.1193 46.4482H11.7137C10.8705 46.4482 10.1844 45.7681 10.1844 44.9323V26.8025C10.1844 25.9666 10.8705 25.2867 11.7137 25.2867H13.9944C14.6013 25.2867 15.0934 24.7946 15.0934 24.1876C15.0934 23.5807 14.6013 23.0886 13.9944 23.0886H11.7137C9.65847 23.0886 7.98633 24.7546 7.98633 26.8025V44.9323C7.98633 46.9801 9.65847 48.6463 11.7137 48.6463H13.0151C13.2756 57.606 16.8863 65.9915 23.2518 72.357C29.8638 78.9689 38.6551 82.6104 48.0059 82.6104C52.8676 82.6104 57.5738 81.6324 61.9941 79.7036C66.2634 77.8408 70.0678 75.1826 73.3019 71.803C73.7216 71.3645 73.7063 70.6688 73.2677 70.2492C72.829 69.8295 72.1335 69.8447 71.7139 70.2833C69.2991 72.8067 66.5594 74.89 63.5866 76.4993C62.1898 74.6403 60.1401 72.4036 58.7699 70.2597L59.0319 70.0708C59.1444 69.9896 59.2776 69.9468 59.417 69.9468H68.8227C70.8778 69.9468 72.55 68.2809 72.55 66.233V48.1032C72.55 47.8577 72.5254 47.6182 72.4795 47.3859C74.3684 45.125 75.4031 42.2429 75.4031 39.2015C75.3884 37.0387 74.7774 34.9491 73.6553 33.1407H75.0574C75.8288 33.1407 76.5462 32.9059 77.1416 32.5044C79.5488 37.1457 80.8156 42.334 80.8156 47.6026C80.8156 54.3869 78.7632 60.897 74.8802 66.4292C74.5315 66.926 74.6515 67.6115 75.1484 67.9601C75.4764 68.1957 76.1815 68.2901 76.6793 67.6919C80.8232 61.7879 83.0137 54.8412 83.0137 47.6026C83.0137 41.633 81.4894 35.7584 78.6011 30.5765ZM34.4924 23.0886H26.1966C28.7775 20.7828 31.6617 18.9287 34.7582 17.5622L35.4929 18.41C36.7263 20.0292 37.4963 22.3537 37.2438 24.2999C36.5618 23.5561 35.5809 23.0886 34.4924 23.0886ZM60.089 75.6393C60.6145 76.2793 61.1198 76.8955 61.5837 77.4971C57.3826 79.4075 52.7807 80.4123 48.0059 80.4123C35.7085 80.4123 24.9717 73.6104 19.3544 63.5726C20.9039 62.2946 22.8999 60.7415 24.4945 60.9264C25.1453 61.002 25.7215 61.3823 26.2559 62.0895C27.5932 63.8573 29.8499 64.2018 31.4309 64.3072C33.7916 64.1612 35.8953 62.9554 37.2087 61.0111C37.5521 60.5105 37.4247 59.8265 36.9242 59.4832C36.4236 59.1397 35.7396 59.2673 35.3962 59.7677C34.4518 61.1446 33.2045 61.8896 31.4769 62.1069C29.6827 61.9752 28.6108 61.5592 28.0091 60.7636C27.1063 59.5693 26.0092 58.8894 24.7481 58.7429C22.4203 58.4731 20.1309 60.1086 18.3246 61.5749C16.46 57.6299 15.3594 53.2566 15.2145 48.6461H21.1192C21.2587 48.6461 21.3919 48.6889 21.5044 48.7701L28.6046 53.8869C28.9493 54.1353 29.3531 54.2616 29.7598 54.2616C30.0675 54.2616 30.3767 54.1892 30.6629 54.0428C31.3251 53.7039 31.7363 53.0321 31.7363 52.2895V49.2903C31.7363 48.9351 32.0294 48.6461 32.3896 48.6461H34.4922C36.5474 48.6461 38.2196 46.98 38.2196 44.9321V40.2419C39.5277 41.0486 41.5996 41.7647 43.2863 41.7188C45.1101 41.7188 46.9252 41.1749 48.4875 40.1019C50.5264 38.7016 51.9302 36.5159 52.3392 34.1052C52.3923 33.7922 52.4387 33.4698 52.4786 33.1405H54.3814C54.7416 33.1405 55.0345 33.4295 55.0345 33.7847V36.7839C55.0345 37.5264 55.4458 38.1983 56.1079 38.5372C56.6665 38.7986 57.3471 38.8873 58.166 38.3814L62.6902 35.1211C62.5154 36.8232 62.0576 38.614 59.9729 40.6944C58.9939 41.691 58.432 43.0223 58.4021 44.389H46.0438C43.9886 44.389 42.3165 46.0552 42.3165 48.103V48.5781C40.2761 49.3559 38.6425 51.0728 37.9104 53.2354C37.7508 53.7069 37.5009 54.5101 37.2688 55.2772C37.0914 55.8577 37.418 56.4721 37.9984 56.6496C38.441 56.7738 39.0676 56.6206 39.3708 55.92C39.5265 55.4103 39.7402 54.6996 39.9925 53.9401C40.4157 52.6898 41.2528 51.6526 42.3166 51.013V66.2327C42.3166 68.2806 43.9888 69.9466 46.0439 69.9466H48.1466C48.5068 69.9466 48.7997 70.2355 48.7997 70.5907V73.5898C48.7997 74.3323 49.2111 75.004 49.8731 75.3431C50.1593 75.4896 50.4685 75.5619 50.7764 75.5619C51.183 75.5619 51.587 75.4356 51.9315 75.1873L56.9853 71.5454C57.912 72.9841 59.0147 74.3311 60.089 75.6393ZM70.3522 66.2328C70.3522 67.0687 69.6661 67.7486 68.823 67.7486H59.4173C58.8135 67.7486 58.2359 67.935 57.7469 68.2876L50.9981 73.151V70.5909C50.9981 69.0237 49.719 67.7486 48.1469 67.7486H46.0442C45.2011 67.7486 44.515 67.0686 44.515 66.2328V48.1032C44.515 47.2673 45.2011 46.5873 46.0442 46.5873H59.6188C59.6199 46.5873 59.621 46.5876 59.6221 46.5876C59.6238 46.5876 59.6254 46.5873 59.627 46.5873H68.8231C69.6663 46.5873 70.3524 47.2673 70.3524 48.1032L70.3522 66.2328ZM73.2053 39.2089C73.2053 41.4416 72.5317 43.5695 71.2921 45.3243C70.634 44.7431 69.7694 44.3892 68.823 44.3892H60.6013C60.6306 43.5954 60.9647 42.8217 61.5336 42.2427C64.6289 39.1538 64.8171 36.4165 64.9681 34.2171C64.9866 33.9469 65.0052 33.6874 65.0281 33.4365L65.2663 33.2648C65.379 33.1836 65.5122 33.1407 65.6517 33.1407H70.9406C72.3881 34.8352 73.1901 36.9772 73.2053 39.2089ZM75.0575 30.9426H65.6519C65.0483 30.9426 64.4706 31.1288 63.9815 31.4814L63.3249 31.9546C63.3224 31.9563 63.3199 31.9581 63.3174 31.9599L57.2327 36.3449V33.7847C57.2327 32.2175 55.9536 30.9424 54.3815 30.9424H52.2788C51.4357 30.9424 50.7496 30.2624 50.7496 29.4267V25.3141C50.7496 24.7071 50.2575 24.215 49.6505 24.215C49.0436 24.215 48.5515 24.7071 48.5515 25.3141V29.4267C48.5515 30.7624 49.2631 31.9351 50.328 32.5895C50.2861 32.9843 50.2348 33.3693 50.1722 33.7378C49.8623 35.5654 48.7946 37.2247 47.2432 38.2901C44.5063 40.2165 40.8187 39.7302 38.2197 37.5791V27.6417C40.5778 24.5317 39.398 19.5849 36.9196 16.6997C40.4576 15.4307 44.5676 14.7154 48.5514 14.7993V20.1853C48.5514 20.7922 49.0434 21.2843 49.6504 21.2843C50.2573 21.2843 50.7494 20.7922 50.7494 20.1853V11.2969C50.7494 10.461 51.4355 9.78107 52.2787 9.78107H75.0574C75.9006 9.78107 76.5867 10.4612 76.5867 11.2969V29.4267C76.5868 30.2625 75.9007 30.9426 75.0575 30.9426Z" fill="white"/>
<path d="M70.4565 14.8731H64.7672V13.0043C64.7672 12.3973 64.2751 11.9053 63.6682 11.9053C63.0612 11.9053 62.5691 12.3973 62.5691 13.0043V14.8731H56.8798C56.2728 14.8731 55.7808 15.3652 55.7808 15.9721C55.7808 16.5791 56.2728 17.0712 56.8798 17.0712H59.1586C59.6863 19.4101 60.7301 21.5609 62.1837 23.3903C61.0714 24.4523 59.77 25.3327 58.3188 25.9795L56.8046 26.6543C56.2501 26.9014 56.001 27.5511 56.2481 28.1055C56.4304 28.5146 56.8319 28.7574 57.2526 28.7574C57.4021 28.7574 57.554 28.7268 57.6992 28.662L59.2134 27.9872C60.8838 27.2428 62.3838 26.2321 63.6682 25.0135C64.9526 26.2321 66.4525 27.2428 68.1229 27.9872L69.6371 28.662C70.0234 28.822 70.7478 28.7772 71.0882 28.1055C71.3353 27.5511 71.0862 26.9014 70.5317 26.6543L69.0175 25.9795C67.5662 25.3328 66.265 24.4523 65.1526 23.3903C66.6062 21.5609 67.6499 19.4101 68.1776 17.0712H70.4564C71.0633 17.0712 71.5554 16.5791 71.5554 15.9721C71.5554 15.3652 71.0635 14.8731 70.4565 14.8731ZM63.6682 21.7154C62.6383 20.3398 61.8698 18.7681 61.421 17.0712H65.9152C65.4663 18.7681 64.698 20.3398 63.6682 21.7154Z" fill="white"/>
<path d="M17.5087 43.4873C18.0767 43.7015 18.7109 43.4149 18.925 42.847L19.8788 40.3197H26.3184L27.2822 42.8503C27.4492 43.2889 27.8666 43.5585 28.3094 43.5585C28.4394 43.5585 28.5717 43.5352 28.7004 43.4862C29.2676 43.2702 29.5522 42.6353 29.3362 42.0681L24.3841 29.0655C24.3809 29.0571 24.3777 29.0488 24.3743 29.0404C24.1586 28.5133 23.6513 28.1725 23.0818 28.1719C23.0812 28.1719 23.081 28.1719 23.0804 28.1719C22.5117 28.1719 22.0042 28.5117 21.7876 29.0378C21.7835 29.0477 21.7796 29.0578 21.7756 29.0681L16.8685 42.0713C16.6541 42.6388 16.9407 43.273 17.5087 43.4873ZM23.0837 31.8268L25.4812 38.1216H20.7082L23.0837 31.8268Z" fill="white"/>
<path d="M65.8521 50.5186H60.7392C60.1322 50.5186 59.6402 51.0106 59.6402 51.6176C59.6402 52.2245 60.1322 52.7166 60.7392 52.7166H62.1965V56.1603H57.8249C58.0803 55.6402 58.224 55.0558 58.224 54.4384C58.224 52.277 56.4656 50.5186 54.3041 50.5186H51.1307C50.5238 50.5186 50.0317 51.0106 50.0317 51.6176C50.0317 52.2245 50.5238 52.7166 51.1307 52.7166H54.3041C55.2536 52.7166 56.026 53.489 56.026 54.4384C56.026 55.3879 55.2536 56.1603 54.3041 56.1603H50.778C50.1711 56.1603 49.679 56.6523 49.679 57.2593C49.679 57.8663 50.1711 58.3583 50.778 58.3583H54.3041C55.2536 58.3583 56.026 59.1307 56.026 60.0801C56.026 61.0457 55.2697 61.802 54.3041 61.802C52.7857 61.802 51.062 61.6308 49.7921 60.3609C49.3629 59.9317 48.667 59.9317 48.2379 60.3609C47.8087 60.7901 47.8087 61.486 48.2379 61.9151C50.0859 63.7631 52.4506 64 54.3041 64C56.4656 64 58.224 62.2416 58.224 60.0801C58.224 59.4628 58.0803 58.8784 57.8249 58.3583H62.1965V62.901C62.1965 63.508 62.6886 64 63.2956 64C63.9025 64 64.3946 63.508 64.3946 62.901V52.7166H65.8519C66.4589 52.7166 66.9509 52.2245 66.9509 51.6176C66.9509 51.0106 66.459 50.5186 65.8521 50.5186Z" fill="white"/>
</svg>
