<svg width="71" height="71" viewBox="0 0 71 71" fill="none" xmlns="http://www.w3.org/2000/svg">
<mask id="path-1-inside-1_285_2678" fill="white">
<path d="M49.9496 19.974C46.7161 19.974 43.6694 20.7554 40.9554 22.109V16.835L37.9929 16.138C37.6196 14.8349 37.0991 13.5803 36.4403 12.3919L38.0435 9.80382L32.014 3.77433L29.4248 5.37642C28.2376 4.71759 26.9829 4.19705 25.6787 3.82379L24.9817 0.861328H16.4552L15.7581 3.82267C14.4539 4.19705 13.1992 4.71647 12.012 5.37529L9.42281 3.77433L3.39332 9.80382L4.99654 12.3919C4.33771 13.5803 3.81717 14.8349 3.44391 16.138L0.481445 16.835V25.3615L3.44391 26.0586C3.81717 27.3616 4.33771 28.6163 4.99654 29.8047L3.39332 32.3928L8.5009 37.4992C8.40759 38.0153 8.35137 38.5448 8.35137 39.0867C8.35137 42.2122 9.95571 44.9678 12.3819 46.58C5.49796 48.7049 0.481445 55.1245 0.481445 62.6965V66.0693C0.481445 68.5495 2.4984 70.5664 4.97855 70.5664H14.5349C15.6356 70.5664 16.6305 70.1133 17.3456 69.3825C18.0606 70.1133 19.0556 70.5664 20.1563 70.5664H29.7126C32.1928 70.5664 34.2097 68.5495 34.2097 66.0693V62.6965C34.2097 55.1245 29.1932 48.7049 22.3093 46.58C24.7354 44.9678 26.3398 42.2122 26.3398 39.0867C26.3398 38.7674 26.3218 38.4526 26.2892 38.1423C27.3786 37.7882 28.4377 37.3666 29.4248 36.8202L29.9689 37.1563C29.816 38.1558 29.7126 39.1699 29.7126 40.211C29.7126 51.3694 38.7911 60.4479 49.9496 60.4479C61.108 60.4479 70.1865 51.3694 70.1865 40.211C70.1865 29.0525 61.108 19.974 49.9496 19.974ZM67.8806 41.3352C67.6243 45.4478 65.9885 49.1838 63.4195 52.0923L60.2839 48.9567L58.6942 50.5464L61.8298 53.682C58.9213 56.2499 55.1853 57.8868 51.0738 58.142V53.7023H48.8253V58.142C44.7127 57.8857 40.9767 56.2499 38.0693 53.682L41.205 50.5464L39.6152 48.9567L36.4796 52.0923C33.9107 49.1838 32.2748 45.4478 32.0185 41.3352H36.4583V39.0867H32.0185C32.2748 34.9741 33.9107 31.2381 36.4796 28.3296L39.6152 31.4652L41.205 29.8755L38.0693 26.7399C40.9778 24.1721 44.7138 22.5351 48.8253 22.2799V26.7197H51.0738V22.2799C55.1864 22.5362 58.9224 24.1721 61.8298 26.7399L58.6942 29.8755L60.2839 31.4652L63.4195 28.3296C65.9885 31.2381 67.6243 34.9741 67.8806 39.0867H63.4409V41.3352H67.8806ZM21.2715 48.6318L17.3456 53.1188L13.4196 48.6318C14.6709 48.2821 15.9841 48.0809 17.3456 48.0809C18.7071 48.0809 20.0202 48.2821 21.2715 48.6318ZM31.9612 62.6965V66.0693C31.9612 67.3094 30.9527 68.3179 29.7126 68.3179H20.1563C19.2265 68.3179 18.4699 67.5612 18.4699 66.6314C18.4699 65.7017 19.2265 64.945 20.1563 64.945H28.5883V62.6965H26.3398V58.1994H24.0912V62.6965H20.1563C19.0556 62.6965 18.0606 63.1496 17.3456 63.8803C16.6305 63.1496 15.6356 62.6965 14.5349 62.6965H10.5999V58.1994H8.35137V62.6965H6.10282V64.945H14.5349C15.4647 64.945 16.2213 65.7017 16.2213 66.6314C16.2213 67.5612 15.4647 68.3179 14.5349 68.3179H4.97855C3.73847 68.3179 2.73 67.3094 2.73 66.0693V62.6965C2.73 56.848 6.19052 51.8056 11.1643 49.4716L17.3456 56.5343L23.5268 49.4716C28.5006 51.8056 31.9612 56.848 31.9612 62.6965ZM17.3456 45.8323C13.6253 45.8323 10.5999 42.8069 10.5999 39.0867C10.5999 35.3665 13.6253 32.341 17.3456 32.341C21.0658 32.341 24.0912 35.3665 24.0912 39.0867C24.0912 42.8069 21.0658 45.8323 17.3456 45.8323ZM9.47565 21.0983C9.47565 14.899 14.5191 9.85553 20.7184 9.85553C26.9177 9.85553 31.9612 14.899 31.9612 21.0983C31.9612 26.4858 28.2106 31.0223 22.9793 32.0858C21.4368 30.8424 19.4783 30.0925 17.3456 30.0925C16.4001 30.0925 15.4905 30.2409 14.6338 30.5118C11.4488 28.4465 9.47565 24.8961 9.47565 21.0983ZM29.4495 34.1916L28.8615 34.5491C27.898 35.1337 26.8626 35.6127 25.7754 35.9792C25.5089 35.2585 25.1582 34.5795 24.7253 33.9589C30.3175 32.2399 34.2097 27.1109 34.2097 21.0983C34.2097 13.659 28.1577 7.60698 20.7184 7.60698C13.2791 7.60698 7.2271 13.659 7.2271 21.0983C7.2271 25.2086 9.14399 29.0885 12.3223 31.6294C11.0316 32.5018 9.9872 33.7048 9.29127 35.109L6.24448 32.0622L7.62622 29.8294L7.2687 29.2403C6.44123 27.8743 5.8285 26.3981 5.45074 24.8511L5.2866 24.1822L2.73 23.5807V18.6159L5.28547 18.0144L5.44962 17.3455C5.82738 15.7996 6.4401 14.3223 7.26757 12.9563L7.62509 12.3672L6.24336 10.1344L9.75447 6.62324L11.9873 8.00497L12.5753 7.64745C13.9401 6.81886 15.4163 6.20726 16.9644 5.82725L17.6334 5.66311L18.236 3.10988H23.2008L23.8023 5.66423L24.4712 5.82838C26.0194 6.20726 27.4955 6.81999 28.8604 7.64858L29.4484 8.0061L31.6812 6.62436L35.1923 10.1355L33.8106 12.3683L34.1681 12.9574C34.9956 14.3234 35.6083 15.7996 35.9861 17.3466L36.1502 18.0155L38.7068 18.6159V23.3963C34.7347 26.0608 31.7734 30.0981 30.4647 34.8189L29.4495 34.1916Z"/>
</mask>
<path d="M49.9496 19.974C46.7161 19.974 43.6694 20.7554 40.9554 22.109V16.835L37.9929 16.138C37.6196 14.8349 37.0991 13.5803 36.4403 12.3919L38.0435 9.80382L32.014 3.77433L29.4248 5.37642C28.2376 4.71759 26.9829 4.19705 25.6787 3.82379L24.9817 0.861328H16.4552L15.7581 3.82267C14.4539 4.19705 13.1992 4.71647 12.012 5.37529L9.42281 3.77433L3.39332 9.80382L4.99654 12.3919C4.33771 13.5803 3.81717 14.8349 3.44391 16.138L0.481445 16.835V25.3615L3.44391 26.0586C3.81717 27.3616 4.33771 28.6163 4.99654 29.8047L3.39332 32.3928L8.5009 37.4992C8.40759 38.0153 8.35137 38.5448 8.35137 39.0867C8.35137 42.2122 9.95571 44.9678 12.3819 46.58C5.49796 48.7049 0.481445 55.1245 0.481445 62.6965V66.0693C0.481445 68.5495 2.4984 70.5664 4.97855 70.5664H14.5349C15.6356 70.5664 16.6305 70.1133 17.3456 69.3825C18.0606 70.1133 19.0556 70.5664 20.1563 70.5664H29.7126C32.1928 70.5664 34.2097 68.5495 34.2097 66.0693V62.6965C34.2097 55.1245 29.1932 48.7049 22.3093 46.58C24.7354 44.9678 26.3398 42.2122 26.3398 39.0867C26.3398 38.7674 26.3218 38.4526 26.2892 38.1423C27.3786 37.7882 28.4377 37.3666 29.4248 36.8202L29.9689 37.1563C29.816 38.1558 29.7126 39.1699 29.7126 40.211C29.7126 51.3694 38.7911 60.4479 49.9496 60.4479C61.108 60.4479 70.1865 51.3694 70.1865 40.211C70.1865 29.0525 61.108 19.974 49.9496 19.974ZM67.8806 41.3352C67.6243 45.4478 65.9885 49.1838 63.4195 52.0923L60.2839 48.9567L58.6942 50.5464L61.8298 53.682C58.9213 56.2499 55.1853 57.8868 51.0738 58.142V53.7023H48.8253V58.142C44.7127 57.8857 40.9767 56.2499 38.0693 53.682L41.205 50.5464L39.6152 48.9567L36.4796 52.0923C33.9107 49.1838 32.2748 45.4478 32.0185 41.3352H36.4583V39.0867H32.0185C32.2748 34.9741 33.9107 31.2381 36.4796 28.3296L39.6152 31.4652L41.205 29.8755L38.0693 26.7399C40.9778 24.1721 44.7138 22.5351 48.8253 22.2799V26.7197H51.0738V22.2799C55.1864 22.5362 58.9224 24.1721 61.8298 26.7399L58.6942 29.8755L60.2839 31.4652L63.4195 28.3296C65.9885 31.2381 67.6243 34.9741 67.8806 39.0867H63.4409V41.3352H67.8806ZM21.2715 48.6318L17.3456 53.1188L13.4196 48.6318C14.6709 48.2821 15.9841 48.0809 17.3456 48.0809C18.7071 48.0809 20.0202 48.2821 21.2715 48.6318ZM31.9612 62.6965V66.0693C31.9612 67.3094 30.9527 68.3179 29.7126 68.3179H20.1563C19.2265 68.3179 18.4699 67.5612 18.4699 66.6314C18.4699 65.7017 19.2265 64.945 20.1563 64.945H28.5883V62.6965H26.3398V58.1994H24.0912V62.6965H20.1563C19.0556 62.6965 18.0606 63.1496 17.3456 63.8803C16.6305 63.1496 15.6356 62.6965 14.5349 62.6965H10.5999V58.1994H8.35137V62.6965H6.10282V64.945H14.5349C15.4647 64.945 16.2213 65.7017 16.2213 66.6314C16.2213 67.5612 15.4647 68.3179 14.5349 68.3179H4.97855C3.73847 68.3179 2.73 67.3094 2.73 66.0693V62.6965C2.73 56.848 6.19052 51.8056 11.1643 49.4716L17.3456 56.5343L23.5268 49.4716C28.5006 51.8056 31.9612 56.848 31.9612 62.6965ZM17.3456 45.8323C13.6253 45.8323 10.5999 42.8069 10.5999 39.0867C10.5999 35.3665 13.6253 32.341 17.3456 32.341C21.0658 32.341 24.0912 35.3665 24.0912 39.0867C24.0912 42.8069 21.0658 45.8323 17.3456 45.8323ZM9.47565 21.0983C9.47565 14.899 14.5191 9.85553 20.7184 9.85553C26.9177 9.85553 31.9612 14.899 31.9612 21.0983C31.9612 26.4858 28.2106 31.0223 22.9793 32.0858C21.4368 30.8424 19.4783 30.0925 17.3456 30.0925C16.4001 30.0925 15.4905 30.2409 14.6338 30.5118C11.4488 28.4465 9.47565 24.8961 9.47565 21.0983ZM29.4495 34.1916L28.8615 34.5491C27.898 35.1337 26.8626 35.6127 25.7754 35.9792C25.5089 35.2585 25.1582 34.5795 24.7253 33.9589C30.3175 32.2399 34.2097 27.1109 34.2097 21.0983C34.2097 13.659 28.1577 7.60698 20.7184 7.60698C13.2791 7.60698 7.2271 13.659 7.2271 21.0983C7.2271 25.2086 9.14399 29.0885 12.3223 31.6294C11.0316 32.5018 9.9872 33.7048 9.29127 35.109L6.24448 32.0622L7.62622 29.8294L7.2687 29.2403C6.44123 27.8743 5.8285 26.3981 5.45074 24.8511L5.2866 24.1822L2.73 23.5807V18.6159L5.28547 18.0144L5.44962 17.3455C5.82738 15.7996 6.4401 14.3223 7.26757 12.9563L7.62509 12.3672L6.24336 10.1344L9.75447 6.62324L11.9873 8.00497L12.5753 7.64745C13.9401 6.81886 15.4163 6.20726 16.9644 5.82725L17.6334 5.66311L18.236 3.10988H23.2008L23.8023 5.66423L24.4712 5.82838C26.0194 6.20726 27.4955 6.81999 28.8604 7.64858L29.4484 8.0061L31.6812 6.62436L35.1923 10.1355L33.8106 12.3683L34.1681 12.9574C34.9956 14.3234 35.6083 15.7996 35.9861 17.3466L36.1502 18.0155L38.7068 18.6159V23.3963C34.7347 26.0608 31.7734 30.0981 30.4647 34.8189L29.4495 34.1916Z" fill="white" stroke="white" stroke-width="0.6" mask="url(#path-1-inside-1_285_2678)"/>
</svg>
