<svg width="53" height="55" viewBox="0 0 53 55" fill="none" xmlns="http://www.w3.org/2000/svg">
<path d="M50.1279 3.37598C49.6322 4.15257 49.1371 4.92926 48.6416 5.7041L48.6191 5.73828L48.6035 5.77539L46.9131 9.69531L46.585 8.37109L46.3721 7.51172L26.2041 27.6797C26.1418 27.7442 26.0463 27.7852 25.9453 27.7852C25.8522 27.7851 25.75 27.7441 25.6797 27.6738L20.5723 22.5654L20.2188 22.2119L19.8652 22.5654L2.09668 40.335L2.08984 40.3408C2.02437 40.4085 1.9304 40.4463 1.83105 40.4463C1.73699 40.4463 1.64283 40.4123 1.56543 40.335C1.4182 40.1877 1.41825 39.9451 1.56543 39.7979L19.96 21.4033C20.0235 21.3375 20.1136 21.2979 20.2188 21.2979C20.3119 21.2979 20.414 21.3398 20.4844 21.4102L25.9453 26.8711L26.2988 26.5176L45.21 7.60059L45.8389 6.97168L44.9736 6.76172L43.6533 6.44141L47.5781 4.75L47.6152 4.73438L47.6494 4.71191C48.4243 4.21637 49.2009 3.72129 49.9775 3.22559C50.1163 3.13702 50.2548 3.04756 50.3936 2.95898C50.3049 3.09782 50.2165 3.23714 50.1279 3.37598Z" fill="white" stroke="white"/>
<path d="M10.2051 40.1123C10.3078 40.0071 10.4676 39.9729 10.6094 40.0322L10.6143 40.0332C10.7474 40.0876 10.8438 40.2275 10.8438 40.3818V53.2178C10.8435 53.655 10.4854 54.0156 10.0391 54.0156H3.17676C2.73803 54.0156 2.37917 53.6565 2.37891 53.2178V48.0859C2.37891 47.9928 2.42089 47.8906 2.49121 47.8203L2.49023 47.8193L10.2002 40.1162L10.2051 40.1123ZM3.13965 48.2393V53.2549H10.0889V41.29L3.13965 48.2393Z" fill="white" stroke="white"/>
<path d="M20.2119 30.2578C20.3051 30.2578 20.4072 30.2998 20.4775 30.3701L24.2637 34.1553L24.2695 34.1621C24.3354 34.2256 24.375 34.3157 24.375 34.4209V53.2178C24.3748 53.6565 24.016 54.0156 23.5771 54.0156H16.7148C16.2761 54.0156 15.9172 53.6565 15.917 53.2178V34.5527C15.9171 34.4597 15.9591 34.3583 16.0293 34.2881L19.9473 30.3701L19.9531 30.3633C20.0166 30.2975 20.1069 30.2579 20.2119 30.2578ZM23.6211 34.5801L23.4746 34.4336L20.5654 31.5254L20.2119 31.1719L19.8584 31.5254L16.8184 34.5664L16.6719 34.7129V53.2549H23.6211V34.5801Z" fill="white" stroke="white"/>
<path d="M37.2705 24.5068C37.3733 24.4016 37.533 24.3675 37.6748 24.4268L37.6797 24.4277C37.8129 24.4821 37.9092 24.622 37.9092 24.7764V53.2178C37.909 53.6559 37.5507 54.0135 37.1084 54.0098H30.2422C29.8034 54.0097 29.4446 53.6506 29.4443 53.2119V32.4805L29.4521 32.4092C29.4672 32.3379 29.5039 32.2676 29.5566 32.2148L29.5557 32.2139L37.2656 24.5107L37.2705 24.5068ZM30.2051 32.6396V53.2549H37.1543V25.6904L30.2051 32.6396Z" fill="white" stroke="white"/>
<path d="M50.8086 10.9746C50.9113 10.8694 51.0711 10.8353 51.2129 10.8945L51.2178 10.8955C51.351 10.9498 51.4473 11.0898 51.4473 11.2441V53.2178C51.4473 53.6271 51.1343 53.9677 50.7246 54.0059L50.6406 54.0098H43.7744C43.3356 54.0097 42.9766 53.6508 42.9766 53.2119V18.9482C42.9766 18.8551 43.0176 18.752 43.0879 18.6816L50.8037 10.9795L50.8086 10.9746ZM43.7373 19.1074V53.2549H50.6865V12.1582L43.7373 19.1074Z" fill="white" stroke="white"/>
<path d="M11.6738 0.933594C16.7938 0.933629 20.9629 5.10264 20.9629 10.2227C20.9628 15.3423 16.7941 19.5116 11.668 19.5117C6.548 19.5117 2.37902 15.3426 2.37891 10.2227C2.37891 5.10281 6.54758 0.933594 11.6738 0.933594ZM11.6738 1.69434C6.96921 1.69434 3.13965 5.5174 3.13965 10.2285C3.13968 14.9333 6.96899 18.7627 11.6738 18.7627C16.3786 18.7627 20.208 14.9333 20.208 10.2285C20.208 5.52368 16.3787 1.69437 11.6738 1.69434Z" fill="white" stroke="white"/>
<path d="M11.6738 5.62598C11.8805 5.62598 12.0516 5.79473 12.0518 6.00293V9.85059H15.8984C16.1052 9.8506 16.2753 10.0193 16.2754 10.2275C16.2754 10.4343 16.1068 10.6055 15.8984 10.6055H12.0518V14.4521C12.0517 14.659 11.8822 14.8291 11.6738 14.8291C11.4671 14.829 11.2969 14.6604 11.2969 14.4521V10.6055H7.44922C7.24102 10.6053 7.07227 10.4342 7.07227 10.2275C7.07236 10.0209 7.24108 9.85079 7.44922 9.85059H11.2969V6.00293C11.2971 5.79634 11.4657 5.62607 11.6738 5.62598Z" fill="white" stroke="white"/>
</svg>
