<svg width="85" height="83" viewBox="0 0 85 83" fill="none" xmlns="http://www.w3.org/2000/svg">
<mask id="path-1-inside-1_286_2967" fill="white">
<path d="M15.9023 65.5043V79.454C15.9023 79.7903 16.036 80.1129 16.2738 80.3507C16.5116 80.5885 16.8342 80.7221 17.1705 80.7221H67.8966C68.2329 80.7221 68.5555 80.5885 68.7933 80.3507C69.0311 80.1129 69.1647 79.7903 69.1647 79.454V65.5043C69.1608 64.0904 68.6844 62.7183 67.8113 61.6062C66.9381 60.4941 65.7183 59.7058 64.3458 59.3664C65.1374 58.5658 65.6744 57.5488 65.8894 56.4436C66.1043 55.3384 65.9875 54.1943 65.5537 53.1554C65.1199 52.1164 64.3884 51.2289 63.4514 50.6047C62.5143 49.9806 61.4136 49.6475 60.2877 49.6475C59.1617 49.6475 58.061 49.9806 57.1239 50.6047C56.1869 51.2289 55.4554 52.1164 55.0216 53.1554C54.5878 54.1943 54.471 55.3384 54.6859 56.4436C54.9009 57.5488 55.438 58.5658 56.2296 59.3664C55.3604 59.5866 54.5478 59.9885 53.8454 60.5458C53.5752 58.7808 52.6929 57.1671 51.3529 55.9871C50.0128 54.807 48.3005 54.1358 46.5155 54.0909C47.735 53.243 48.6519 52.0279 49.1327 50.6226C49.6136 49.2173 49.6333 47.6952 49.189 46.2779C48.7446 44.8607 47.8595 43.6223 46.6624 42.743C45.4653 41.8638 44.0188 41.3896 42.5335 41.3896C41.0483 41.3896 39.6018 41.8638 38.4047 42.743C37.2076 43.6223 36.3224 44.8607 35.8781 46.2779C35.4338 47.6952 35.4535 49.2173 35.9343 50.6226C36.4152 52.0279 37.3321 53.243 38.5515 54.0909C36.7684 54.1353 35.0576 54.8047 33.7178 55.9822C32.3781 57.1597 31.4946 58.7705 31.2216 60.5331C30.5192 59.9759 29.7066 59.5739 28.8375 59.3537C29.6291 58.5531 30.1662 57.5362 30.3811 56.431C30.5961 55.3258 30.4793 54.1817 30.0455 53.1427C29.6117 52.1037 28.8802 51.2163 27.9431 50.5921C27.0061 49.9679 25.9053 49.6348 24.7794 49.6348C23.6535 49.6348 22.5527 49.9679 21.6157 50.5921C20.6786 51.2163 19.9472 52.1037 19.5133 53.1427C19.0795 54.1817 18.9627 55.3258 19.1777 56.431C19.3926 57.5362 19.9297 58.5531 20.7213 59.3537C19.3466 59.6936 18.1253 60.4839 17.2519 61.5985C16.3785 62.7132 15.9034 64.0882 15.9023 65.5043ZM60.2877 52.1887C60.9147 52.1887 61.5277 52.3746 62.049 52.723C62.5704 53.0714 62.9768 53.5665 63.2167 54.1458C63.4567 54.7251 63.5195 55.3626 63.3971 55.9776C63.2748 56.5926 62.9729 57.1575 62.5295 57.6009C62.0861 58.0443 61.5212 58.3462 60.9062 58.4685C60.2912 58.5909 59.6537 58.5281 59.0744 58.2881C58.4951 58.0482 58 57.6418 57.6516 57.1204C57.3032 56.5991 57.1173 55.9861 57.1173 55.3591C57.1173 54.5182 57.4513 53.7118 58.0459 53.1173C58.6404 52.5227 59.4468 52.1887 60.2877 52.1887ZM57.7514 61.6998H62.824C63.833 61.6998 64.8006 62.1007 65.5141 62.8141C66.2276 63.5276 66.6284 64.4953 66.6284 65.5043V78.1858H53.9469V65.5043C53.9469 64.4953 54.3477 63.5276 55.0612 62.8141C55.7747 62.1007 56.7424 61.6998 57.7514 61.6998ZM42.5335 43.9457C43.4114 43.9457 44.2695 44.206 44.9995 44.6937C45.7294 45.1814 46.2983 45.8746 46.6342 46.6857C46.9701 47.4967 47.058 48.3892 46.8868 49.2501C46.7155 50.1111 46.2928 50.902 45.6721 51.5227C45.0513 52.1435 44.2604 52.5662 43.3995 52.7375C42.5385 52.9087 41.646 52.8208 40.835 52.4849C40.0239 52.149 39.3307 51.5801 38.843 50.8502C38.3553 50.1202 38.095 49.2621 38.095 48.3842C38.095 47.2071 38.5626 46.0781 39.395 45.2457C40.2274 44.4133 41.3564 43.9457 42.5335 43.9457ZM33.6565 61.6998C33.6565 60.3545 34.1909 59.0643 35.1422 58.113C36.0935 57.1617 37.3837 56.6272 38.7291 56.6272H40.8088L38.1584 65.1238C38.0938 65.3258 38.0808 65.5407 38.1207 65.749C38.1606 65.9572 38.252 66.1521 38.3867 66.3159L41.5571 70.1204C41.6761 70.264 41.8253 70.3796 41.994 70.4589C42.1628 70.5382 42.347 70.5794 42.5335 70.5794C42.72 70.5794 42.9042 70.5382 43.073 70.4589C43.2418 70.3796 43.391 70.264 43.51 70.1204L46.6804 66.3159C46.8151 66.1521 46.9065 65.9572 46.9464 65.749C46.9863 65.5407 46.9733 65.3258 46.9087 65.1238L44.2582 56.6272H46.338C47.6833 56.6272 48.9736 57.1617 49.9249 58.113C50.8762 59.0643 51.4106 60.3545 51.4106 61.6998V78.1858H33.6565V61.6998ZM42.5335 59.6074L44.2836 65.2253L42.5335 67.3304L40.7835 65.2253L42.5335 59.6074ZM24.7794 52.1887C25.4064 52.1887 26.0194 52.3746 26.5408 52.723C27.0621 53.0714 27.4685 53.5665 27.7085 54.1458C27.9484 54.7251 28.0112 55.3626 27.8889 55.9776C27.7665 56.5926 27.4646 57.1575 27.0212 57.6009C26.5778 58.0443 26.0129 58.3462 25.3979 58.4685C24.7829 58.5909 24.1455 58.5281 23.5662 58.2881C22.9868 58.0482 22.4917 57.6418 22.1433 57.1204C21.795 56.5991 21.609 55.9861 21.609 55.3591C21.609 54.5182 21.943 53.7118 22.5376 53.1173C23.1322 52.5227 23.9386 52.1887 24.7794 52.1887ZM18.4386 65.5043C18.4386 64.4953 18.8395 63.5276 19.5529 62.8141C20.2664 62.1007 21.2341 61.6998 22.2431 61.6998H27.3157C28.3247 61.6998 29.2924 62.1007 30.0059 62.8141C30.7193 63.5276 31.1202 64.4953 31.1202 65.5043V78.1858H18.4386V65.5043Z"/>
</mask>
<path d="M15.9023 65.5043V79.454C15.9023 79.7903 16.036 80.1129 16.2738 80.3507C16.5116 80.5885 16.8342 80.7221 17.1705 80.7221H67.8966C68.2329 80.7221 68.5555 80.5885 68.7933 80.3507C69.0311 80.1129 69.1647 79.7903 69.1647 79.454V65.5043C69.1608 64.0904 68.6844 62.7183 67.8113 61.6062C66.9381 60.4941 65.7183 59.7058 64.3458 59.3664C65.1374 58.5658 65.6744 57.5488 65.8894 56.4436C66.1043 55.3384 65.9875 54.1943 65.5537 53.1554C65.1199 52.1164 64.3884 51.2289 63.4514 50.6047C62.5143 49.9806 61.4136 49.6475 60.2877 49.6475C59.1617 49.6475 58.061 49.9806 57.1239 50.6047C56.1869 51.2289 55.4554 52.1164 55.0216 53.1554C54.5878 54.1943 54.471 55.3384 54.6859 56.4436C54.9009 57.5488 55.438 58.5658 56.2296 59.3664C55.3604 59.5866 54.5478 59.9885 53.8454 60.5458C53.5752 58.7808 52.6929 57.1671 51.3529 55.9871C50.0128 54.807 48.3005 54.1358 46.5155 54.0909C47.735 53.243 48.6519 52.0279 49.1327 50.6226C49.6136 49.2173 49.6333 47.6952 49.189 46.2779C48.7446 44.8607 47.8595 43.6223 46.6624 42.743C45.4653 41.8638 44.0188 41.3896 42.5335 41.3896C41.0483 41.3896 39.6018 41.8638 38.4047 42.743C37.2076 43.6223 36.3224 44.8607 35.8781 46.2779C35.4338 47.6952 35.4535 49.2173 35.9343 50.6226C36.4152 52.0279 37.3321 53.243 38.5515 54.0909C36.7684 54.1353 35.0576 54.8047 33.7178 55.9822C32.3781 57.1597 31.4946 58.7705 31.2216 60.5331C30.5192 59.9759 29.7066 59.5739 28.8375 59.3537C29.6291 58.5531 30.1662 57.5362 30.3811 56.431C30.5961 55.3258 30.4793 54.1817 30.0455 53.1427C29.6117 52.1037 28.8802 51.2163 27.9431 50.5921C27.0061 49.9679 25.9053 49.6348 24.7794 49.6348C23.6535 49.6348 22.5527 49.9679 21.6157 50.5921C20.6786 51.2163 19.9472 52.1037 19.5133 53.1427C19.0795 54.1817 18.9627 55.3258 19.1777 56.431C19.3926 57.5362 19.9297 58.5531 20.7213 59.3537C19.3466 59.6936 18.1253 60.4839 17.2519 61.5985C16.3785 62.7132 15.9034 64.0882 15.9023 65.5043ZM60.2877 52.1887C60.9147 52.1887 61.5277 52.3746 62.049 52.723C62.5704 53.0714 62.9768 53.5665 63.2167 54.1458C63.4567 54.7251 63.5195 55.3626 63.3971 55.9776C63.2748 56.5926 62.9729 57.1575 62.5295 57.6009C62.0861 58.0443 61.5212 58.3462 60.9062 58.4685C60.2912 58.5909 59.6537 58.5281 59.0744 58.2881C58.4951 58.0482 58 57.6418 57.6516 57.1204C57.3032 56.5991 57.1173 55.9861 57.1173 55.3591C57.1173 54.5182 57.4513 53.7118 58.0459 53.1173C58.6404 52.5227 59.4468 52.1887 60.2877 52.1887ZM57.7514 61.6998H62.824C63.833 61.6998 64.8006 62.1007 65.5141 62.8141C66.2276 63.5276 66.6284 64.4953 66.6284 65.5043V78.1858H53.9469V65.5043C53.9469 64.4953 54.3477 63.5276 55.0612 62.8141C55.7747 62.1007 56.7424 61.6998 57.7514 61.6998ZM42.5335 43.9457C43.4114 43.9457 44.2695 44.206 44.9995 44.6937C45.7294 45.1814 46.2983 45.8746 46.6342 46.6857C46.9701 47.4967 47.058 48.3892 46.8868 49.2501C46.7155 50.1111 46.2928 50.902 45.6721 51.5227C45.0513 52.1435 44.2604 52.5662 43.3995 52.7375C42.5385 52.9087 41.646 52.8208 40.835 52.4849C40.0239 52.149 39.3307 51.5801 38.843 50.8502C38.3553 50.1202 38.095 49.2621 38.095 48.3842C38.095 47.2071 38.5626 46.0781 39.395 45.2457C40.2274 44.4133 41.3564 43.9457 42.5335 43.9457ZM33.6565 61.6998C33.6565 60.3545 34.1909 59.0643 35.1422 58.113C36.0935 57.1617 37.3837 56.6272 38.7291 56.6272H40.8088L38.1584 65.1238C38.0938 65.3258 38.0808 65.5407 38.1207 65.749C38.1606 65.9572 38.252 66.1521 38.3867 66.3159L41.5571 70.1204C41.6761 70.264 41.8253 70.3796 41.994 70.4589C42.1628 70.5382 42.347 70.5794 42.5335 70.5794C42.72 70.5794 42.9042 70.5382 43.073 70.4589C43.2418 70.3796 43.391 70.264 43.51 70.1204L46.6804 66.3159C46.8151 66.1521 46.9065 65.9572 46.9464 65.749C46.9863 65.5407 46.9733 65.3258 46.9087 65.1238L44.2582 56.6272H46.338C47.6833 56.6272 48.9736 57.1617 49.9249 58.113C50.8762 59.0643 51.4106 60.3545 51.4106 61.6998V78.1858H33.6565V61.6998ZM42.5335 59.6074L44.2836 65.2253L42.5335 67.3304L40.7835 65.2253L42.5335 59.6074ZM24.7794 52.1887C25.4064 52.1887 26.0194 52.3746 26.5408 52.723C27.0621 53.0714 27.4685 53.5665 27.7085 54.1458C27.9484 54.7251 28.0112 55.3626 27.8889 55.9776C27.7665 56.5926 27.4646 57.1575 27.0212 57.6009C26.5778 58.0443 26.0129 58.3462 25.3979 58.4685C24.7829 58.5909 24.1455 58.5281 23.5662 58.2881C22.9868 58.0482 22.4917 57.6418 22.1433 57.1204C21.795 56.5991 21.609 55.9861 21.609 55.3591C21.609 54.5182 21.943 53.7118 22.5376 53.1173C23.1322 52.5227 23.9386 52.1887 24.7794 52.1887ZM18.4386 65.5043C18.4386 64.4953 18.8395 63.5276 19.5529 62.8141C20.2664 62.1007 21.2341 61.6998 22.2431 61.6998H27.3157C28.3247 61.6998 29.2924 62.1007 30.0059 62.8141C30.7193 63.5276 31.1202 64.4953 31.1202 65.5043V78.1858H18.4386V65.5043Z" fill="white" stroke="#8A7A9F" stroke-width="0.559464" mask="url(#path-1-inside-1_286_2967)"/>
<path d="M12.0977 2.23633H72.9688C75.286 2.23633 77.5089 3.15736 79.1475 4.7959C80.7858 6.43439 81.706 8.65655 81.7061 10.9736V54.0908C81.7061 56.4081 80.786 58.631 79.1475 60.2695C77.5089 61.908 75.286 62.8281 72.9688 62.8281H71.7012C71.4021 62.8281 71.1149 62.7094 70.9033 62.498C70.6918 62.2865 70.5724 61.9993 70.5723 61.7002C70.5723 61.401 70.6918 61.1139 70.9033 60.9023C71.1149 60.6908 71.4019 60.5713 71.7012 60.5713H72.9688C74.6875 60.5713 76.3364 59.8891 77.5518 58.6738C78.7671 57.4585 79.4492 55.8096 79.4492 54.0908V10.9736C79.4492 9.25504 78.7669 7.6069 77.5518 6.3916C76.3364 5.17625 74.6875 4.49316 72.9688 4.49316H12.0977C10.3789 4.49319 8.73095 5.17627 7.51562 6.3916C6.3003 7.60693 5.61722 9.2549 5.61719 10.9736V54.0938C5.62768 54.6947 5.71963 55.2917 5.88965 55.8682L5.95508 56.0918L6.12109 55.9277L7.88281 54.1904L7.88379 54.1914C8.84731 53.2532 9.72045 52.4177 10.5801 51.6592L10.583 51.6562C12.9092 49.4496 15.3783 47.398 17.9746 45.5166C22.3327 42.4992 27 39.9551 31.8965 37.9248L31.8994 37.9229C33.4728 37.2306 35.1606 36.6131 37.0645 35.9697H37.1924L37.2139 35.9619C42.8824 34.0561 48.2941 31.4577 53.3252 28.2246V28.2236C57.9439 25.2514 62.2071 21.7598 66.0312 17.8174L66.1318 17.7148L66.0254 17.6172L62.3857 14.2822C62.2379 14.1403 62.1316 13.9606 62.0781 13.7627C62.0247 13.565 62.026 13.3561 62.082 13.1592C62.1465 12.9551 62.2679 12.7736 62.4316 12.6357C62.5953 12.498 62.7948 12.4086 63.0068 12.3799L72.8223 11.1123C72.9867 11.091 73.1537 11.1066 73.3115 11.1572C73.4299 11.1952 73.5413 11.2523 73.6406 11.3262L73.7363 11.4062C73.8585 11.519 73.9542 11.6574 74.0166 11.8115C74.0789 11.9654 74.1067 12.1311 74.0977 12.2969L73.5273 22.2266L73.5264 22.2285C73.5166 22.4434 73.4462 22.6513 73.3223 22.8271C73.1987 23.0025 73.0275 23.1391 72.8291 23.2207C72.7268 23.2612 72.619 23.2866 72.5098 23.2959L72.4004 23.2998H72.3975C72.1495 23.3016 71.9087 23.2219 71.7119 23.0742L71.6299 23.0068L67.8262 19.4814L67.7266 19.3887L67.6309 19.4873C63.6774 23.5768 59.2642 27.1956 54.4795 30.2715C49.299 33.6083 43.7241 36.2888 37.8828 38.251H37.7549L37.7334 38.2588C35.8922 38.881 34.2401 39.5032 32.7148 40.1514C28.256 42.0107 23.9939 44.3092 19.9922 47.0127L19.1953 47.5596C16.6817 49.3232 14.2798 51.2415 12.0039 53.3027L12.001 53.3047C11.2282 54.0395 10.3768 54.84 9.46191 55.7676L7.17969 58.0635L7.08984 58.1533L7.17188 58.252C7.77536 58.9726 8.52858 59.5536 9.37891 59.9541C10.2293 60.3546 11.1567 60.5649 12.0967 60.5713H13.3662C13.6653 60.5714 13.9525 60.6908 14.1641 60.9023C14.3754 61.1139 14.4941 61.4011 14.4941 61.7002C14.494 61.9993 14.3756 62.2865 14.1641 62.498C13.9525 62.7095 13.6653 62.828 13.3662 62.8281H12.0977C9.78063 62.8281 7.5584 61.9078 5.91992 60.2695C4.28138 58.631 3.36035 56.4081 3.36035 54.0908V10.9736C3.36038 8.65642 4.28141 6.43442 5.91992 4.7959C7.55844 3.15738 9.78045 2.23636 12.0977 2.23633ZM71.6064 13.5615L65.9883 14.3223L65.6924 14.3623L65.9121 14.5645L71.2637 19.4717L71.4844 19.6738L71.498 19.375L71.7646 13.707L71.7725 13.5391L71.6064 13.5615Z" fill="white" stroke="#8A7A9F" stroke-width="0.279732"/>
<mask id="path-3-inside-2_286_2967" fill="white">
<path d="M36.6622 23.7701C36.8421 23.6767 36.997 23.5417 37.1139 23.3762C37.2309 23.2107 37.3065 23.0196 37.3343 22.8189C37.504 21.6924 37.504 20.5468 37.3343 19.4203C37.3065 19.2196 37.2309 19.0285 37.1139 18.863C36.997 18.6975 36.8421 18.5625 36.6622 18.4692L35.5589 17.8985C35.3332 17.1671 35.0403 16.4581 34.6839 15.7807L35.0644 14.6013C35.1244 14.4207 35.1431 14.2289 35.119 14.0401C35.0948 13.8513 35.0285 13.6704 34.9249 13.5107C34.2365 12.6004 33.4257 11.7896 32.5154 11.1012C32.3535 10.9771 32.1641 10.8938 31.9632 10.8585C31.7623 10.8232 31.5558 10.8368 31.3614 10.8983L30.182 11.2788C29.5046 10.9224 28.7956 10.6294 28.0642 10.4037L27.4935 9.30044C27.4002 9.12057 27.2651 8.96568 27.0997 8.84874C26.9342 8.7318 26.7431 8.65622 26.5424 8.62832C25.4165 8.45072 24.2696 8.45072 23.1437 8.62832C22.943 8.65622 22.7519 8.7318 22.5865 8.84874C22.421 8.96568 22.2859 9.12057 22.1926 9.30044L21.6219 10.4037C20.8905 10.6294 20.1816 10.9224 19.5041 11.2788L18.3248 10.8983C18.1303 10.8368 17.9238 10.8232 17.7229 10.8585C17.522 10.8938 17.3326 10.9771 17.1707 11.1012C16.2634 11.793 15.453 12.6034 14.7612 13.5107C14.6371 13.6726 14.5538 13.862 14.5185 14.0629C14.4832 14.2638 14.4969 14.4702 14.5583 14.6647L14.9388 15.8441C14.5845 16.5181 14.2916 17.2227 14.0638 17.9492L12.9605 18.5326C12.7806 18.6259 12.6257 18.7609 12.5088 18.9264C12.3918 19.0919 12.3162 19.283 12.2883 19.4837C12.1187 20.6102 12.1187 21.7558 12.2883 22.8823C12.3162 23.083 12.3918 23.2741 12.5088 23.4396C12.6257 23.6051 12.7806 23.7402 12.9605 23.8335L14.0638 24.4041C14.2895 25.1356 14.5824 25.8445 14.9388 26.5219L14.5583 27.7013C14.4969 27.8958 14.4832 28.1023 14.5185 28.3032C14.5538 28.5041 14.6371 28.6935 14.7612 28.8553C15.4496 29.7656 16.2604 30.5765 17.1707 31.2648C17.3326 31.389 17.522 31.4722 17.7229 31.5076C17.9238 31.5429 18.1303 31.5292 18.3248 31.4677L19.5041 31.0873C20.1816 31.4437 20.8905 31.7366 21.6219 31.9623L22.1926 33.0656C22.2859 33.2455 22.421 33.4004 22.5865 33.5173C22.7519 33.6342 22.943 33.7098 23.1437 33.7377C24.2703 33.9073 25.4158 33.9073 26.5424 33.7377C26.7431 33.7098 26.9342 33.6342 27.0997 33.5173C27.2651 33.4004 27.4002 33.2455 27.4935 33.0656L28.0642 31.9623C28.7956 31.7366 29.5046 31.4437 30.182 31.0873L31.3614 31.4677C31.5558 31.5292 31.7623 31.5429 31.9632 31.5076C32.1641 31.4722 32.3535 31.389 32.5154 31.2648C33.4257 30.5765 34.2365 29.7656 34.9249 28.8553C35.049 28.6935 35.1323 28.5041 35.1676 28.3032C35.2029 28.1023 35.1892 27.8958 35.1278 27.7013L34.7473 26.5219C35.1037 25.8445 35.3966 25.1356 35.6223 24.4041L36.6622 23.7701ZM34.9249 21.8298L33.923 22.3497C33.7603 22.4317 33.6172 22.5478 33.5035 22.69C33.3897 22.8322 33.3078 22.9973 33.2636 23.174C33.0594 24.0471 32.7169 24.882 32.2491 25.6469C32.1551 25.8012 32.0951 25.9738 32.0733 26.1532C32.0514 26.3325 32.0681 26.5144 32.1222 26.6868L32.4646 27.7521C32.1491 28.1161 31.8102 28.4592 31.4501 28.7793L30.3722 28.4369C30.1998 28.3827 30.0179 28.366 29.8385 28.3879C29.6592 28.4097 29.4866 28.4697 29.3323 28.5637C28.5674 29.0315 27.7325 29.374 26.8594 29.5782C26.6827 29.6225 26.5176 29.7043 26.3754 29.8181C26.2331 29.9319 26.1171 30.075 26.0351 30.2376L25.5152 31.2395C25.0425 31.2774 24.5675 31.2774 24.0948 31.2395L23.5115 30.2376C23.4295 30.075 23.3135 29.9319 23.1712 29.8181C23.029 29.7043 22.8639 29.6225 22.6872 29.5782C21.8141 29.374 20.9792 29.0315 20.2143 28.5637C20.06 28.4697 19.8874 28.4097 19.7081 28.3879C19.5287 28.366 19.3468 28.3827 19.1744 28.4369L18.1092 28.7793C17.7451 28.4637 17.402 28.1248 17.082 27.7647L17.4244 26.6868C17.4785 26.5144 17.4952 26.3325 17.4734 26.1532C17.4515 25.9738 17.3915 25.8012 17.2975 25.6469C16.8297 24.882 16.4872 24.0471 16.283 23.174C16.2388 22.9973 16.1569 22.8322 16.0432 22.69C15.9294 22.5478 15.7863 22.4317 15.6236 22.3497L14.6344 21.8298C14.6344 21.5762 14.6344 21.3479 14.6344 21.1196C14.6344 20.8913 14.6344 20.6631 14.6344 20.4095L15.6363 19.8895C15.7989 19.8075 15.942 19.6915 16.0558 19.5492C16.1696 19.407 16.2514 19.2419 16.2957 19.0652C16.4934 18.1701 16.8361 17.3134 17.3102 16.5289C17.4042 16.3746 17.4642 16.202 17.486 16.0227C17.5079 15.8433 17.4912 15.6614 17.437 15.489L17.1707 14.4745C17.4896 14.1176 17.8283 13.7789 18.1853 13.46L19.2632 13.8024C19.4355 13.8565 19.6175 13.8732 19.7968 13.8514C19.9762 13.8295 20.1488 13.7696 20.3031 13.6756C21.068 13.2077 21.9028 12.8652 22.776 12.661C22.9364 12.6059 23.0842 12.5192 23.2106 12.4059C23.3369 12.2926 23.4392 12.1551 23.5115 12.0016L24.0695 10.9744C24.5422 10.9365 25.0171 10.9365 25.4898 10.9744L26.0098 11.9762C26.0917 12.1389 26.2078 12.282 26.35 12.3958C26.4923 12.5096 26.6574 12.5914 26.8341 12.6357C27.7072 12.8398 28.542 13.1823 29.3069 13.6502C29.4612 13.7442 29.6338 13.8041 29.8132 13.826C29.9925 13.8479 30.1745 13.8312 30.3468 13.777L31.4121 13.4346C31.7761 13.7501 32.1193 14.089 32.4393 14.4491L32.0969 15.5271C32.0427 15.6994 32.026 15.8814 32.0479 16.0607C32.0698 16.2401 32.1297 16.4127 32.2237 16.567C32.6979 17.3514 33.0406 18.2082 33.2382 19.1033C33.2825 19.28 33.3643 19.445 33.4781 19.5873C33.5919 19.7295 33.735 19.8456 33.8977 19.9276L34.8995 20.4475C34.8995 20.7011 34.8995 20.9294 34.8995 21.1577C34.8995 21.3859 34.9249 21.5762 34.9249 21.8298Z"/>
</mask>
<path d="M36.6622 23.7701C36.8421 23.6767 36.997 23.5417 37.1139 23.3762C37.2309 23.2107 37.3065 23.0196 37.3343 22.8189C37.504 21.6924 37.504 20.5468 37.3343 19.4203C37.3065 19.2196 37.2309 19.0285 37.1139 18.863C36.997 18.6975 36.8421 18.5625 36.6622 18.4692L35.5589 17.8985C35.3332 17.1671 35.0403 16.4581 34.6839 15.7807L35.0644 14.6013C35.1244 14.4207 35.1431 14.2289 35.119 14.0401C35.0948 13.8513 35.0285 13.6704 34.9249 13.5107C34.2365 12.6004 33.4257 11.7896 32.5154 11.1012C32.3535 10.9771 32.1641 10.8938 31.9632 10.8585C31.7623 10.8232 31.5558 10.8368 31.3614 10.8983L30.182 11.2788C29.5046 10.9224 28.7956 10.6294 28.0642 10.4037L27.4935 9.30044C27.4002 9.12057 27.2651 8.96568 27.0997 8.84874C26.9342 8.7318 26.7431 8.65622 26.5424 8.62832C25.4165 8.45072 24.2696 8.45072 23.1437 8.62832C22.943 8.65622 22.7519 8.7318 22.5865 8.84874C22.421 8.96568 22.2859 9.12057 22.1926 9.30044L21.6219 10.4037C20.8905 10.6294 20.1816 10.9224 19.5041 11.2788L18.3248 10.8983C18.1303 10.8368 17.9238 10.8232 17.7229 10.8585C17.522 10.8938 17.3326 10.9771 17.1707 11.1012C16.2634 11.793 15.453 12.6034 14.7612 13.5107C14.6371 13.6726 14.5538 13.862 14.5185 14.0629C14.4832 14.2638 14.4969 14.4702 14.5583 14.6647L14.9388 15.8441C14.5845 16.5181 14.2916 17.2227 14.0638 17.9492L12.9605 18.5326C12.7806 18.6259 12.6257 18.7609 12.5088 18.9264C12.3918 19.0919 12.3162 19.283 12.2883 19.4837C12.1187 20.6102 12.1187 21.7558 12.2883 22.8823C12.3162 23.083 12.3918 23.2741 12.5088 23.4396C12.6257 23.6051 12.7806 23.7402 12.9605 23.8335L14.0638 24.4041C14.2895 25.1356 14.5824 25.8445 14.9388 26.5219L14.5583 27.7013C14.4969 27.8958 14.4832 28.1023 14.5185 28.3032C14.5538 28.5041 14.6371 28.6935 14.7612 28.8553C15.4496 29.7656 16.2604 30.5765 17.1707 31.2648C17.3326 31.389 17.522 31.4722 17.7229 31.5076C17.9238 31.5429 18.1303 31.5292 18.3248 31.4677L19.5041 31.0873C20.1816 31.4437 20.8905 31.7366 21.6219 31.9623L22.1926 33.0656C22.2859 33.2455 22.421 33.4004 22.5865 33.5173C22.7519 33.6342 22.943 33.7098 23.1437 33.7377C24.2703 33.9073 25.4158 33.9073 26.5424 33.7377C26.7431 33.7098 26.9342 33.6342 27.0997 33.5173C27.2651 33.4004 27.4002 33.2455 27.4935 33.0656L28.0642 31.9623C28.7956 31.7366 29.5046 31.4437 30.182 31.0873L31.3614 31.4677C31.5558 31.5292 31.7623 31.5429 31.9632 31.5076C32.1641 31.4722 32.3535 31.389 32.5154 31.2648C33.4257 30.5765 34.2365 29.7656 34.9249 28.8553C35.049 28.6935 35.1323 28.5041 35.1676 28.3032C35.2029 28.1023 35.1892 27.8958 35.1278 27.7013L34.7473 26.5219C35.1037 25.8445 35.3966 25.1356 35.6223 24.4041L36.6622 23.7701ZM34.9249 21.8298L33.923 22.3497C33.7603 22.4317 33.6172 22.5478 33.5035 22.69C33.3897 22.8322 33.3078 22.9973 33.2636 23.174C33.0594 24.0471 32.7169 24.882 32.2491 25.6469C32.1551 25.8012 32.0951 25.9738 32.0733 26.1532C32.0514 26.3325 32.0681 26.5144 32.1222 26.6868L32.4646 27.7521C32.1491 28.1161 31.8102 28.4592 31.4501 28.7793L30.3722 28.4369C30.1998 28.3827 30.0179 28.366 29.8385 28.3879C29.6592 28.4097 29.4866 28.4697 29.3323 28.5637C28.5674 29.0315 27.7325 29.374 26.8594 29.5782C26.6827 29.6225 26.5176 29.7043 26.3754 29.8181C26.2331 29.9319 26.1171 30.075 26.0351 30.2376L25.5152 31.2395C25.0425 31.2774 24.5675 31.2774 24.0948 31.2395L23.5115 30.2376C23.4295 30.075 23.3135 29.9319 23.1712 29.8181C23.029 29.7043 22.8639 29.6225 22.6872 29.5782C21.8141 29.374 20.9792 29.0315 20.2143 28.5637C20.06 28.4697 19.8874 28.4097 19.7081 28.3879C19.5287 28.366 19.3468 28.3827 19.1744 28.4369L18.1092 28.7793C17.7451 28.4637 17.402 28.1248 17.082 27.7647L17.4244 26.6868C17.4785 26.5144 17.4952 26.3325 17.4734 26.1532C17.4515 25.9738 17.3915 25.8012 17.2975 25.6469C16.8297 24.882 16.4872 24.0471 16.283 23.174C16.2388 22.9973 16.1569 22.8322 16.0432 22.69C15.9294 22.5478 15.7863 22.4317 15.6236 22.3497L14.6344 21.8298C14.6344 21.5762 14.6344 21.3479 14.6344 21.1196C14.6344 20.8913 14.6344 20.6631 14.6344 20.4095L15.6363 19.8895C15.7989 19.8075 15.942 19.6915 16.0558 19.5492C16.1696 19.407 16.2514 19.2419 16.2957 19.0652C16.4934 18.1701 16.8361 17.3134 17.3102 16.5289C17.4042 16.3746 17.4642 16.202 17.486 16.0227C17.5079 15.8433 17.4912 15.6614 17.437 15.489L17.1707 14.4745C17.4896 14.1176 17.8283 13.7789 18.1853 13.46L19.2632 13.8024C19.4355 13.8565 19.6175 13.8732 19.7968 13.8514C19.9762 13.8295 20.1488 13.7696 20.3031 13.6756C21.068 13.2077 21.9028 12.8652 22.776 12.661C22.9364 12.6059 23.0842 12.5192 23.2106 12.4059C23.3369 12.2926 23.4392 12.1551 23.5115 12.0016L24.0695 10.9744C24.5422 10.9365 25.0171 10.9365 25.4898 10.9744L26.0098 11.9762C26.0917 12.1389 26.2078 12.282 26.35 12.3958C26.4923 12.5096 26.6574 12.5914 26.8341 12.6357C27.7072 12.8398 28.542 13.1823 29.3069 13.6502C29.4612 13.7442 29.6338 13.8041 29.8132 13.826C29.9925 13.8479 30.1745 13.8312 30.3468 13.777L31.4121 13.4346C31.7761 13.7501 32.1193 14.089 32.4393 14.4491L32.0969 15.5271C32.0427 15.6994 32.026 15.8814 32.0479 16.0607C32.0698 16.2401 32.1297 16.4127 32.2237 16.567C32.6979 17.3514 33.0406 18.2082 33.2382 19.1033C33.2825 19.28 33.3643 19.445 33.4781 19.5873C33.5919 19.7295 33.735 19.8456 33.8977 19.9276L34.8995 20.4475C34.8995 20.7011 34.8995 20.9294 34.8995 21.1577C34.8995 21.3859 34.9249 21.5762 34.9249 21.8298Z" fill="white" stroke="#8A7A9F" stroke-width="0.559464" mask="url(#path-3-inside-2_286_2967)"/>
<path d="M24.7798 15.4258C26.2897 15.4259 27.7375 16.0261 28.8052 17.0938C29.8729 18.1615 30.4731 19.6101 30.4731 21.1201C30.473 22.246 30.1387 23.347 29.5132 24.2832C28.8876 25.2193 27.9986 25.949 26.9585 26.3799C25.9181 26.8108 24.7729 26.9238 23.6685 26.7041C22.564 26.4844 21.5497 25.9418 20.7534 25.1455C19.9572 24.3492 19.4145 23.3349 19.1948 22.2305C18.9751 21.126 19.0881 19.9808 19.519 18.9404C19.9499 17.9003 20.6797 17.0113 21.6157 16.3857C22.552 15.7601 23.6537 15.4258 24.7798 15.4258ZM26.0942 17.9443C25.4663 17.6843 24.7755 17.6164 24.1089 17.749C23.4422 17.8816 22.8298 18.2088 22.3491 18.6895C21.8684 19.1701 21.5413 19.7825 21.4087 20.4492C21.2761 21.1158 21.344 21.8066 21.604 22.4346C21.8641 23.0626 22.3044 23.5999 22.8696 23.9775C23.3641 24.3079 23.9347 24.5031 24.5249 24.5469L24.7798 24.5566C25.6901 24.5532 26.5618 24.1896 27.2056 23.5459C27.8493 22.9022 28.2128 22.0305 28.2163 21.1201L28.2065 20.8652C28.1627 20.275 27.9676 19.7044 27.6372 19.21C27.2595 18.6448 26.7223 18.2045 26.0942 17.9443Z" fill="white" stroke="#8A7A9F" stroke-width="0.279732"/>
<path d="M41.2656 16.1865H51.4102C51.7094 16.1865 51.9964 16.306 52.208 16.5176C52.4196 16.7292 52.5391 17.0162 52.5391 17.3154C52.539 17.6145 52.4195 17.9018 52.208 18.1133C51.9964 18.3247 51.7092 18.4434 51.4102 18.4434H41.2656C40.9666 18.4434 40.6793 18.3246 40.4678 18.1133C40.2563 17.9018 40.1368 17.6145 40.1367 17.3154C40.1367 17.0162 40.2562 16.7292 40.4678 16.5176C40.6794 16.306 40.9664 16.1865 41.2656 16.1865Z" fill="white" stroke="#8A7A9F" stroke-width="0.279732"/>
<path d="M47.6064 23.7959H51.4102C51.7094 23.7959 51.9964 23.9154 52.208 24.127C52.4196 24.3385 52.5391 24.6256 52.5391 24.9248C52.539 25.2239 52.4195 25.5112 52.208 25.7227C51.9964 25.934 51.7092 26.0527 51.4102 26.0527H47.6064C47.3074 26.0527 47.0201 25.934 46.8086 25.7227C46.5971 25.5112 46.4776 25.2239 46.4775 24.9248C46.4775 24.6256 46.597 24.3385 46.8086 24.127C47.0202 23.9154 47.3072 23.7959 47.6064 23.7959Z" fill="white" stroke="#8A7A9F" stroke-width="0.279732"/>
<path d="M41.2656 23.7959H42.5332C42.8324 23.7959 43.1195 23.9154 43.3311 24.127C43.5426 24.3385 43.6621 24.6256 43.6621 24.9248C43.662 25.2239 43.5426 25.5112 43.3311 25.7227C43.1195 25.9341 42.8323 26.0527 42.5332 26.0527H41.2656C40.9666 26.0527 40.6793 25.934 40.4678 25.7227C40.2563 25.5112 40.1368 25.2239 40.1367 24.9248C40.1367 24.6256 40.2562 24.3385 40.4678 24.127C40.6794 23.9154 40.9664 23.7959 41.2656 23.7959Z" fill="white" stroke="#8A7A9F" stroke-width="0.279732"/>
<path d="M69.165 32.6719H74.2373C74.5365 32.6719 74.8236 32.7913 75.0352 33.0029C75.2466 33.2145 75.3652 33.5016 75.3652 33.8008C75.3651 34.0999 75.2467 34.3871 75.0352 34.5986C74.8236 34.8101 74.5364 34.9287 74.2373 34.9287H69.165C68.866 34.9287 68.5787 34.81 68.3672 34.5986C68.1557 34.3871 68.0362 34.0999 68.0361 33.8008C68.0361 33.5015 68.1556 33.2145 68.3672 33.0029C68.5788 32.7913 68.8658 32.6719 69.165 32.6719Z" fill="white" stroke="#8A7A9F" stroke-width="0.279732"/>
<path d="M59.02 32.6719H64.0923C64.3915 32.6719 64.6786 32.7913 64.8901 33.0029C65.1016 33.2145 65.2202 33.5016 65.2202 33.8008C65.2201 34.0999 65.1016 34.3871 64.8901 34.5986C64.6786 34.8101 64.3914 34.9287 64.0923 34.9287H59.02C58.721 34.9287 58.4337 34.81 58.2222 34.5986C58.0107 34.3871 57.8912 34.0999 57.8911 33.8008C57.8911 33.5015 58.0106 33.2145 58.2222 33.0029C58.4338 32.7913 58.7208 32.6719 59.02 32.6719Z" fill="white" stroke="#8A7A9F" stroke-width="0.279732"/>
<path d="M59.02 40.2812H67.897C68.1961 40.2813 68.4833 40.4008 68.6948 40.6123C68.9062 40.8239 69.0249 41.1111 69.0249 41.4102C69.0248 41.7093 68.9063 41.9965 68.6948 42.208C68.4833 42.4195 68.1961 42.538 67.897 42.5381H59.02C58.721 42.5381 58.4337 42.4194 58.2222 42.208C58.0107 41.9965 57.8912 41.7093 57.8911 41.4102C57.8911 41.1109 58.0106 40.8239 58.2222 40.6123C58.4338 40.4007 58.7208 40.2812 59.02 40.2812Z" fill="white" stroke="#8A7A9F" stroke-width="0.279732"/>
<path d="M72.9697 40.2812H74.2373C74.5365 40.2812 74.8236 40.4007 75.0352 40.6123C75.2467 40.8239 75.3662 41.111 75.3662 41.4102C75.3661 41.7093 75.2467 41.9965 75.0352 42.208C74.8236 42.4194 74.5364 42.5381 74.2373 42.5381H72.9697C72.6707 42.5381 72.3834 42.4194 72.1719 42.208C71.9604 41.9965 71.8409 41.7093 71.8408 41.4102C71.8408 41.1109 71.9603 40.8239 72.1719 40.6123C72.3835 40.4007 72.6705 40.2812 72.9697 40.2812Z" fill="white" stroke="#8A7A9F" stroke-width="0.279732"/>
</svg>
