<svg width="91" height="91" viewBox="0 0 91 91" fill="none" xmlns="http://www.w3.org/2000/svg">
<mask id="path-1-inside-1_286_3028" fill="white">
<path fill-rule="evenodd" clip-rule="evenodd" d="M56.1603 60.7182L54.4943 57.8325C52.1414 53.7569 52.6725 51.7047 53.1956 49.684C53.5635 48.263 53.9258 46.8631 52.3187 44.0794C50.8697 41.5695 48.3053 40.0115 45.5034 39.8023L49.882 44.1809C50.2645 44.5634 50.3775 45.1131 50.2214 45.5947L48.7454 51.1032C48.6108 51.6067 48.2162 51.9712 47.7445 52.0912L42.1818 53.5816C41.6854 53.7143 41.18 53.5606 40.8408 53.2219L40.8398 53.223L36.2604 48.6435C36.3011 50.046 36.682 51.4325 37.4076 52.6894C39.0156 55.4743 40.4071 55.8599 41.8196 56.2513C43.8332 56.8092 45.8777 57.3758 48.2302 61.4503L49.463 63.591C51.9027 63.0704 54.1683 62.08 56.1603 60.7182ZM14.1972 43.7037V29.8453H13.0035V43.7037H14.1972ZM16.9787 29.8453V43.7037H18.1721V29.8453H16.9787ZM16.7839 21.2793L20.7252 27.6904C20.8696 27.9096 20.9538 28.1723 20.9538 28.4545V43.7037H25.197C25.965 43.7037 26.5878 44.3265 26.5878 45.0945C26.5878 55.9191 35.6554 64.5416 46.49 63.9813L45.8285 62.8408C44.0408 59.7443 42.5493 59.3309 41.0804 58.9241C39.1148 58.3794 37.1783 57.8427 35.0059 54.0801C34.2181 52.7157 33.7444 51.2597 33.5624 49.7948C33.3774 48.3068 33.4932 46.8037 33.8863 45.3737C34.1672 44.2181 35.4968 43.9468 36.2299 44.6799L42.24 50.6898L46.2692 49.6101L47.3488 45.581L41.442 39.6742L41.4432 39.673C40.6898 38.9211 41.0314 37.6088 42.0886 37.3435C46.9889 36.1139 52.164 38.2721 54.7201 42.6994C56.8933 46.4634 56.3901 48.4068 55.8795 50.3794C55.4971 51.8568 55.1089 53.3572 56.8959 56.4524L58.3501 58.9714C62.0918 55.5058 64.4129 50.5618 64.4129 45.0945C64.4129 44.3265 65.0356 43.7037 65.8037 43.7037H85.4861C86.2542 43.7037 86.877 44.3265 86.877 45.0945V51.6164C86.877 52.3845 86.2542 53.0072 85.4861 53.0072H80.2716C79.3794 56.9399 77.8155 60.7005 75.6825 64.087L79.3695 67.774C79.9126 68.3171 79.9126 69.1977 79.3695 69.7408L70.1463 78.964C69.6032 79.5071 68.7227 79.5071 68.1795 78.964L64.4925 75.2769C61.1064 77.4099 57.3453 78.9741 53.4128 79.8661V85.0806C53.4128 85.8487 52.79 86.4714 52.0219 86.4714H38.9784C38.2103 86.4714 37.5876 85.8487 37.5876 85.0806V79.8661C33.655 78.9741 29.8943 77.4097 26.508 75.2769L22.8209 78.9641C22.2778 79.5073 21.3973 79.5073 20.8542 78.9641L11.631 69.741C11.0879 69.1978 11.0879 68.3173 11.631 67.7742L15.318 64.0871C13.185 60.701 11.6209 56.9399 10.7289 53.0074H5.51435C4.74627 53.0074 4.12354 52.3847 4.12354 51.6166V45.0949C4.12354 44.3268 4.74627 43.7041 5.51435 43.7041H10.2219V28.4548C10.2219 28.1735 10.3001 27.9272 10.4505 27.6908L14.4036 21.2607C14.9559 20.3619 16.2579 20.3902 16.7839 21.2793ZM16.391 25.9495L15.5878 24.643L14.0995 27.0638H17.076L16.391 25.9495ZM74.8283 12.1708C75.4672 12.2965 75.9493 12.8596 75.9493 13.5354V25.5402L77.9034 27.1374C78.239 27.4119 78.413 27.8109 78.4132 28.2132L78.414 40.0926C78.414 41.2512 77.0517 41.9395 76.1058 41.1378L74.5531 39.8689L72.9681 41.1575C72.0517 41.9024 70.7063 41.2145 70.707 40.0819H70.7027V28.2024C70.7027 27.7273 70.941 27.3079 71.3045 27.0571L73.1675 25.5425V15.3817L67.5116 17.022V29.9533H67.5073C67.508 30.5989 67.0551 31.1775 66.3979 31.3116L45.8067 35.5189C45.6205 35.5612 45.4225 35.5655 45.2231 35.525L24.7137 31.3343C24.024 31.2521 23.4891 30.6654 23.4891 29.9534V17.0543L16.1235 14.9299C14.6993 14.5557 14.7335 12.6347 16.0567 12.2501L45.0997 3.78215C45.3474 3.70704 45.619 3.70026 45.8862 3.7778L74.8283 12.1708ZM73.4843 28.8583V37.1641L73.6067 37.0645C74.1074 36.5934 74.8918 36.5551 75.4382 37.0021L75.6324 37.1606V28.8714L74.5531 27.9894L73.4843 28.8583ZM26.2707 28.8225L45.5002 32.7518L64.7302 28.8225V17.8287L45.8862 23.2934C45.6028 23.3754 45.3142 23.3629 45.0547 23.2744L26.2707 17.8567V28.8225ZM65.6185 14.6853C65.6929 14.6564 65.7705 14.6338 65.8505 14.618L69.5829 13.5356L45.5015 6.55195L21.4152 13.5747L45.4966 20.5204L65.6185 14.6853ZM84.0953 50.2256H79.1449C78.4385 50.2256 77.8553 50.7522 77.7661 51.434C77.3424 53.6046 76.708 55.6943 75.8852 57.6805C75.0397 59.7214 73.9864 61.6685 72.7501 63.4962C72.3718 64.0571 72.4577 64.7949 72.9194 65.2556L72.9186 65.2565L76.4196 68.7573L69.163 76.0139L65.6622 72.5129C65.1677 72.0184 64.3936 71.9743 63.8489 72.3802C62.037 73.601 60.108 74.642 58.0871 75.4793C56.0767 76.312 53.9602 76.9518 51.7613 77.3757C51.0958 77.5029 50.6329 78.0857 50.6336 78.7393H50.6313V83.6898H40.3694V78.7393C40.3694 78.033 39.8428 77.4497 39.1609 77.3604C36.9904 76.9367 34.9007 76.3023 32.9144 75.4796C30.8736 74.6342 28.9264 73.5808 27.0987 72.3446C26.5379 71.9663 25.8001 72.0521 25.3394 72.5139L25.3385 72.513L21.8376 76.0141L14.5811 68.7575L18.0821 65.2566C18.5765 64.7622 18.6207 63.988 18.2147 63.4434C16.994 61.6315 15.9529 59.7024 15.1157 57.6816C14.2827 55.6711 13.643 53.5547 13.2193 51.3558C13.092 50.6903 12.5093 50.2273 11.8556 50.228V50.2256H6.90516V46.4853H23.8503C24.5694 57.8518 34.0199 66.7884 45.5002 66.7884C56.9805 66.7884 66.431 57.8516 67.1503 46.4853H84.0953V50.2256Z"/>
</mask>
<path fill-rule="evenodd" clip-rule="evenodd" d="M56.1603 60.7182L54.4943 57.8325C52.1414 53.7569 52.6725 51.7047 53.1956 49.684C53.5635 48.263 53.9258 46.8631 52.3187 44.0794C50.8697 41.5695 48.3053 40.0115 45.5034 39.8023L49.882 44.1809C50.2645 44.5634 50.3775 45.1131 50.2214 45.5947L48.7454 51.1032C48.6108 51.6067 48.2162 51.9712 47.7445 52.0912L42.1818 53.5816C41.6854 53.7143 41.18 53.5606 40.8408 53.2219L40.8398 53.223L36.2604 48.6435C36.3011 50.046 36.682 51.4325 37.4076 52.6894C39.0156 55.4743 40.4071 55.8599 41.8196 56.2513C43.8332 56.8092 45.8777 57.3758 48.2302 61.4503L49.463 63.591C51.9027 63.0704 54.1683 62.08 56.1603 60.7182ZM14.1972 43.7037V29.8453H13.0035V43.7037H14.1972ZM16.9787 29.8453V43.7037H18.1721V29.8453H16.9787ZM16.7839 21.2793L20.7252 27.6904C20.8696 27.9096 20.9538 28.1723 20.9538 28.4545V43.7037H25.197C25.965 43.7037 26.5878 44.3265 26.5878 45.0945C26.5878 55.9191 35.6554 64.5416 46.49 63.9813L45.8285 62.8408C44.0408 59.7443 42.5493 59.3309 41.0804 58.9241C39.1148 58.3794 37.1783 57.8427 35.0059 54.0801C34.2181 52.7157 33.7444 51.2597 33.5624 49.7948C33.3774 48.3068 33.4932 46.8037 33.8863 45.3737C34.1672 44.2181 35.4968 43.9468 36.2299 44.6799L42.24 50.6898L46.2692 49.6101L47.3488 45.581L41.442 39.6742L41.4432 39.673C40.6898 38.9211 41.0314 37.6088 42.0886 37.3435C46.9889 36.1139 52.164 38.2721 54.7201 42.6994C56.8933 46.4634 56.3901 48.4068 55.8795 50.3794C55.4971 51.8568 55.1089 53.3572 56.8959 56.4524L58.3501 58.9714C62.0918 55.5058 64.4129 50.5618 64.4129 45.0945C64.4129 44.3265 65.0356 43.7037 65.8037 43.7037H85.4861C86.2542 43.7037 86.877 44.3265 86.877 45.0945V51.6164C86.877 52.3845 86.2542 53.0072 85.4861 53.0072H80.2716C79.3794 56.9399 77.8155 60.7005 75.6825 64.087L79.3695 67.774C79.9126 68.3171 79.9126 69.1977 79.3695 69.7408L70.1463 78.964C69.6032 79.5071 68.7227 79.5071 68.1795 78.964L64.4925 75.2769C61.1064 77.4099 57.3453 78.9741 53.4128 79.8661V85.0806C53.4128 85.8487 52.79 86.4714 52.0219 86.4714H38.9784C38.2103 86.4714 37.5876 85.8487 37.5876 85.0806V79.8661C33.655 78.9741 29.8943 77.4097 26.508 75.2769L22.8209 78.9641C22.2778 79.5073 21.3973 79.5073 20.8542 78.9641L11.631 69.741C11.0879 69.1978 11.0879 68.3173 11.631 67.7742L15.318 64.0871C13.185 60.701 11.6209 56.9399 10.7289 53.0074H5.51435C4.74627 53.0074 4.12354 52.3847 4.12354 51.6166V45.0949C4.12354 44.3268 4.74627 43.7041 5.51435 43.7041H10.2219V28.4548C10.2219 28.1735 10.3001 27.9272 10.4505 27.6908L14.4036 21.2607C14.9559 20.3619 16.2579 20.3902 16.7839 21.2793ZM16.391 25.9495L15.5878 24.643L14.0995 27.0638H17.076L16.391 25.9495ZM74.8283 12.1708C75.4672 12.2965 75.9493 12.8596 75.9493 13.5354V25.5402L77.9034 27.1374C78.239 27.4119 78.413 27.8109 78.4132 28.2132L78.414 40.0926C78.414 41.2512 77.0517 41.9395 76.1058 41.1378L74.5531 39.8689L72.9681 41.1575C72.0517 41.9024 70.7063 41.2145 70.707 40.0819H70.7027V28.2024C70.7027 27.7273 70.941 27.3079 71.3045 27.0571L73.1675 25.5425V15.3817L67.5116 17.022V29.9533H67.5073C67.508 30.5989 67.0551 31.1775 66.3979 31.3116L45.8067 35.5189C45.6205 35.5612 45.4225 35.5655 45.2231 35.525L24.7137 31.3343C24.024 31.2521 23.4891 30.6654 23.4891 29.9534V17.0543L16.1235 14.9299C14.6993 14.5557 14.7335 12.6347 16.0567 12.2501L45.0997 3.78215C45.3474 3.70704 45.619 3.70026 45.8862 3.7778L74.8283 12.1708ZM73.4843 28.8583V37.1641L73.6067 37.0645C74.1074 36.5934 74.8918 36.5551 75.4382 37.0021L75.6324 37.1606V28.8714L74.5531 27.9894L73.4843 28.8583ZM26.2707 28.8225L45.5002 32.7518L64.7302 28.8225V17.8287L45.8862 23.2934C45.6028 23.3754 45.3142 23.3629 45.0547 23.2744L26.2707 17.8567V28.8225ZM65.6185 14.6853C65.6929 14.6564 65.7705 14.6338 65.8505 14.618L69.5829 13.5356L45.5015 6.55195L21.4152 13.5747L45.4966 20.5204L65.6185 14.6853ZM84.0953 50.2256H79.1449C78.4385 50.2256 77.8553 50.7522 77.7661 51.434C77.3424 53.6046 76.708 55.6943 75.8852 57.6805C75.0397 59.7214 73.9864 61.6685 72.7501 63.4962C72.3718 64.0571 72.4577 64.7949 72.9194 65.2556L72.9186 65.2565L76.4196 68.7573L69.163 76.0139L65.6622 72.5129C65.1677 72.0184 64.3936 71.9743 63.8489 72.3802C62.037 73.601 60.108 74.642 58.0871 75.4793C56.0767 76.312 53.9602 76.9518 51.7613 77.3757C51.0958 77.5029 50.6329 78.0857 50.6336 78.7393H50.6313V83.6898H40.3694V78.7393C40.3694 78.033 39.8428 77.4497 39.1609 77.3604C36.9904 76.9367 34.9007 76.3023 32.9144 75.4796C30.8736 74.6342 28.9264 73.5808 27.0987 72.3446C26.5379 71.9663 25.8001 72.0521 25.3394 72.5139L25.3385 72.513L21.8376 76.0141L14.5811 68.7575L18.0821 65.2566C18.5765 64.7622 18.6207 63.988 18.2147 63.4434C16.994 61.6315 15.9529 59.7024 15.1157 57.6816C14.2827 55.6711 13.643 53.5547 13.2193 51.3558C13.092 50.6903 12.5093 50.2273 11.8556 50.228V50.2256H6.90516V46.4853H23.8503C24.5694 57.8518 34.0199 66.7884 45.5002 66.7884C56.9805 66.7884 66.431 57.8516 67.1503 46.4853H84.0953V50.2256Z" fill="white" stroke="#A793B7" stroke-width="0.8" mask="url(#path-1-inside-1_286_3028)"/>
</svg>
